<svg width="20" height="20" viewBox="0 0 20 20" fill="none" xmlns="http://www.w3.org/2000/svg">
<path fill-rule="evenodd" clip-rule="evenodd" d="M10 20C15.5228 20 20 15.5228 20 10C20 4.47715 15.5228 0 10 0C4.47715 0 0 4.47715 0 10C0 15.5228 4.47715 20 10 20ZM10.567 13.2466L4.27879 16.3907C3.84965 16.6053 3.3944 16.1501 3.60897 15.7209L6.75308 9.43269C7.3328 8.27325 8.27293 7.33312 9.43237 6.7534L15.7206 3.60928C16.1497 3.39472 16.605 3.84997 16.3904 4.27911L13.2463 10.5673C12.6666 11.7268 11.7265 12.6669 10.567 13.2466Z" fill="#D5D5DE"/>
<circle cx="9.87018" cy="9.87018" r="1.09674" fill="#D5D5DE"/>
</svg>
