<svg width="375" height="394" viewBox="0 0 375 394" fill="none" xmlns="http://www.w3.org/2000/svg">
<g clip-path="url(#clip0_3996_44299)">
<path d="M426.594 86.2214C-3.82891 119.576 14.0535 374.919 98.7773 353.221C180.777 332.221 191.77 55.1306 -3.82891 119.576C-81.4678 145.156 -105.468 187.656 -140.968 221.656" stroke="#4A3CEF" stroke-width="5"/>
<g filter="url(#filter0_b_3996_44299)">
<rect width="108.099" height="108.099" rx="54.0493" transform="matrix(0.99863 -0.052336 0.258819 0.965926 63 238.862)" fill="#C7E74C" fill-opacity="0.85"/>
<rect x="0.665675" y="0.483641" width="107.04" height="107.04" rx="53.5199" transform="matrix(0.99863 -0.052336 0.258819 0.965926 62.8757 238.913)" stroke="white" stroke-opacity="0.5" stroke-width="1.05877"/>
</g>
<g filter="url(#filter1_b_3996_44299)">
<rect x="97" y="205.43" width="90.1279" height="42.064" rx="21.032" transform="rotate(-4.72892 97 205.43)" fill="#E5F3AE" fill-opacity="0.8"/>
<rect x="97.5395" y="205.887" width="89.1279" height="41.064" rx="20.532" transform="rotate(-4.72892 97.5395 205.887)" stroke="white" stroke-opacity="0.5"/>
<path d="M123.783 218.937L124.114 222.937L128.113 222.606L128.294 224.783L124.294 225.114L124.623 229.097L122.463 229.276L122.133 225.293L118.133 225.623L117.953 223.446L121.953 223.115L121.622 219.115L123.783 218.937ZM134.685 217.083L135.707 229.437L133.527 229.584L132.696 219.542L130.442 220.85L129.493 219.025L132.525 217.262L134.685 217.083ZM142.718 227.039C144.305 226.908 145.19 225.084 144.971 222.435C144.752 219.785 143.579 218.132 141.992 218.263C140.389 218.396 139.486 220.221 139.705 222.87C139.925 225.52 141.115 227.172 142.718 227.039ZM137.528 223.05C137.222 219.354 138.999 216.59 141.834 216.356C144.653 216.123 146.842 218.558 147.148 222.255C147.454 225.951 145.694 228.713 142.876 228.946C140.04 229.181 137.834 226.747 137.528 223.05ZM153.827 226.12C155.413 225.989 156.299 224.166 156.08 221.516C155.861 218.866 154.687 217.213 153.101 217.344C151.497 217.477 150.595 219.302 150.814 221.951C151.033 224.601 152.223 226.253 153.827 226.12ZM148.637 222.131C148.331 218.435 150.108 215.671 152.943 215.437C155.762 215.204 157.951 217.64 158.257 221.336C158.563 225.032 156.803 227.794 153.985 228.027C151.149 228.262 148.943 225.828 148.637 222.131ZM165.063 220.79C166.312 220.686 167.113 219.685 167.006 218.386C166.899 217.103 165.945 216.248 164.679 216.352L162.08 216.567L162.447 221.006L165.063 220.79ZM160.792 227.498L159.748 214.874L164.609 214.472C167.09 214.267 168.984 215.809 169.183 218.206C169.382 220.619 167.767 222.452 165.286 222.657L162.602 222.879L162.969 227.318L160.792 227.498Z" fill="#090909"/>
</g>
<g filter="url(#filter2_b_3996_44299)">
<rect width="58.2659" height="58.2659" rx="29.133" transform="matrix(0.994522 0.104528 -0.275637 0.961262 176.061 37)" fill="#D7F270" fill-opacity="0.85"/>
<rect x="0.205128" y="0.304115" width="57.6952" height="57.6952" rx="28.8476" transform="matrix(0.994522 0.104528 -0.275637 0.961262 176.145 36.9903)" stroke="white" stroke-opacity="0.5" stroke-width="0.570685"/>
</g>
<g filter="url(#filter3_b_3996_44299)">
<rect width="69.0719" height="69.0719" rx="34.536" transform="matrix(1 0 -0.190809 0.981627 249.886 146.437)" fill="#C7E74C" fill-opacity="0.8"/>
<rect x="0.273719" y="0.332047" width="68.3954" height="68.3954" rx="34.1977" transform="matrix(1 0 -0.190809 0.981627 249.949 146.443)" stroke="white" stroke-opacity="0.5" stroke-width="0.676524"/>
</g>
<g filter="url(#filter4_b_3996_44299)">
<rect width="108.099" height="108.099" rx="54.0493" transform="matrix(0.99863 -0.052336 0.258819 0.965926 68.0713 232.424)" fill="#DFF37C" fill-opacity="0.5"/>
<rect x="0.665675" y="0.483641" width="107.04" height="107.04" rx="53.5199" transform="matrix(0.99863 -0.052336 0.258819 0.965926 67.947 232.475)" stroke="white" stroke-opacity="0.5" stroke-width="1.05877"/>
<path d="M136.937 281.493C139.756 281.345 141.193 279.215 140.433 276.379C139.683 273.579 137.16 271.656 134.303 271.806L128.438 272.114L131.034 281.802L136.937 281.493ZM129.813 295.837L122.429 268.282L133.398 267.707C138.997 267.414 143.945 270.89 145.346 276.121C146.758 281.389 143.784 285.28 138.185 285.574L132.13 285.891L134.726 295.58L129.813 295.837Z" fill="#090909"/>
</g>
<g filter="url(#filter5_b_3996_44299)">
<rect width="58.2659" height="58.2659" rx="29.133" transform="matrix(0.994522 0.104528 -0.275637 0.961262 178.798 40)" fill="#E5F3AE" fill-opacity="0.5"/>
<rect x="0.205128" y="0.304115" width="57.6952" height="57.6952" rx="28.8476" transform="matrix(0.994522 0.104528 -0.275637 0.961262 178.883 39.9903)" stroke="white" stroke-opacity="0.5" stroke-width="0.570685"/>
<path d="M200.241 71.1803C201.754 71.3393 203.128 70.3642 203.565 68.8427C203.995 67.3409 203.244 66.1423 201.71 65.9812L198.562 65.6502L197.072 70.8473L200.241 71.1803ZM192.315 77.9605L196.554 63.1796L202.442 63.7985C205.447 64.1143 207.007 66.3139 206.202 69.1199C205.392 71.9456 202.699 73.6982 199.694 73.3823L196.443 73.0407L194.953 78.2377L192.315 77.9605Z" fill="#090909"/>
</g>
<g filter="url(#filter6_b_3996_44299)">
<rect width="69.0719" height="69.0719" rx="34.536" transform="matrix(1 0 -0.190809 0.981627 247.18 143)" fill="#DFF37C" fill-opacity="0.5"/>
<rect x="0.273719" y="0.332047" width="68.3954" height="68.3954" rx="34.1977" transform="matrix(1 0 -0.190809 0.981627 247.243 143.006)" stroke="white" stroke-opacity="0.5" stroke-width="0.676524"/>
<path d="M275.709 177.1C277.512 177.1 279.035 175.785 279.393 173.943C279.746 172.125 278.735 170.809 276.907 170.809H273.154L271.931 177.1H275.709ZM267.049 186.047L270.527 168.154H277.545C281.128 168.154 283.197 170.546 282.537 173.943C281.872 177.363 278.872 179.756 275.29 179.756H271.415L270.192 186.047H267.049Z" fill="#090909"/>
</g>
<g filter="url(#filter7_b_3996_44299)">
<rect x="41.8984" y="90.9038" width="90.1279" height="42.064" rx="21.032" transform="rotate(4.3116 41.8984 90.9038)" fill="#DFF37C" fill-opacity="0.8"/>
<rect x="42.3594" y="91.44" width="89.1279" height="41.064" rx="20.532" transform="rotate(4.3116 42.3594 91.44)" stroke="white" stroke-opacity="0.5"/>
<path d="M66.2261 108.451L65.9243 112.453L69.9266 112.755L69.7623 114.933L65.7601 114.632L65.4596 118.617L63.2981 118.454L63.5986 114.469L59.5963 114.167L59.7606 111.989L63.7628 112.29L64.0645 108.288L66.2261 108.451ZM77.2843 108.334L76.3523 120.695L74.1764 120.497L74.9339 110.449L72.5026 111.387L71.8515 109.436L75.1227 108.171L77.2843 108.334ZM83.6531 119.428C85.2405 119.548 86.4017 117.886 86.6016 115.235C86.8015 112.584 85.9025 110.767 84.3152 110.647C82.7109 110.526 81.5328 112.187 81.3329 114.838C81.133 117.489 82.0488 119.307 83.6531 119.428ZM79.1544 114.674C79.4333 110.975 81.622 108.525 84.459 108.739C87.2792 108.951 89.0589 111.701 88.7801 115.399C88.5012 119.098 86.3294 121.549 83.5092 121.337C80.6722 121.123 78.8756 118.372 79.1544 114.674ZM94.7682 120.266C96.3556 120.386 97.5168 118.724 97.7167 116.073C97.9166 113.422 97.0177 111.605 95.4303 111.485C93.826 111.364 92.6479 113.025 92.448 115.676C92.2481 118.327 93.1639 120.145 94.7682 120.266ZM90.2695 115.512C90.5484 111.813 92.7371 109.363 95.5741 109.577C98.3943 109.789 100.174 112.539 99.8952 116.237C99.6163 119.936 97.4445 122.387 94.6243 122.175C91.7873 121.961 89.9907 119.21 90.2695 115.512ZM106.703 116.768C107.952 116.862 108.901 115.999 108.999 114.699C109.095 113.415 108.287 112.42 107.021 112.325L104.42 112.129L104.085 116.57L106.703 116.768ZM101.431 122.722L102.383 110.09L107.247 110.457C109.729 110.644 111.358 112.465 111.177 114.863C110.995 117.278 109.111 118.834 106.629 118.647L103.944 118.445L103.609 122.886L101.431 122.722Z" fill="#090909"/>
</g>
<g filter="url(#filter8_b_3996_44299)">
<rect x="248.801" y="230" width="90.1279" height="42.064" rx="21.032" transform="rotate(14.878 248.801 230)" fill="#E5F3AE" fill-opacity="0.8"/>
<rect x="249.156" y="230.612" width="89.1279" height="41.064" rx="20.532" transform="rotate(14.878 249.156 230.612)" stroke="white" stroke-opacity="0.5"/>
<path d="M269.498 251.711L268.468 255.59L272.347 256.62L271.786 258.732L267.907 257.701L266.88 261.564L264.785 261.007L265.812 257.145L261.933 256.114L262.494 254.003L266.373 255.033L267.403 251.154L269.498 251.711ZM280.39 253.623L277.207 265.604L275.105 265.01L277.692 255.272L275.13 255.748L274.848 253.71L278.295 253.067L280.39 253.623ZM284.617 265.698C286.155 266.106 287.601 264.686 288.284 262.116C288.967 259.546 288.416 257.595 286.878 257.187C285.323 256.774 283.86 258.19 283.178 260.759C282.495 263.329 283.062 265.284 284.617 265.698ZM281.066 260.198C282.018 256.614 284.619 254.607 287.369 255.337C290.102 256.063 291.348 259.093 290.396 262.677C289.443 266.261 286.859 268.273 284.125 267.547C281.376 266.817 280.114 263.783 281.066 260.198ZM295.39 268.56C296.928 268.968 298.374 267.548 299.057 264.978C299.74 262.408 299.189 260.457 297.651 260.049C296.096 259.636 294.633 261.052 293.951 263.621C293.268 266.191 293.835 268.146 295.39 268.56ZM291.839 263.061C292.791 259.476 295.392 257.469 298.142 258.199C300.875 258.925 302.121 261.955 301.168 265.539C300.216 269.123 297.632 271.135 294.898 270.409C292.149 269.679 290.887 266.645 291.839 263.061ZM307.763 267.309C308.975 267.63 310.065 266.956 310.4 265.696C310.73 264.452 310.118 263.326 308.891 263L306.37 262.33L305.227 266.635L307.763 267.309ZM301.489 272.195L304.741 259.952L309.455 261.205C311.861 261.844 313.129 263.933 312.511 266.257C311.889 268.597 309.752 269.782 307.346 269.143L304.744 268.451L303.6 272.756L301.489 272.195Z" fill="#090909"/>
</g>
</g>
<defs>
<filter id="filter0_b_3996_44299" x="58.7649" y="228.969" width="144.399" height="118.543" filterUnits="userSpaceOnUse" color-interpolation-filters="sRGB">
<feFlood flood-opacity="0" result="BackgroundImageFix"/>
<feGaussianBlur in="BackgroundImageFix" stdDeviation="2.11754"/>
<feComposite in2="SourceAlpha" operator="in" result="effect1_backgroundBlur_3996_44299"/>
<feBlend mode="normal" in="SourceGraphic" in2="effect1_backgroundBlur_3996_44299" result="shape"/>
</filter>
<filter id="filter1_b_3996_44299" x="87" y="188" width="113.289" height="69.3511" filterUnits="userSpaceOnUse" color-interpolation-filters="sRGB">
<feFlood flood-opacity="0" result="BackgroundImageFix"/>
<feGaussianBlur in="BackgroundImageFix" stdDeviation="5"/>
<feComposite in2="SourceAlpha" operator="in" result="effect1_backgroundBlur_3996_44299"/>
<feBlend mode="normal" in="SourceGraphic" in2="effect1_backgroundBlur_3996_44299" result="shape"/>
</filter>
<filter id="filter2_b_3996_44299" x="157.718" y="34.7173" width="78.5726" height="66.6647" filterUnits="userSpaceOnUse" color-interpolation-filters="sRGB">
<feFlood flood-opacity="0" result="BackgroundImageFix"/>
<feGaussianBlur in="BackgroundImageFix" stdDeviation="1.14137"/>
<feComposite in2="SourceAlpha" operator="in" result="effect1_backgroundBlur_3996_44299"/>
<feBlend mode="normal" in="SourceGraphic" in2="effect1_backgroundBlur_3996_44299" result="shape"/>
</filter>
<filter id="filter3_b_3996_44299" x="234" y="143.731" width="87.6637" height="73.215" filterUnits="userSpaceOnUse" color-interpolation-filters="sRGB">
<feFlood flood-opacity="0" result="BackgroundImageFix"/>
<feGaussianBlur in="BackgroundImageFix" stdDeviation="1.35305"/>
<feComposite in2="SourceAlpha" operator="in" result="effect1_backgroundBlur_3996_44299"/>
<feBlend mode="normal" in="SourceGraphic" in2="effect1_backgroundBlur_3996_44299" result="shape"/>
</filter>
<filter id="filter4_b_3996_44299" x="57.4836" y="216.178" width="157.104" height="131.248" filterUnits="userSpaceOnUse" color-interpolation-filters="sRGB">
<feFlood flood-opacity="0" result="BackgroundImageFix"/>
<feGaussianBlur in="BackgroundImageFix" stdDeviation="5.29385"/>
<feComposite in2="SourceAlpha" operator="in" result="effect1_backgroundBlur_3996_44299"/>
<feBlend mode="normal" in="SourceGraphic" in2="effect1_backgroundBlur_3996_44299" result="shape"/>
</filter>
<filter id="filter5_b_3996_44299" x="157.031" y="34.2932" width="85.4208" height="73.5129" filterUnits="userSpaceOnUse" color-interpolation-filters="sRGB">
<feFlood flood-opacity="0" result="BackgroundImageFix"/>
<feGaussianBlur in="BackgroundImageFix" stdDeviation="2.85342"/>
<feComposite in2="SourceAlpha" operator="in" result="effect1_backgroundBlur_3996_44299"/>
<feBlend mode="normal" in="SourceGraphic" in2="effect1_backgroundBlur_3996_44299" result="shape"/>
</filter>
<filter id="filter6_b_3996_44299" x="227.235" y="136.235" width="95.7819" height="81.3333" filterUnits="userSpaceOnUse" color-interpolation-filters="sRGB">
<feFlood flood-opacity="0" result="BackgroundImageFix"/>
<feGaussianBlur in="BackgroundImageFix" stdDeviation="3.38262"/>
<feComposite in2="SourceAlpha" operator="in" result="effect1_backgroundBlur_3996_44299"/>
<feBlend mode="normal" in="SourceGraphic" in2="effect1_backgroundBlur_3996_44299" result="shape"/>
</filter>
<filter id="filter7_b_3996_44299" x="28.7361" y="80.9038" width="113.035" height="68.7208" filterUnits="userSpaceOnUse" color-interpolation-filters="sRGB">
<feFlood flood-opacity="0" result="BackgroundImageFix"/>
<feGaussianBlur in="BackgroundImageFix" stdDeviation="5"/>
<feComposite in2="SourceAlpha" operator="in" result="effect1_backgroundBlur_3996_44299"/>
<feBlend mode="normal" in="SourceGraphic" in2="effect1_backgroundBlur_3996_44299" result="shape"/>
</filter>
<filter id="filter8_b_3996_44299" x="228" y="220" width="117.907" height="83.7952" filterUnits="userSpaceOnUse" color-interpolation-filters="sRGB">
<feFlood flood-opacity="0" result="BackgroundImageFix"/>
<feGaussianBlur in="BackgroundImageFix" stdDeviation="5"/>
<feComposite in2="SourceAlpha" operator="in" result="effect1_backgroundBlur_3996_44299"/>
<feBlend mode="normal" in="SourceGraphic" in2="effect1_backgroundBlur_3996_44299" result="shape"/>
</filter>
<clipPath id="clip0_3996_44299">
<rect width="375" height="394" fill="white"/>
</clipPath>
</defs>
</svg>
