<svg width="375" height="394" viewBox="0 0 375 394" fill="none" xmlns="http://www.w3.org/2000/svg">
<g filter="url(#filter0_b_3996_44299)">
<rect width="86.4789" height="86.4789" rx="43.2394" transform="matrix(0.99863 -0.052336 0.258819 0.965926 83.0129 224.217)" fill="#D5D5DE"/>
<rect x="0.53254" y="0.386913" width="85.6319" height="85.6319" rx="42.8159" transform="matrix(0.99863 -0.052336 0.258819 0.965926 82.9135 224.258)" stroke="white" stroke-width="0.847016"/>
</g>
<g filter="url(#filter1_b_3996_44299)">
<rect x="110.213" y="197.455" width="71.9024" height="33.4512" rx="16.7256" transform="rotate(-4.72892 110.213 197.455)" fill="#F1F1F5"/>
<rect x="110.645" y="197.821" width="71.1024" height="32.6512" rx="16.3256" transform="rotate(-4.72892 110.645 197.821)" stroke="white" stroke-width="0.8"/>
<path d="M131.506 207.87L131.771 211.07L134.971 210.805L135.115 212.547L131.915 212.812L132.179 215.998L130.451 216.141L130.187 212.955L126.987 213.22L126.843 211.478L130.043 211.213L129.778 208.013L131.506 207.87ZM140.228 206.387L141.046 216.271L139.302 216.388L138.637 208.354L136.834 209.401L136.075 207.941L138.5 206.53L140.228 206.387ZM146.655 214.352C147.924 214.247 148.633 212.788 148.457 210.669C148.282 208.549 147.343 207.226 146.074 207.331C144.791 207.437 144.069 208.897 144.245 211.017C144.42 213.137 145.372 214.458 146.655 214.352ZM142.503 211.161C142.258 208.204 143.68 205.993 145.948 205.806C148.203 205.619 149.954 207.568 150.199 210.525C150.444 213.481 149.036 215.691 146.781 215.878C144.513 216.066 142.748 214.118 142.503 211.161ZM155.542 213.617C156.811 213.512 157.52 212.053 157.344 209.933C157.169 207.814 156.23 206.491 154.961 206.596C153.678 206.702 152.956 208.162 153.132 210.282C153.307 212.402 154.259 213.723 155.542 213.617ZM151.39 210.426C151.145 207.469 152.566 205.258 154.835 205.07C157.09 204.884 158.841 206.832 159.086 209.789C159.331 212.746 157.923 214.956 155.668 215.143C153.4 215.33 151.634 213.383 151.39 210.426ZM164.531 209.353C165.53 209.27 166.171 208.469 166.085 207.43C166 206.403 165.236 205.719 164.224 205.803L162.145 205.975L162.438 209.526L164.531 209.353ZM161.114 214.719L160.279 204.62L164.167 204.298C166.152 204.134 167.668 205.368 167.827 207.285C167.986 209.216 166.694 210.683 164.709 210.847L162.562 211.024L162.856 214.575L161.114 214.719Z" fill="#AEAFBC"/>
</g>
<g filter="url(#filter2_b_3996_44299)">
<rect width="46.6127" height="46.6127" rx="23.3064" transform="matrix(0.994522 0.104528 -0.275637 0.961262 154.261 95.5277)" fill="#D5D5DE"/>
<rect x="0.164103" y="0.243292" width="46.1562" height="46.1562" rx="23.0781" transform="matrix(0.994522 0.104528 -0.275637 0.961262 154.329 95.52)" stroke="white" stroke-width="0.456548"/>
</g>
<g filter="url(#filter3_b_3996_44299)">
<rect width="55.2575" height="55.2575" rx="27.6288" transform="matrix(1 0 -0.190809 0.981627 215.721 150.277)" fill="#D5D5DE"/>
<rect x="0.218975" y="0.265638" width="54.7163" height="54.7163" rx="27.3582" transform="matrix(1 0 -0.190809 0.981627 215.772 150.282)" stroke="white" stroke-width="0.541219"/>
</g>
<g filter="url(#filter4_b_3996_44299)">
<rect width="86.4789" height="86.4789" rx="43.2394" transform="matrix(0.99863 -0.052336 0.258819 0.965926 87.0701 219.067)" fill="#F1F1F5"/>
<rect x="0.53254" y="0.386913" width="85.6319" height="85.6319" rx="42.8159" transform="matrix(0.99863 -0.052336 0.258819 0.965926 86.9707 219.108)" stroke="white" stroke-width="0.847016"/>
<path d="M142.344 258.998C144.599 258.88 145.749 257.176 145.141 254.907C144.541 252.667 142.522 251.129 140.237 251.249L135.545 251.495L137.622 259.246L142.344 258.998ZM136.644 270.474L130.738 248.429L139.513 247.969C143.992 247.735 147.95 250.516 149.071 254.701C150.201 258.915 147.822 262.028 143.343 262.263L138.498 262.517L140.575 270.268L136.644 270.474Z" fill="#AEAFBC"/>
</g>
<g filter="url(#filter5_b_3996_44299)">
<rect width="46.6127" height="46.6127" rx="23.3064" transform="matrix(0.994522 0.104528 -0.275637 0.961262 156.451 97.9277)" fill="#F1F1F5"/>
<rect x="0.164103" y="0.243292" width="46.1562" height="46.1562" rx="23.0781" transform="matrix(0.994522 0.104528 -0.275637 0.961262 156.519 97.92)" stroke="white" stroke-width="0.456548"/>
<path d="M173.743 122.391C174.954 122.519 176.053 121.739 176.402 120.521C176.747 119.32 176.146 118.361 174.919 118.232L172.4 117.967L171.208 122.125L173.743 122.391ZM167.403 127.816L170.794 115.991L175.504 116.486C177.908 116.739 179.156 118.498 178.512 120.743C177.864 123.004 175.71 124.406 173.305 124.153L170.705 123.88L169.513 128.037L167.403 127.816Z" fill="#AEAFBC"/>
</g>
<g filter="url(#filter6_b_3996_44299)">
<rect width="55.2575" height="55.2575" rx="27.6288" transform="matrix(1 0 -0.190809 0.981627 213.557 147.528)" fill="#F1F1F5"/>
<rect x="0.218975" y="0.265638" width="54.7163" height="54.7163" rx="27.3582" transform="matrix(1 0 -0.190809 0.981627 213.607 147.533)" stroke="white" stroke-width="0.541219"/>
<path d="M236.323 175.102C237.765 175.102 238.984 174.05 239.27 172.576C239.553 171.122 238.744 170.069 237.281 170.069H234.279L233.301 175.102H236.323ZM229.395 182.26L232.177 167.945H237.792C240.658 167.945 242.313 169.859 241.785 172.576C241.253 175.313 238.854 177.227 235.988 177.227H232.888L231.91 182.26H229.395Z" fill="#AEAFBC"/>
</g>
<g filter="url(#filter7_b_3996_44299)">
<rect x="204.402" y="237.928" width="71.9024" height="33.4512" rx="16.7256" transform="rotate(14.878 204.402 237.928)" fill="#F1F1F5"/>
<rect x="204.686" y="238.417" width="71.1024" height="32.6512" rx="16.3256" transform="rotate(14.878 204.686 238.417)" stroke="white" stroke-width="0.8"/>
<path d="M220.966 254.884L220.141 257.987L223.245 258.812L222.796 260.501L219.693 259.676L218.872 262.767L217.196 262.321L218.017 259.231L214.913 258.407L215.362 256.718L218.465 257.542L219.29 254.439L220.966 254.884ZM229.68 256.414L227.133 265.999L225.451 265.524L227.521 257.733L225.471 258.114L225.245 256.484L228.004 255.969L229.68 256.414ZM233.061 266.074C234.291 266.4 235.448 265.264 235.995 263.208C236.541 261.153 236.1 259.592 234.87 259.265C233.626 258.934 232.456 260.067 231.909 262.123C231.363 264.179 231.817 265.743 233.061 266.074ZM230.22 261.674C230.982 258.807 233.063 257.201 235.263 257.785C237.449 258.366 238.446 260.79 237.684 263.657C236.922 266.525 234.854 268.134 232.668 267.553C230.468 266.969 229.458 264.542 230.22 261.674ZM241.679 268.363C242.91 268.69 244.067 267.554 244.613 265.498C245.159 263.442 244.719 261.881 243.488 261.554C242.244 261.224 241.074 262.357 240.528 264.413C239.982 266.468 240.435 268.033 241.679 268.363ZM238.839 263.964C239.6 261.096 241.681 259.49 243.881 260.075C246.068 260.656 247.064 263.079 246.302 265.947C245.54 268.814 243.473 270.424 241.286 269.843C239.086 269.258 238.077 266.831 238.839 263.964ZM251.578 267.362C252.547 267.62 253.419 267.081 253.687 266.072C253.951 265.077 253.462 264.176 252.48 263.915L250.463 263.38L249.549 266.823L251.578 267.362ZM246.558 271.272L249.16 261.477L252.931 262.479C254.856 262.991 255.87 264.662 255.376 266.521C254.879 268.393 253.169 269.341 251.244 268.83L249.162 268.277L248.248 271.72L246.558 271.272Z" fill="#AEAFBC"/>
</g>
<defs>
<filter id="filter0_b_3996_44299" x="79.6249" y="216.303" width="115.519" height="94.8344" filterUnits="userSpaceOnUse" color-interpolation-filters="sRGB">
<feFlood flood-opacity="0" result="BackgroundImageFix"/>
<feGaussianBlur in="BackgroundImageFix" stdDeviation="1.69403"/>
<feComposite in2="SourceAlpha" operator="in" result="effect1_backgroundBlur_3996_44299"/>
<feBlend mode="normal" in="SourceGraphic" in2="effect1_backgroundBlur_3996_44299" result="shape"/>
</filter>
<filter id="filter1_b_3996_44299" x="102.213" y="183.528" width="90.4154" height="55.265" filterUnits="userSpaceOnUse" color-interpolation-filters="sRGB">
<feFlood flood-opacity="0" result="BackgroundImageFix"/>
<feGaussianBlur in="BackgroundImageFix" stdDeviation="4"/>
<feComposite in2="SourceAlpha" operator="in" result="effect1_backgroundBlur_3996_44299"/>
<feBlend mode="normal" in="SourceGraphic" in2="effect1_backgroundBlur_3996_44299" result="shape"/>
</filter>
<filter id="filter2_b_3996_44299" x="139.587" y="93.7015" width="62.8581" height="53.3318" filterUnits="userSpaceOnUse" color-interpolation-filters="sRGB">
<feFlood flood-opacity="0" result="BackgroundImageFix"/>
<feGaussianBlur in="BackgroundImageFix" stdDeviation="0.913095"/>
<feComposite in2="SourceAlpha" operator="in" result="effect1_backgroundBlur_3996_44299"/>
<feBlend mode="normal" in="SourceGraphic" in2="effect1_backgroundBlur_3996_44299" result="shape"/>
</filter>
<filter id="filter3_b_3996_44299" x="203.013" y="148.112" width="70.1309" height="58.5721" filterUnits="userSpaceOnUse" color-interpolation-filters="sRGB">
<feFlood flood-opacity="0" result="BackgroundImageFix"/>
<feGaussianBlur in="BackgroundImageFix" stdDeviation="1.08244"/>
<feComposite in2="SourceAlpha" operator="in" result="effect1_backgroundBlur_3996_44299"/>
<feBlend mode="normal" in="SourceGraphic" in2="effect1_backgroundBlur_3996_44299" result="shape"/>
</filter>
<filter id="filter4_b_3996_44299" x="78.5999" y="206.07" width="125.683" height="104.999" filterUnits="userSpaceOnUse" color-interpolation-filters="sRGB">
<feFlood flood-opacity="0" result="BackgroundImageFix"/>
<feGaussianBlur in="BackgroundImageFix" stdDeviation="4.23508"/>
<feComposite in2="SourceAlpha" operator="in" result="effect1_backgroundBlur_3996_44299"/>
<feBlend mode="normal" in="SourceGraphic" in2="effect1_backgroundBlur_3996_44299" result="shape"/>
</filter>
<filter id="filter5_b_3996_44299" x="139.037" y="93.3623" width="68.3366" height="58.8104" filterUnits="userSpaceOnUse" color-interpolation-filters="sRGB">
<feFlood flood-opacity="0" result="BackgroundImageFix"/>
<feGaussianBlur in="BackgroundImageFix" stdDeviation="2.28274"/>
<feComposite in2="SourceAlpha" operator="in" result="effect1_backgroundBlur_3996_44299"/>
<feBlend mode="normal" in="SourceGraphic" in2="effect1_backgroundBlur_3996_44299" result="shape"/>
</filter>
<filter id="filter6_b_3996_44299" x="197.601" y="142.116" width="76.6255" height="65.0667" filterUnits="userSpaceOnUse" color-interpolation-filters="sRGB">
<feFlood flood-opacity="0" result="BackgroundImageFix"/>
<feGaussianBlur in="BackgroundImageFix" stdDeviation="2.7061"/>
<feComposite in2="SourceAlpha" operator="in" result="effect1_backgroundBlur_3996_44299"/>
<feBlend mode="normal" in="SourceGraphic" in2="effect1_backgroundBlur_3996_44299" result="shape"/>
</filter>
<filter id="filter7_b_3996_44299" x="187.813" y="229.928" width="94.0808" height="66.7915" filterUnits="userSpaceOnUse" color-interpolation-filters="sRGB">
<feFlood flood-opacity="0" result="BackgroundImageFix"/>
<feGaussianBlur in="BackgroundImageFix" stdDeviation="4"/>
<feComposite in2="SourceAlpha" operator="in" result="effect1_backgroundBlur_3996_44299"/>
<feBlend mode="normal" in="SourceGraphic" in2="effect1_backgroundBlur_3996_44299" result="shape"/>
</filter>
</defs>
</svg>
