<svg width="15" height="18" viewBox="0 0 15 18" fill="none" xmlns="http://www.w3.org/2000/svg">
<path d="M0 4.37499C0 3.4085 0.783495 2.625 1.74999 2.625H13.25C14.2165 2.625 15 3.4085 15 4.37499V5.45832H0V4.37499Z" fill="#D5D5DE"/>
<path fill-rule="evenodd" clip-rule="evenodd" d="M15 6.16699H0V15.7503C0 16.7168 0.783495 17.5003 1.74998 17.5003H13.25C14.2165 17.5003 15 16.7168 15 15.7503V6.16699ZM4.77219 8.29199H2.04492V11.1253H4.77219V8.29199ZM2.04492 12.5422H4.77219V15.3756H2.04492V12.5422ZM8.86399 8.29199H6.13672V11.1253H8.86399V8.29199ZM6.13672 12.5422H8.86399V15.3756H6.13672V12.5422ZM12.9548 8.29191H10.2275V11.1252H12.9548V8.29191Z" fill="#D5D5DE"/>
<rect x="2.72754" y="0.5" width="1.36364" height="3.54165" rx="0.681818" fill="#D5D5DE"/>
<rect x="10.9102" y="0.5" width="1.36364" height="3.54165" rx="0.681818" fill="#D5D5DE"/>
</svg>
