<svg width="18" height="18" viewBox="0 0 18 18" fill="none" xmlns="http://www.w3.org/2000/svg">
<path d="M6.39502 2.50987L0.651246 13.9974C0.352041 14.5958 0.787187 15.2999 1.45623 15.2999H12.9438C13.6128 15.2999 14.048 14.5958 13.7488 13.9974L8.00498 2.50987C7.67331 1.84653 6.72669 1.84653 6.39502 2.50987Z" fill="#4FC578"/>
<path d="M11.8101 6.84843L7.2002 15.2999H16.4841C17.1673 15.2999 17.6013 14.5687 17.2742 13.9689L13.3903 6.84843C13.0492 6.22305 12.1512 6.22305 11.8101 6.84843Z" fill="#23B169"/>
<path fill-rule="evenodd" clip-rule="evenodd" d="M3.59961 8.09985L6.20989 4.73666L7.10989 6.53666L8.00989 4.73666L9.89949 6.2999L8.00452 2.50996C7.67285 1.84662 6.72622 1.84662 6.39455 2.50996L3.59961 8.09985Z" fill="#E5E8EB"/>
</svg>
