<svg width="18" height="18" viewBox="0 0 18 18" fill="none" xmlns="http://www.w3.org/2000/svg">
<g clip-path="url(#clip0_3454_5297)">
<path d="M15.1138 6.47165C15.6734 7.46157 15.6139 8.75913 14.93 10.1135C14.2483 11.4635 12.9715 12.8037 11.2433 13.7807C9.51508 14.7578 7.70842 15.1609 6.20017 15.0489C4.68714 14.9366 3.54464 14.3187 2.98498 13.3287C2.42532 12.3388 2.48486 11.0412 3.16872 9.68692C3.85042 8.33686 5.12728 6.99667 6.85547 6.01963C8.58366 5.04258 10.3903 4.6395 11.8986 4.75144C13.4116 4.86374 14.5541 5.48172 15.1138 6.47165Z" stroke="#DCE0E5" stroke-width="1.16108"/>
<path d="M15.295 6.79125C15.7943 7.67439 15.7107 8.8807 14.9925 10.1889C14.2794 11.4878 12.979 12.7989 11.2434 13.7801C9.50788 14.7613 7.71406 15.1996 6.23337 15.1409C4.74218 15.0818 3.66549 14.5315 3.16621 13.6483C2.66692 12.7652 2.75046 11.5589 3.46866 10.2507C4.1818 8.95175 5.48223 7.64072 7.21778 6.65952C8.95332 5.67832 10.7471 5.23999 12.2278 5.29866C13.719 5.35775 14.7957 5.90812 15.295 6.79125Z" stroke="#DCE0E5" stroke-width="1.16108"/>
<path d="M5.22507 5.28329L6.96669 6.44437H8.12777L9.28885 5.28329V4.12221V2.38059L6.96669 1.80005L5.22507 2.96113L4.64453 4.12221L5.22507 5.28329Z" fill="#5A81FF"/>
<path d="M6.96623 5.28361H5.22461L6.96623 3.54199V5.28361Z" fill="#5A81FF"/>
<path d="M5.22507 5.28361L4.64453 4.12253L6.96669 3.54199L5.22507 5.28361Z" fill="#7D9DFF"/>
<path d="M8.70744 4.12253L6.96582 5.28361V3.54199L8.70744 4.12253Z" fill="#CAD8FF"/>
<path d="M9.28798 2.38086L8.70744 4.12248L6.96582 3.54194L9.28798 2.38086Z" fill="#A8BFFF"/>
<path d="M9.28798 2.38059L6.96582 1.80005V3.54167L9.28798 2.38059Z" fill="#CAD8FF"/>
<path d="M6.96623 1.80005L5.22461 2.96113L6.96623 3.54167V1.80005Z" fill="#7D9DFF"/>
</g>
<defs>
<clipPath id="clip0_3454_5297">
<rect width="18" height="18" fill="white"/>
</clipPath>
</defs>
</svg>
