<svg width="44" height="44" viewBox="0 0 44 44" fill="none" xmlns="http://www.w3.org/2000/svg">
<g id="symbol_logo">
<g id="Group 1171276420">
<path id="Vector 1787 (Stroke)" fill-rule="evenodd" clip-rule="evenodd" d="M7.8626 10C7.8626 10 8.16891 10 9.22535 10.3269C10.2818 10.6539 14.3641 11.9544 17.9037 15.2257C19.2355 16.569 20.8203 18.4266 21.3671 20.3243C21.9649 20.6027 22.5797 20.9203 23.2109 21.2804L24.4243 21.9726L23.0168 24.3593L21.8034 23.6672C21.7671 23.6464 21.7308 23.6259 21.6947 23.6055C21.6042 24.7136 21.3122 25.8646 20.7868 27.0492C19.7129 29.4703 18.0562 30.9803 16.1477 31.6211C14.2638 32.2536 12.2988 31.9825 10.6994 31.1552C9.1057 30.3309 7.79212 28.9115 7.25593 27.1351C6.7073 25.3174 7.01575 23.2655 8.42404 21.3269C9.77318 19.4697 12.9994 17.9257 17.7127 19.0326C17.3354 18.455 16.3513 17.3577 14.9486 16.553C13.4107 15.6707 11.6756 14.9573 9.92228 14.5986C8.16891 14.2399 7.06129 14.0995 7.06129 14.0995L7.8626 10ZM18.8938 22.2729C13.8623 20.355 11.2865 22.1328 10.7067 22.9309C9.76056 24.2333 9.66206 25.4114 9.94532 26.3498C10.241 27.3295 10.9981 28.1923 12.0053 28.7132C13.0067 29.2312 14.1728 29.3687 15.2414 29.0099C16.2853 28.6594 17.4026 27.7784 18.2154 25.9459C18.8126 24.5996 18.9947 23.3791 18.8938 22.2729Z" fill="white"/>
<path id="Vector 1787 (Stroke)_2" fill-rule="evenodd" clip-rule="evenodd" d="M36.4406 35C36.4406 35 36.1343 35 35.0779 34.6656C34.0214 34.3311 29.9391 33.0007 26.3995 29.6542C25.0677 28.28 23.4829 26.3797 22.9361 24.4384C22.3384 24.1536 21.7236 23.8286 21.0923 23.4602L19.8789 22.7522L21.2864 20.3106L22.4998 21.0186C22.5361 21.0399 22.5724 21.0609 22.6085 21.0817C22.6991 19.9482 22.991 18.7707 23.5164 17.5589C24.5904 15.0821 26.2471 13.5374 28.1556 12.8819C30.0395 12.2348 32.0044 12.5121 33.6038 13.3585C35.1975 14.2018 36.5111 15.6538 37.0473 17.471C37.5959 19.3305 37.2875 21.4295 35.8792 23.4127C34.53 25.3126 31.3038 26.8921 26.5905 25.7598C26.9679 26.3507 27.9519 27.4731 29.3546 28.2964C30.8925 29.199 32.6276 29.9288 34.3809 30.2957C36.1343 30.6626 37.2419 30.8063 37.2419 30.8063L36.4406 35ZM25.4094 22.445C30.4409 24.407 33.0168 22.5883 33.5965 21.7718C34.5427 20.4395 34.6412 19.2343 34.3579 18.2743C34.0622 17.2721 33.3051 16.3895 32.298 15.8566C31.2965 15.3267 30.1304 15.1861 29.0619 15.5531C28.0179 15.9116 26.9006 16.8129 26.0878 18.6875C25.4906 20.0648 25.3085 21.3134 25.4094 22.445Z" fill="white"/>
</g>
</g>
</svg>
