<svg width="18" height="18" viewBox="0 0 18 18" fill="none" xmlns="http://www.w3.org/2000/svg">
<g clip-path="url(#clip0_3454_5235)">
<path d="M5.35224 3.22439C5.49899 2.90479 5.81846 2.69995 6.17013 2.69995L12.7303 2.69995C13.0819 2.69995 13.4014 2.90479 13.5482 3.22439L16.2002 8.99995H2.7002L5.35224 3.22439Z" fill="#4592FB"/>
<path d="M5.86486 4.1211C6.01238 3.80336 6.33086 3.6001 6.68117 3.6001L12.2181 3.6001C12.5684 3.6001 12.8868 3.80336 13.0344 4.1211L15.2996 9.0001H3.59961L5.86486 4.1211Z" fill="#313D4C"/>
<path d="M0 10.2637C0 9.90614 0.211674 9.58249 0.539263 9.43917L3.42752 8.17556C3.54128 8.12579 3.6641 8.1001 3.78826 8.1001H15.1312C15.2427 8.1001 15.3534 8.12085 15.4574 8.16129L17.4262 8.92695C17.7721 9.06148 18 9.39459 18 9.76576V13.5001C18 13.9972 17.5971 14.4001 17.1 14.4001H0.899999C0.402943 14.4001 0 13.9972 0 13.5001V10.2637Z" fill="#4592FB"/>
<path d="M7.20039 14.4C6.75039 14.4 5.79009 14.4 4.05039 14.4C2.31069 14.4 1.35039 14.4 0.900391 14.4C0.900391 12.15 2.31069 10.8 4.05039 10.8C5.79009 10.8 7.20039 12.15 7.20039 14.4Z" fill="#2D67D5"/>
<path d="M0.00039057 12.6C0.000390576 12.4715 0.000390588 12.1971 0.00039061 11.7C0.000390631 11.203 0.000390643 10.9286 0.000390649 10.8C0.562891 10.8 0.900391 11.203 0.900391 11.7C0.900391 12.1971 0.562891 12.6 0.00039057 12.6Z" fill="#E5E9FF"/>
<path d="M17.9996 9.89995C17.9996 10.0285 17.9996 10.3029 17.9996 10.8C17.9996 11.297 17.9996 11.5714 17.9996 11.7C17.4371 11.7 17.0996 11.297 17.0996 10.8C17.0996 10.3029 17.4371 9.89995 17.9996 9.89995Z" fill="#EF4452"/>
<path d="M17.0998 14.4C16.6498 14.4 15.6895 14.4 13.9498 14.4C12.2101 14.4 11.2498 14.4 10.7998 14.4C10.7998 12.15 12.2101 10.8 13.9498 10.8C15.6895 10.8 17.0998 12.15 17.0998 14.4Z" fill="#2D67D5"/>
<circle cx="4.0498" cy="13.95" r="2.25" fill="#090909"/>
<circle cx="4.0502" cy="13.9501" r="1.35" fill="#D1D6E3"/>
<circle cx="13.9502" cy="13.95" r="2.25" fill="#090909"/>
<circle cx="13.9496" cy="13.9501" r="1.35" fill="#D1D6E3"/>
<rect x="6.2998" y="13.5" width="5.4" height="0.9" fill="#2D67D5"/>
</g>
<defs>
<clipPath id="clip0_3454_5235">
<rect width="18" height="18" fill="white"/>
</clipPath>
</defs>
</svg>
