<svg width="19" height="10" viewBox="0 0 19 10" fill="none" xmlns="http://www.w3.org/2000/svg">
<path d="M1.5 4.4C1.16863 4.4 0.9 4.66863 0.9 5C0.9 5.33137 1.16863 5.6 1.5 5.6V4.4ZM17.9243 5.42426C18.1586 5.18995 18.1586 4.81005 17.9243 4.57574L14.1059 0.757359C13.8716 0.523045 13.4917 0.523045 13.2574 0.757359C13.023 0.991674 13.023 1.37157 13.2574 1.60589L16.6515 5L13.2574 8.39411C13.023 8.62843 13.023 9.00833 13.2574 9.24264C13.4917 9.47696 13.8716 9.47696 14.1059 9.24264L17.9243 5.42426ZM1.5 5.6H17.5V4.4H1.5V5.6Z" fill="white"/>
</svg>
