<svg width="18" height="18" viewBox="0 0 18 18" fill="none" xmlns="http://www.w3.org/2000/svg">
<g clip-path="url(#clip0_3454_5361)">
<path fill-rule="evenodd" clip-rule="evenodd" d="M13.532 14.7162C13.9386 15.2267 14.7276 15.4925 15.125 15.1094C16.7975 13.4972 17.218 10.9923 15.9916 8.47768C14.1928 4.7897 9.48101 2.49159 5.46743 3.34471C1.45385 4.19782 -0.341633 7.8791 1.45711 11.5671C2.67769 14.0696 5.2146 15.9361 7.98238 16.6095C8.65453 16.773 9.06444 16.2347 8.94623 15.6538C8.74879 14.6837 8.95439 13.6585 10.3528 13.3612C11.7679 13.0604 12.834 13.8398 13.532 14.7162Z" fill="#AD7E4D"/>
<circle cx="1.32082" cy="1.32082" r="1.32082" transform="matrix(0.978148 -0.207912 0.438371 0.898794 1.75586 6.45386)" fill="#AD7E4D"/>
<circle cx="1.32082" cy="1.32082" r="1.32082" transform="matrix(0.978148 -0.207912 0.438371 0.898794 1.57715 9.98608)" fill="#AD7E4D"/>
<circle cx="1.32082" cy="1.32082" r="1.32082" transform="matrix(0.978148 -0.207912 0.438371 0.898794 4.53711 4.36108)" fill="#AD7E4D"/>
<circle cx="1.32082" cy="1.32082" r="1.32082" transform="matrix(0.978148 -0.207912 0.438371 0.898794 8.64648 4.9895)" fill="#AD7E4D"/>
<circle cx="1.32082" cy="1.32082" r="1.32082" transform="matrix(0.978148 -0.207912 0.438371 0.898794 11.9131 7.78882)" fill="#AD7E4D"/>
<path d="M8.09961 16.605C8.99961 16.74 9.53961 15.75 9.08961 13.95C8.37036 14.31 8.09961 16.155 8.09961 16.605Z" fill="#AD7E4D"/>
<path fill-rule="evenodd" clip-rule="evenodd" d="M13.8171 13.7801C14.2238 14.2907 15.0127 14.5565 15.4101 14.1734C17.0827 12.5612 17.5032 10.0562 16.2767 7.54164C14.478 3.85367 9.76617 1.55556 5.75259 2.40867C1.739 3.26178 -0.0564771 6.94306 1.74227 10.631C2.96284 13.1336 5.49976 15.0001 8.26753 15.6735C8.93969 15.837 9.3496 15.2986 9.23139 14.7178C9.03395 13.7476 9.23955 12.7224 10.638 12.4252C12.053 12.1244 13.1191 12.9038 13.8171 13.7801Z" fill="#E4B15A"/>
<circle cx="1.32082" cy="1.32082" r="1.32082" transform="matrix(0.978148 -0.207912 0.438371 0.898794 2.04102 5.51782)" fill="#4EA2D6"/>
<circle cx="1.32082" cy="1.32082" r="1.32082" transform="matrix(0.978148 -0.207912 0.438371 0.898794 1.8623 9.05005)" fill="#9F3FC0"/>
<circle cx="1.32082" cy="1.32082" r="1.32082" transform="matrix(0.978148 -0.207912 0.438371 0.898794 4.82227 3.42505)" fill="#71EC41"/>
<circle cx="1.32082" cy="1.32082" r="1.32082" transform="matrix(0.978148 -0.207912 0.438371 0.898794 8.93164 4.05347)" fill="#F7E651"/>
<circle cx="1.32082" cy="1.32082" r="1.32082" transform="matrix(0.978148 -0.207912 0.438371 0.898794 12.1982 6.85278)" fill="#EF4452"/>
</g>
<defs>
<clipPath id="clip0_3454_5361">
<rect width="18" height="18" fill="white"/>
</clipPath>
</defs>
</svg>
