<svg width="375" height="394" viewBox="0 0 375 394" fill="none" xmlns="http://www.w3.org/2000/svg">
<g clip-path="url(#clip0_4003_30459)">
<path d="M-13 183C295 134 250.963 20.686 200.18 66.8854C173.854 90.8361 161.959 183 258.657 183C291.281 183 382.19 177.559 390.5 117.5" stroke="#4A3CEF" stroke-width="5"/>
<path d="M180.839 320.181C180.839 324.198 153.161 326 119.017 326C84.874 326 57.1953 324.198 57.1953 320.181C57.1953 316.165 84.874 311.454 119.017 311.454C153.161 311.454 180.839 316.165 180.839 320.181Z" fill="#AEAFBC"/>
<path d="M316.952 320.181C316.952 324.198 289.273 326 255.13 326C220.986 326 193.308 324.198 193.308 320.181C193.308 316.165 220.986 311.454 255.13 311.454C289.273 311.454 316.952 316.165 316.952 320.181Z" fill="#AEAFBC"/>
<path d="M183.002 177.212C169.52 171.908 165.339 198.512 143.52 204.226L157.986 226.735C192.873 204.226 197.519 182.923 183.002 177.212Z" fill="#E6C6FF"/>
<rect x="87.8701" y="128.012" width="102.845" height="29.0393" rx="14.5196" transform="rotate(79.9927 87.8701 128.012)" fill="#E6C6FF"/>
<rect x="132.182" y="130.566" width="87.6725" height="27.5684" rx="13.7842" transform="rotate(111.924 132.182 130.566)" fill="#E6C6FF"/>
<path d="M112.952 155.089C87.4707 152.539 62.1933 158.312 70.1836 192.374C72.2564 202.779 81.4495 275.746 66.1871 290.978C57.7469 299.402 62.9281 318.726 86.2465 318.726C98.7802 318.726 104.356 308.4 119.17 308.4C134.957 308.4 133.921 318.726 160.071 318.726C175.082 318.726 185.739 297.42 169.821 288.501C158.707 282.274 168.322 251.726 167.603 231.518C166.885 211.31 158.725 159.671 112.952 155.089Z" fill="#E6C6FF"/>
<path d="M61.253 252.784C73.2617 256.856 90.2405 235.488 99.0151 223.111L85.2682 207.485C53.4971 228.339 48.3222 248.4 61.253 252.784Z" fill="#E6C6FF"/>
<path fill-rule="evenodd" clip-rule="evenodd" d="M154.209 182.703C153.569 182.589 153.08 182.646 152.401 182.703C148.209 183.056 145.159 186.735 145.511 190.927C145.864 195.12 149.549 198.233 153.741 197.88C156.1 197.682 158.289 195.849 159.539 194.044C157.981 189.888 156.645 187.309 154.209 182.703Z" fill="#DDBDF6"/>
<path d="M100.764 274.368V244.999C100.764 238.132 105.304 231.962 112.112 231.062C129.348 228.783 151.207 231.564 151.669 254.256C152.08 274.468 133.965 283.966 117.777 288.429C108.883 290.882 100.764 283.594 100.764 274.368Z" fill="#DDBDF6"/>
<circle cx="128.193" cy="196.467" r="7.61813" fill="#DDBDF6"/>
<path d="M133.859 185.547C134.164 186.934 133.286 188.305 131.899 188.609C130.511 188.914 129.14 188.036 128.836 186.649C128.635 185.732 129.407 185.103 130.446 184.173C132.694 182.163 133.555 184.159 133.859 185.547Z" fill="black"/>
<path d="M142.887 182.516C142.861 183.936 143.991 185.108 145.411 185.134C146.831 185.16 148.003 184.03 148.029 182.61C148.046 181.672 147.165 181.207 145.964 180.5C143.366 178.97 142.913 181.096 142.887 182.516Z" fill="black"/>
<ellipse cx="141.887" cy="188.985" rx="3.60016" ry="2.57154" transform="rotate(-12.3733 141.887 188.985)" fill="#B58ED4"/>
<path d="M264.517 150.888C290.279 148.274 316.083 155.554 308.005 190.459C301.967 202.486 299.021 278.21 308.653 290.138C318.286 302.067 310.377 320.604 292.564 318.573C278.374 316.955 267.45 308.259 252.473 308.259C236.512 308.259 241.995 318.573 220.023 318.573C204.847 318.573 197.498 302.163 210.166 287.6C217.372 279.316 206.37 253.929 209.265 229.207C212.159 204.486 218.241 155.582 264.517 150.888Z" fill="#EBECF5"/>
<path d="M186.821 243.053C182.587 228.347 209.302 209.079 224.715 199.196L242.781 216.647C215.854 253.777 191.379 258.888 186.821 243.053Z" fill="#EBECF5"/>
<path fill-rule="evenodd" clip-rule="evenodd" d="M219.598 186.427C220.359 186.286 221.661 186.323 222.471 186.427C226.644 186.965 229.59 190.784 229.052 194.957C228.514 199.13 224.696 202.077 220.523 201.539C218.408 201.266 216.609 200.151 215.418 198.574C216.165 194.957 217.723 190.927 219.598 186.427Z" fill="#E2E4F1"/>
<ellipse cx="3.60016" cy="2.57154" rx="3.60016" ry="2.57154" transform="matrix(-1 0 0 1 237.044 190.569)" fill="#BCB9D9"/>
<path d="M319.094 258.121C305.876 265.79 280.73 244.587 267.418 232.054L279.939 210.32C322.439 227.395 333.328 249.863 319.094 258.121Z" fill="#EBECF5"/>
<path d="M301.001 143.667C291.938 141.65 282.956 147.361 280.939 156.423L272.025 196.468C270.007 205.53 275.718 214.512 284.781 216.53C293.843 218.547 302.825 212.836 304.842 203.774L313.757 163.729C315.774 154.667 310.063 145.685 301.001 143.667Z" fill="#EBECF5"/>
<rect width="80.6021" height="33.6208" rx="16.8104" transform="matrix(-0.173774 0.984785 0.984785 0.173774 258.135 135.858)" fill="#EBECF5"/>
<path d="M270.402 269.414L269.294 245.243C269.045 239.808 265.99 234.774 260.893 232.87C242.454 225.982 221.85 227.827 221.367 251.533C220.979 270.552 237.909 279.674 253.431 284.077C262.578 286.671 270.837 278.912 270.402 269.414Z" fill="#E2E4F1"/>
<circle cx="7.61813" cy="7.61813" r="7.61813" transform="matrix(-1 0 0 1 253.221 191.966)" fill="#E2E4F1"/>
<path d="M239.733 190.297C239.429 191.684 240.307 193.056 241.694 193.36C243.081 193.664 244.453 192.786 244.757 191.399C244.958 190.482 244.185 189.853 243.146 188.924C240.899 186.914 240.038 188.91 239.733 190.297Z" fill="black"/>
<path d="M230.706 187.267C230.732 188.687 229.602 189.859 228.182 189.885C226.762 189.911 225.59 188.781 225.564 187.361C225.547 186.422 226.428 185.957 227.629 185.25C230.227 183.72 230.68 185.847 230.706 187.267Z" fill="black"/>
<g clip-path="url(#clip1_4003_30459)">
<rect width="68.5756" height="42.2617" transform="matrix(-0.956305 0.292372 8.36028e-08 -1 229.794 155.262)" fill="#F1F1F5"/>
<path d="M192.452 144.705L164.215 175.311L229.794 155.262L201.557 141.921C198.855 140.644 195.154 141.776 192.452 144.705Z" fill="#D5D5DE"/>
<path d="M230.022 113.251L230.945 112.25L229.794 112.602L164.215 132.651L163.064 133.003L163.987 133.44L192.224 146.78C195.061 148.121 198.947 146.933 201.784 143.858L230.022 113.251Z" fill="#F1F1F5" stroke="#D5D5DE" stroke-width="0.797391"/>
<path d="M201.557 187.464L228.265 158.515C229.227 157.472 229.794 156.118 229.794 154.864L164.215 174.913C164.215 176.167 164.782 177.175 165.744 177.629L192.452 190.247C195.154 191.524 198.855 190.392 201.557 187.464Z" fill="#D5D5DE"/>
</g>
</g>
<defs>
<clipPath id="clip0_4003_30459">
<rect width="375" height="394" fill="white"/>
</clipPath>
<clipPath id="clip1_4003_30459">
<rect width="68.5756" height="69.373" rx="5.58174" transform="matrix(0.956305 -0.292372 0 1 164.215 133.05)" fill="white"/>
</clipPath>
</defs>
</svg>
