<svg width="18" height="18" viewBox="0 0 18 18" fill="none" xmlns="http://www.w3.org/2000/svg">
<path d="M7.2002 5.39995C7.2002 4.49995 7.7402 2.69995 9.9002 2.69995C12.0602 2.69995 12.6002 4.49995 12.6002 5.39995" stroke="#DD9A1F" stroke-width="0.9"/>
<path d="M5.09294 4.5L3.59961 16.2H17.9996L15.9729 4.5H5.09294Z" fill="#DD9A1F"/>
<path d="M3.46134 4.5L1.7998 16.2H17.0998L14.9952 4.5H3.46134Z" fill="#F9CB2B"/>
<path d="M3.00502 6.30005L1.7998 16.2H14.3998L12.6468 6.30005H3.00502Z" fill="#DE54A7"/>
<path d="M4.5 7.2C4.5 6.3 5.04 4.5 7.2 4.5C9.36 4.5 9.9 6.3 9.9 7.2" stroke="#DE54A7" stroke-width="0.9"/>
<path d="M1.64348 6.30005L0 16.2H13.5L11.747 6.30005H1.64348Z" fill="#F986D2"/>
</svg>
