<svg width="18" height="18" viewBox="0 0 18 18" fill="none" xmlns="http://www.w3.org/2000/svg">
<path fill-rule="evenodd" clip-rule="evenodd" d="M0 16.447V7.34594C0 6.85981 0.222731 6.40172 0.601854 6.10813L8.0822 0.315238C8.62495 -0.105079 9.37505 -0.10508 9.9178 0.315237L17.3981 6.10813C17.7773 6.40172 18 6.85981 18 7.34593V16.447C18 17.3047 17.3196 18 16.4803 18H12C11.4477 18 11 17.5424 11 16.978V12.8901C11 12.3257 10.5523 11.8682 10 11.8682H8C7.44772 11.8682 7 12.3257 7 12.8901V16.978C7 17.5424 6.55228 18 6 18H1.51965C0.680373 18 0 17.3047 0 16.447Z" fill="#D5D5DE"/>
</svg>
