<svg width="18" height="18" viewBox="0 0 18 18" fill="none" xmlns="http://www.w3.org/2000/svg">
<path fill-rule="evenodd" clip-rule="evenodd" d="M16.1998 7.19995H1.7998V10.2C1.7998 12.0225 1.7998 17.1 8.9998 17.1C16.1998 17.1 16.1998 12.0225 16.1998 10.2V7.19995Z" fill="#CB2C29"/>
<ellipse cx="8.9998" cy="7.2001" rx="7.2" ry="3.6" fill="#901A18"/>
<path d="M9.0002 5.8501C4.0502 5.8501 2.7002 7.6501 2.7002 9.0001C4.9502 10.8001 10.8002 12.1501 15.3002 9.0001C15.3002 7.6501 13.9868 5.8501 9.0002 5.8501Z" fill="#F77F00"/>
<path d="M3.23926 8.81975C3.41926 8.45975 4.10326 7.73975 5.39926 7.73975C6.69526 7.73975 7.37926 8.45975 7.55926 8.81975" stroke="#FFAD00" stroke-width="0.27" stroke-linecap="round"/>
<path d="M7.8407 10.8836C7.97441 10.504 8.56331 9.7043 9.8492 9.54272C11.1351 9.38115 11.9035 10.0103 12.127 10.345" stroke="#FFAD00" stroke-width="0.27" stroke-linecap="round"/>
<path d="M2.7002 8.54995C3.2402 7.73995 4.0502 7.19995 5.4002 7.19995C7.0202 7.19995 7.8752 8.18995 8.1002 8.54995" stroke="#FFAD00" stroke-width="0.27" stroke-linecap="round"/>
<path d="M7.27182 10.6832C7.70663 9.81221 8.44298 9.17544 9.78245 9.00714C11.3898 8.80517 12.3616 9.68085 12.6297 10.01" stroke="#FFAD00" stroke-width="0.27" stroke-linecap="round"/>
<path d="M3.78027 9.09027C4.05027 8.55027 4.59027 8.28027 5.40027 8.28027C6.21027 8.28027 6.75027 8.55027 7.02027 9.09027" stroke="#FFAD00" stroke-width="0.27" stroke-linecap="round"/>
<path d="M8.41153 11.0852C8.6121 10.5157 9.11423 10.1805 9.91791 10.0795C10.7216 9.97854 11.291 10.1791 11.6263 10.6812" stroke="#FFAD00" stroke-width="0.27" stroke-linecap="round"/>
<path d="M8.9998 10.8C3.9598 10.8 2.0998 8.39995 1.7998 7.19995V10.8C1.7998 11.7 1.7998 17.1 8.9998 17.1C15.2998 17.1 16.1998 12.9 16.1998 10.8V7.19995C15.8998 8.39995 14.0398 10.8 8.9998 10.8Z" fill="#CB2C29"/>
<path d="M4.5 3.15L15.75 2.25" stroke="#C9A862" stroke-width="0.45"/>
<path d="M4.5 2.2499L15.75 0.899902" stroke="#C9A862" stroke-width="0.45"/>
<path d="M5.40039 2.69995V7.19995" stroke="#FFAD00" stroke-width="0.45" stroke-linecap="round"/>
<path d="M6.2998 2.69995V7.19995" stroke="#FFAD00" stroke-width="0.45" stroke-linecap="round"/>
<path d="M7.2002 2.69995V7.19995" stroke="#FFAD00" stroke-width="0.45" stroke-linecap="round"/>
<path d="M6.97037 6.68853C7.01684 6.66437 7.06947 6.6746 7.08395 6.71061L7.21502 7.03661C7.22462 7.0605 7.2519 7.07412 7.28485 7.07148L7.73464 7.03556C7.78431 7.03159 7.81731 7.06412 7.80584 7.10575L7.70196 7.48273C7.69435 7.51035 7.7063 7.5354 7.73256 7.54687L8.09089 7.70338C8.13047 7.72067 8.13499 7.76678 8.10064 7.80289L7.78966 8.12983C7.76687 8.15379 7.76029 8.18356 7.77281 8.20605L7.94368 8.51307C7.96255 8.54698 7.93738 8.59432 7.88936 8.61523L7.45459 8.80453C7.42274 8.8184 7.3994 8.84491 7.39483 8.8724L7.33244 9.24766C7.32555 9.28911 7.27744 9.32499 7.22861 9.3251L6.78656 9.32603C6.75417 9.3261 6.72032 9.34225 6.69988 9.36738L6.42096 9.71033C6.39015 9.74821 6.33199 9.76302 6.29544 9.74229L5.96455 9.55461C5.9403 9.54086 5.90501 9.54232 5.87419 9.55834L5.45347 9.77709C5.407 9.80125 5.35437 9.79102 5.33989 9.75501L5.20882 9.42901C5.19922 9.40513 5.17194 9.3915 5.13899 9.39414L4.6892 9.43007C4.63952 9.43403 4.60653 9.4015 4.618 9.35987L4.72187 8.98289C4.72948 8.95527 4.71754 8.93022 4.69128 8.91875L4.33295 8.76224C4.29337 8.74495 4.28885 8.69884 4.3232 8.66273L4.63418 8.33579C4.65697 8.31183 4.66355 8.28207 4.65103 8.25957L4.48016 7.95255C4.46129 7.91864 4.48646 7.8713 4.53448 7.85039L4.96924 7.66109C5.0011 7.64722 5.02444 7.62071 5.02901 7.59322L5.0914 7.21796C5.09829 7.17651 5.1464 7.14063 5.19523 7.14052L5.63728 7.13959C5.66967 7.13952 5.70352 7.12337 5.72396 7.09824L6.00288 6.75529C6.03368 6.71742 6.09185 6.7026 6.1284 6.72333L6.45929 6.91101C6.48353 6.92476 6.51883 6.9233 6.54965 6.90728L6.97037 6.68853Z" fill="white"/>
<path fill-rule="evenodd" clip-rule="evenodd" d="M6.46679 7.49929C6.20767 7.46661 5.90889 7.5287 5.71389 7.59721C5.65188 7.61899 5.592 7.59775 5.58016 7.54976C5.56831 7.50177 5.60899 7.44521 5.67101 7.42342C5.89526 7.34464 6.2406 7.27114 6.55126 7.31032C6.86976 7.35049 7.14852 7.50975 7.21585 7.88659C7.25742 8.11925 7.19843 8.33017 7.07375 8.5109C6.95008 8.69015 6.76709 8.83213 6.57266 8.93415C6.37858 9.03599 6.16806 9.10079 5.98138 9.12408C5.79818 9.14693 5.61976 9.13172 5.51018 9.05333C5.32911 8.92379 5.22865 8.7395 5.25763 8.52703C5.28691 8.31241 5.44573 8.08734 5.73943 7.88339L5.74134 7.88205L5.74331 7.88078C5.83686 7.81983 6.00097 7.76324 6.16109 7.74659C6.32469 7.72958 6.51137 7.75181 6.61991 7.87944C6.85591 8.15695 6.72917 8.42622 6.6136 8.54549C6.58032 8.57983 6.52781 8.61873 6.46977 8.65318C6.41012 8.6886 6.33608 8.72442 6.25632 8.74848C6.17638 8.77259 6.08622 8.78617 5.99966 8.77157C5.91147 8.7567 5.83607 8.71406 5.78153 8.63945C5.72269 8.55896 5.71187 8.47123 5.74837 8.3851C5.78392 8.30123 5.85781 8.23435 5.93476 8.18913C6.01114 8.14425 6.10019 8.11476 6.18115 8.10948C6.26183 8.10422 6.3523 8.12334 6.39044 8.19659C6.41303 8.23999 6.38355 8.29942 6.32459 8.32932C6.26563 8.35923 6.19952 8.3483 6.17693 8.3049L6.1769 8.30486C6.1766 8.30427 6.17609 8.30328 6.17265 8.30205C6.16832 8.3005 6.15947 8.2988 6.14465 8.29977C6.11395 8.30177 6.07211 8.31436 6.03409 8.33671C5.99664 8.35871 5.97262 8.38421 5.96246 8.40819C5.95326 8.42991 5.94893 8.46552 5.9845 8.51419C6.01768 8.55957 6.05672 8.57778 6.09347 8.58398C6.13184 8.59045 6.17711 8.58532 6.22689 8.5703C6.27684 8.55523 6.32681 8.53151 6.36921 8.50633C6.41324 8.4802 6.44085 8.45746 6.44954 8.44849C6.49325 8.40339 6.60664 8.22834 6.42308 8.0125C6.3638 7.94279 6.25697 7.92332 6.13521 7.93598C6.0116 7.94883 5.89982 7.99228 5.85684 8.01952C5.61159 8.1904 5.50451 8.35906 5.48482 8.50338C5.46478 8.65028 5.53275 8.79042 5.681 8.89647C5.73608 8.93588 5.84741 8.95457 6.00149 8.93534C6.15207 8.91656 6.3263 8.86331 6.48688 8.77905C6.6471 8.69497 6.78866 8.5828 6.88181 8.44778C6.97395 8.31423 7.02407 8.15074 6.98941 7.95679C6.93479 7.65105 6.71809 7.53098 6.46679 7.49929Z" fill="#F199D8"/>
<path d="M10.8004 3.1499L13.9504 3.5999L13.0504 8.0999L9.90039 7.1999L10.8004 3.1499Z" fill="#262D26"/>
<path d="M11.6998 4.5L14.8498 4.95L13.9498 9.45L10.7998 8.55L11.6998 4.5Z" fill="#343E35"/>
<path d="M12.0247 9.82981C11.2913 10.5969 10.1011 10.6491 9.36623 9.94652C8.63138 9.24392 8.63019 8.05254 9.36358 7.28549C10.097 6.51843 11.8184 5.91063 12.5532 6.61323C13.2881 7.31582 12.7581 9.06276 12.0247 9.82981Z" fill="white"/>
<circle cx="10.4344" cy="8.47846" r="1.1025" transform="rotate(43.7146 10.4344 8.47846)" fill="#FFAD00"/>
</svg>
