<svg width="14" height="11" viewBox="0 0 14 11" fill="none" xmlns="http://www.w3.org/2000/svg">
<path fill-rule="evenodd" clip-rule="evenodd" d="M4.28571 0H9.71428C10.1482 0 10.5 0.351776 10.5 0.785714C10.5 1.21965 10.8518 1.57143 11.2857 1.57143H13C13.5523 1.57143 14 2.01914 14 2.57143V10C14 10.5523 13.5523 11 13 11H1C0.447716 11 0 10.5523 0 10V2.57143C0 2.01915 0.447715 1.57143 1 1.57143H2.71429C3.14822 1.57143 3.5 1.21965 3.5 0.785714C3.5 0.351776 3.85178 0 4.28571 0ZM7 8C8.10457 8 9 7.10457 9 6C9 4.89543 8.10457 4 7 4C5.89543 4 5 4.89543 5 6C5 7.10457 5.89543 8 7 8Z" fill="#7B7C87"/>
</svg>
