<svg width="18" height="18" viewBox="0 0 18 18" fill="none" xmlns="http://www.w3.org/2000/svg">
<path d="M16.1998 13.9499C16.1998 16.1867 12.9763 17.9999 8.9998 17.9999C5.02335 17.9999 1.7998 16.1867 1.7998 13.9499C1.7998 11.7131 5.02335 9.8999 8.9998 9.8999C12.9763 9.8999 16.1998 11.7131 16.1998 13.9499Z" fill="#AE8966"/>
<path d="M15.75 13.9501C15.75 15.6898 12.4794 17.5501 9 17.5501C5.52061 17.5501 2.25 15.6898 2.25 13.9501C2.25 12.2104 5.52061 10.3501 9 10.3501C12.4794 10.3501 15.75 12.2104 15.75 13.9501Z" fill="#7C5C46"/>
<path fill-rule="evenodd" clip-rule="evenodd" d="M16.1998 4.5H1.7998V7.5C1.7998 9.32254 1.7998 15.3 8.9998 15.3C16.1998 15.3 16.1998 9.32254 16.1998 7.5V4.5Z" fill="#D0D5DA"/>
<ellipse cx="9.0002" cy="4.50005" rx="6.3" ry="2.7" fill="#D0D5DA"/>
<path d="M15.3002 6.3001C13.7252 7.2001 11.6252 7.6501 9.0002 8.1001C5.5208 8.1001 3.7502 6.7501 2.7002 6.3001C2.7002 4.80893 5.5208 3.6001 9.0002 3.6001C12.4796 3.6001 15.3002 4.80893 15.3002 6.3001Z" fill="#89C361"/>
<path fill-rule="evenodd" clip-rule="evenodd" d="M8.9998 8.0999C12.9763 8.0999 16.1998 6.48813 16.1998 4.4999C16.1998 2.51168 12.9763 0.899902 8.9998 0.899902C5.02335 0.899902 1.7998 2.51168 1.7998 4.4999C1.7998 6.48813 5.02335 8.0999 8.9998 8.0999ZM8.99955 7.1999C12.4079 7.1999 15.171 5.99107 15.171 4.4999C15.171 3.00873 12.4079 1.7999 8.99955 1.7999C5.59117 1.7999 2.82812 3.00873 2.82812 4.4999C2.82812 5.99107 5.59117 7.1999 8.99955 7.1999Z" fill="#E5E8EB"/>
</svg>
