<svg width="375" height="394" viewBox="0 0 375 394" fill="none" xmlns="http://www.w3.org/2000/svg">
<g clip-path="url(#clip0_3996_44297)">
<path d="M426.594 86.2214C-3.82891 119.576 14.0535 374.919 98.7773 353.221C180.777 332.221 191.77 55.1306 -3.82891 119.576C-81.4678 145.156 -105.468 187.656 -140.968 221.656" stroke="#4A3CEF" stroke-width="5"/>
<g filter="url(#filter0_b_3996_44297)">
<rect width="108.099" height="108.099" rx="54.0493" transform="matrix(0.99863 -0.052336 0.258819 0.965926 63 238.862)" fill="#C7E74C" fill-opacity="0.85"/>
<rect x="0.665675" y="0.483641" width="107.04" height="107.04" rx="53.5199" transform="matrix(0.99863 -0.052336 0.258819 0.965926 62.8757 238.913)" stroke="white" stroke-opacity="0.5" stroke-width="1.05877"/>
</g>
<g filter="url(#filter1_b_3996_44297)">
<rect x="107" y="204.523" width="79.1279" height="42.064" rx="21.032" transform="rotate(-4.72892 107 204.523)" fill="#E5F3AE" fill-opacity="0.8"/>
<rect x="107.54" y="204.98" width="78.1279" height="41.064" rx="20.532" transform="rotate(-4.72892 107.54 204.98)" stroke="white" stroke-opacity="0.5"/>
<path d="M127.945 222.557L135.473 221.934L135.653 224.111L128.125 224.734L127.945 222.557ZM140.037 223.63L137.84 223.574L137.718 216.753L144.62 216.182L144.778 218.089L139.968 218.487L140.006 220.998C140.497 220.771 141.027 220.608 141.534 220.566C144.15 220.35 146.15 221.935 146.354 224.399C146.558 226.863 144.845 228.755 142.229 228.971C140.153 229.143 138.251 227.924 137.633 226.004L139.701 225.323C140.024 226.35 140.997 227.017 142.06 226.929C143.41 226.817 144.281 225.845 144.177 224.579C144.072 223.313 143.053 222.497 141.703 222.608C141.162 222.653 140.467 223.084 140.037 223.63ZM152.874 226.119C154.46 225.988 155.346 224.165 155.127 221.515C154.907 218.865 153.734 217.212 152.148 217.343C150.544 217.476 149.642 219.301 149.861 221.95C150.08 224.6 151.27 226.252 152.874 226.119ZM147.684 222.131C147.378 218.434 149.154 215.671 151.99 215.436C154.808 215.203 156.998 217.639 157.304 221.335C157.609 225.031 155.85 227.793 153.031 228.027C150.196 228.261 147.989 225.827 147.684 222.131ZM164.11 220.789C165.359 220.685 166.16 219.685 166.052 218.385C165.946 217.102 164.992 216.247 163.726 216.351L161.127 216.566L161.494 221.005L164.11 220.789ZM159.839 227.497L158.795 214.873L163.655 214.471C166.136 214.266 168.031 215.808 168.23 218.205C168.429 220.618 166.814 222.451 164.333 222.657L161.649 222.879L162.016 227.317L159.839 227.497Z" fill="#090909"/>
</g>
<g filter="url(#filter2_b_3996_44297)">
<rect width="58.2659" height="58.2659" rx="29.133" transform="matrix(0.994522 0.104528 -0.275637 0.961262 176.061 37)" fill="#D7F270" fill-opacity="0.85"/>
<rect x="0.205128" y="0.304115" width="57.6952" height="57.6952" rx="28.8476" transform="matrix(0.994522 0.104528 -0.275637 0.961262 176.145 36.9903)" stroke="white" stroke-opacity="0.5" stroke-width="0.570685"/>
</g>
<g filter="url(#filter3_b_3996_44297)">
<rect width="69.0719" height="69.0719" rx="34.536" transform="matrix(1 0 -0.190809 0.981627 249.886 146.437)" fill="#C7E74C" fill-opacity="0.8"/>
<rect x="0.273719" y="0.332047" width="68.3954" height="68.3954" rx="34.1977" transform="matrix(1 0 -0.190809 0.981627 249.949 146.443)" stroke="white" stroke-opacity="0.5" stroke-width="0.676524"/>
</g>
<g filter="url(#filter4_b_3996_44297)">
<rect width="108.099" height="108.099" rx="54.0493" transform="matrix(0.99863 -0.052336 0.258819 0.965926 68.0713 232.424)" fill="#DFF37C" fill-opacity="0.5"/>
<rect x="0.665675" y="0.483641" width="107.04" height="107.04" rx="53.5199" transform="matrix(0.99863 -0.052336 0.258819 0.965926 67.947 232.475)" stroke="white" stroke-opacity="0.5" stroke-width="1.05877"/>
<path d="M136.937 281.493C139.756 281.345 141.193 279.215 140.433 276.379C139.683 273.579 137.16 271.656 134.303 271.806L128.438 272.114L131.034 281.802L136.937 281.493ZM129.813 295.837L122.429 268.282L133.398 267.707C138.997 267.414 143.945 270.89 145.346 276.121C146.758 281.389 143.784 285.28 138.185 285.574L132.13 285.891L134.726 295.58L129.813 295.837Z" fill="#090909"/>
</g>
<g filter="url(#filter5_b_3996_44297)">
<rect width="58.2659" height="58.2659" rx="29.133" transform="matrix(0.994522 0.104528 -0.275637 0.961262 178.798 40)" fill="#E5F3AE" fill-opacity="0.5"/>
<rect x="0.205128" y="0.304115" width="57.6952" height="57.6952" rx="28.8476" transform="matrix(0.994522 0.104528 -0.275637 0.961262 178.883 39.9903)" stroke="white" stroke-opacity="0.5" stroke-width="0.570685"/>
<path d="M200.241 71.1803C201.754 71.3393 203.128 70.3642 203.565 68.8427C203.995 67.3409 203.244 66.1423 201.71 65.9812L198.562 65.6502L197.072 70.8473L200.241 71.1803ZM192.315 77.9605L196.554 63.1796L202.442 63.7985C205.447 64.1143 207.007 66.3139 206.202 69.1199C205.392 71.9456 202.699 73.6982 199.694 73.3823L196.443 73.0407L194.953 78.2377L192.315 77.9605Z" fill="#090909"/>
</g>
<g filter="url(#filter6_b_3996_44297)">
<rect width="69.0719" height="69.0719" rx="34.536" transform="matrix(1 0 -0.190809 0.981627 247.18 143)" fill="#DFF37C" fill-opacity="0.5"/>
<rect x="0.273719" y="0.332047" width="68.3954" height="68.3954" rx="34.1977" transform="matrix(1 0 -0.190809 0.981627 247.243 143.006)" stroke="white" stroke-opacity="0.5" stroke-width="0.676524"/>
<path d="M275.709 177.1C277.512 177.1 279.035 175.785 279.393 173.943C279.746 172.125 278.735 170.809 276.907 170.809H273.154L271.931 177.1H275.709ZM267.049 186.047L270.527 168.154H277.545C281.128 168.154 283.197 170.546 282.537 173.943C281.872 177.363 278.872 179.756 275.29 179.756H271.415L270.192 186.047H267.049Z" fill="#090909"/>
</g>
<g filter="url(#filter7_b_3996_44297)">
<rect x="47.1621" y="91" width="79.1279" height="42.064" rx="21.032" transform="rotate(4.3116 47.1621 91)" fill="#DFF37C" fill-opacity="0.8"/>
<rect x="47.6231" y="91.5362" width="78.1279" height="41.064" rx="20.532" transform="rotate(4.3116 47.6231 91.5362)" stroke="white" stroke-opacity="0.5"/>
<path d="M65.0136 112.101L72.5453 112.669L72.381 114.847L64.8494 114.279L65.0136 112.101ZM76.7862 115.06L74.6256 114.66L75.5765 107.904L82.4833 108.425L82.3394 110.333L77.5266 109.97L77.1693 112.457C77.6899 112.309 78.2392 112.232 78.7459 112.27C81.3633 112.467 83.0898 114.347 82.9039 116.812C82.718 119.278 80.7293 120.877 78.1118 120.68C76.0347 120.523 74.3478 119.02 74.0395 117.027L76.1886 116.68C76.3461 117.745 77.202 118.556 78.2659 118.637C79.6168 118.738 80.63 117.915 80.7255 116.648C80.821 115.382 79.9428 114.415 78.5918 114.313C78.0514 114.273 77.2973 114.59 76.7862 115.06ZM89.0724 119.536C90.6597 119.656 91.821 117.994 92.0209 115.343C92.2208 112.692 91.3218 110.875 89.7344 110.755C88.1301 110.634 86.952 112.294 86.7521 114.946C86.5522 117.597 87.4681 119.415 89.0724 119.536ZM84.5737 114.781C84.8525 111.083 87.0413 108.633 89.8783 108.847C92.6984 109.059 94.4781 111.809 94.1993 115.507C93.9205 119.205 91.7486 121.657 88.9285 121.444C86.0915 121.231 84.2949 118.48 84.5737 114.781ZM101.007 116.037C102.257 116.132 103.205 115.269 103.303 113.969C103.4 112.685 102.591 111.69 101.325 111.595L98.7243 111.399L98.3895 115.84L101.007 116.037ZM95.7349 121.992L96.6872 109.36L101.551 109.727C104.033 109.914 105.662 111.735 105.481 114.133C105.299 116.548 103.416 118.104 100.933 117.917L98.2481 117.715L97.9133 122.156L95.7349 121.992Z" fill="#090909"/>
</g>
<g filter="url(#filter8_b_3996_44297)">
<rect x="248.801" y="230" width="79.1279" height="42.064" rx="21.032" transform="rotate(14.878 248.801 230)" fill="#E5F3AE" fill-opacity="0.8"/>
<rect x="249.156" y="230.612" width="78.1279" height="41.064" rx="20.532" transform="rotate(14.878 249.156 230.612)" stroke="white" stroke-opacity="0.5"/>
<path d="M262.48 254.017L269.78 255.956L269.219 258.067L261.919 256.128L262.48 254.017ZM273.511 259.085L271.46 258.295L273.634 251.828L280.328 253.607L279.836 255.456L275.172 254.217L274.365 256.596C274.903 256.546 275.458 256.571 275.949 256.701C278.486 257.375 279.838 259.539 279.203 261.929C278.568 264.318 276.32 265.526 273.783 264.852C271.77 264.317 270.387 262.53 270.45 260.514L272.626 260.567C272.586 261.643 273.278 262.598 274.309 262.872C275.619 263.219 276.766 262.595 277.092 261.368C277.418 260.14 276.732 259.029 275.422 258.682C274.899 258.542 274.099 258.716 273.511 259.085ZM284.768 265.738C286.306 266.146 287.752 264.726 288.435 262.156C289.118 259.586 288.567 257.635 287.029 257.227C285.474 256.814 284.011 258.23 283.328 260.799C282.646 263.369 283.213 265.325 284.768 265.738ZM281.217 260.239C282.169 256.654 284.77 254.647 287.52 255.377C290.253 256.103 291.499 259.133 290.546 262.717C289.594 266.301 287.01 268.313 284.276 267.587C281.527 266.857 280.265 263.823 281.217 260.239ZM297.141 264.487C298.353 264.808 299.443 264.134 299.778 262.874C300.108 261.63 299.496 260.504 298.269 260.178L295.748 259.508L294.604 263.813L297.141 264.487ZM290.867 269.373L294.119 257.13L298.833 258.383C301.239 259.022 302.506 261.111 301.889 263.435C301.267 265.775 299.13 266.96 296.724 266.321L294.122 265.629L292.978 269.934L290.867 269.373Z" fill="#090909"/>
</g>
</g>
<defs>
<filter id="filter0_b_3996_44297" x="58.7649" y="228.969" width="144.399" height="118.543" filterUnits="userSpaceOnUse" color-interpolation-filters="sRGB">
<feFlood flood-opacity="0" result="BackgroundImageFix"/>
<feGaussianBlur in="BackgroundImageFix" stdDeviation="2.11754"/>
<feComposite in2="SourceAlpha" operator="in" result="effect1_backgroundBlur_3996_44297"/>
<feBlend mode="normal" in="SourceGraphic" in2="effect1_backgroundBlur_3996_44297" result="shape"/>
</filter>
<filter id="filter1_b_3996_44297" x="97" y="188" width="102.326" height="68.4442" filterUnits="userSpaceOnUse" color-interpolation-filters="sRGB">
<feFlood flood-opacity="0" result="BackgroundImageFix"/>
<feGaussianBlur in="BackgroundImageFix" stdDeviation="5"/>
<feComposite in2="SourceAlpha" operator="in" result="effect1_backgroundBlur_3996_44297"/>
<feBlend mode="normal" in="SourceGraphic" in2="effect1_backgroundBlur_3996_44297" result="shape"/>
</filter>
<filter id="filter2_b_3996_44297" x="157.718" y="34.7173" width="78.5726" height="66.6647" filterUnits="userSpaceOnUse" color-interpolation-filters="sRGB">
<feFlood flood-opacity="0" result="BackgroundImageFix"/>
<feGaussianBlur in="BackgroundImageFix" stdDeviation="1.14137"/>
<feComposite in2="SourceAlpha" operator="in" result="effect1_backgroundBlur_3996_44297"/>
<feBlend mode="normal" in="SourceGraphic" in2="effect1_backgroundBlur_3996_44297" result="shape"/>
</filter>
<filter id="filter3_b_3996_44297" x="234" y="143.731" width="87.6637" height="73.215" filterUnits="userSpaceOnUse" color-interpolation-filters="sRGB">
<feFlood flood-opacity="0" result="BackgroundImageFix"/>
<feGaussianBlur in="BackgroundImageFix" stdDeviation="1.35305"/>
<feComposite in2="SourceAlpha" operator="in" result="effect1_backgroundBlur_3996_44297"/>
<feBlend mode="normal" in="SourceGraphic" in2="effect1_backgroundBlur_3996_44297" result="shape"/>
</filter>
<filter id="filter4_b_3996_44297" x="57.4836" y="216.178" width="157.104" height="131.248" filterUnits="userSpaceOnUse" color-interpolation-filters="sRGB">
<feFlood flood-opacity="0" result="BackgroundImageFix"/>
<feGaussianBlur in="BackgroundImageFix" stdDeviation="5.29385"/>
<feComposite in2="SourceAlpha" operator="in" result="effect1_backgroundBlur_3996_44297"/>
<feBlend mode="normal" in="SourceGraphic" in2="effect1_backgroundBlur_3996_44297" result="shape"/>
</filter>
<filter id="filter5_b_3996_44297" x="157.031" y="34.2932" width="85.4208" height="73.5129" filterUnits="userSpaceOnUse" color-interpolation-filters="sRGB">
<feFlood flood-opacity="0" result="BackgroundImageFix"/>
<feGaussianBlur in="BackgroundImageFix" stdDeviation="2.85342"/>
<feComposite in2="SourceAlpha" operator="in" result="effect1_backgroundBlur_3996_44297"/>
<feBlend mode="normal" in="SourceGraphic" in2="effect1_backgroundBlur_3996_44297" result="shape"/>
</filter>
<filter id="filter6_b_3996_44297" x="227.235" y="136.235" width="95.7819" height="81.3333" filterUnits="userSpaceOnUse" color-interpolation-filters="sRGB">
<feFlood flood-opacity="0" result="BackgroundImageFix"/>
<feGaussianBlur in="BackgroundImageFix" stdDeviation="3.38262"/>
<feComposite in2="SourceAlpha" operator="in" result="effect1_backgroundBlur_3996_44297"/>
<feBlend mode="normal" in="SourceGraphic" in2="effect1_backgroundBlur_3996_44297" result="shape"/>
</filter>
<filter id="filter7_b_3996_44297" x="33.9998" y="81" width="102.066" height="67.8938" filterUnits="userSpaceOnUse" color-interpolation-filters="sRGB">
<feFlood flood-opacity="0" result="BackgroundImageFix"/>
<feGaussianBlur in="BackgroundImageFix" stdDeviation="5"/>
<feComposite in2="SourceAlpha" operator="in" result="effect1_backgroundBlur_3996_44297"/>
<feBlend mode="normal" in="SourceGraphic" in2="effect1_backgroundBlur_3996_44297" result="shape"/>
</filter>
<filter id="filter8_b_3996_44297" x="228" y="220" width="107.276" height="80.9708" filterUnits="userSpaceOnUse" color-interpolation-filters="sRGB">
<feFlood flood-opacity="0" result="BackgroundImageFix"/>
<feGaussianBlur in="BackgroundImageFix" stdDeviation="5"/>
<feComposite in2="SourceAlpha" operator="in" result="effect1_backgroundBlur_3996_44297"/>
<feBlend mode="normal" in="SourceGraphic" in2="effect1_backgroundBlur_3996_44297" result="shape"/>
</filter>
<clipPath id="clip0_3996_44297">
<rect width="375" height="394" fill="white"/>
</clipPath>
</defs>
</svg>
