<svg width="375" height="394" viewBox="0 0 375 394" fill="none" xmlns="http://www.w3.org/2000/svg">
<g filter="url(#filter0_b_3996_44297)">
<rect width="86.4789" height="86.4789" rx="43.2394" transform="matrix(0.99863 -0.052336 0.258819 0.965926 82.4957 224.217)" fill="#D5D5DE"/>
<rect x="0.53254" y="0.386913" width="85.6319" height="85.6319" rx="42.8159" transform="matrix(0.99863 -0.052336 0.258819 0.965926 82.3963 224.258)" stroke="white" stroke-width="0.847016"/>
</g>
<g filter="url(#filter1_b_3996_44297)">
<rect x="109.696" y="196.713" width="62.9024" height="33.4512" rx="16.7256" transform="rotate(-4.72892 109.696 196.713)" fill="#F1F1F5"/>
<rect x="110.127" y="197.079" width="62.1024" height="32.6512" rx="16.3256" transform="rotate(-4.72892 110.127 197.079)" stroke="white" stroke-width="0.8"/>
<path d="M126.22 210.758L132.242 210.26L132.386 212.002L126.364 212.5L126.22 210.758ZM135.893 211.617L134.136 211.572L134.038 206.115L139.56 205.658L139.686 207.184L135.838 207.502L135.868 209.512C136.261 209.329 136.685 209.199 137.09 209.166C139.183 208.993 140.783 210.26 140.946 212.232C141.11 214.203 139.739 215.717 137.647 215.89C135.986 216.027 134.464 215.052 133.97 213.516L135.624 212.971C135.883 213.793 136.661 214.326 137.511 214.256C138.592 214.167 139.289 213.388 139.205 212.376C139.121 211.363 138.306 210.71 137.226 210.799C136.793 210.835 136.237 211.18 135.893 211.617ZM146.162 213.608C147.432 213.503 148.14 212.044 147.965 209.925C147.789 207.805 146.851 206.482 145.582 206.587C144.299 206.693 143.577 208.153 143.752 210.273C143.928 212.393 144.88 213.714 146.162 213.608ZM142.01 210.417C141.766 207.46 143.187 205.249 145.455 205.062C147.71 204.875 149.462 206.824 149.706 209.781C149.951 212.737 148.543 214.947 146.289 215.134C144.02 215.322 142.255 213.374 142.01 210.417ZM155.152 209.344C156.151 209.261 156.791 208.46 156.705 207.421C156.621 206.395 155.857 205.71 154.844 205.794L152.765 205.966L153.059 209.517L155.152 209.344ZM151.735 214.711L150.899 204.611L154.788 204.29C156.773 204.125 158.289 205.359 158.447 207.277C158.607 209.207 157.314 210.674 155.33 210.838L153.183 211.016L153.477 214.567L151.735 214.711Z" fill="#AEAFBC"/>
</g>
<g filter="url(#filter2_b_3996_44297)">
<rect width="46.6127" height="46.6127" rx="23.3064" transform="matrix(0.994522 0.104528 -0.275637 0.961262 153.744 95.5277)" fill="#D5D5DE"/>
<rect x="0.164103" y="0.243292" width="46.1562" height="46.1562" rx="23.0781" transform="matrix(0.994522 0.104528 -0.275637 0.961262 153.812 95.52)" stroke="white" stroke-width="0.456548"/>
</g>
<g filter="url(#filter3_b_3996_44297)">
<rect width="55.2575" height="55.2575" rx="27.6288" transform="matrix(1 0 -0.190809 0.981627 215.204 150.277)" fill="#D5D5DE"/>
<rect x="0.218975" y="0.265638" width="54.7163" height="54.7163" rx="27.3582" transform="matrix(1 0 -0.190809 0.981627 215.255 150.282)" stroke="white" stroke-width="0.541219"/>
</g>
<g filter="url(#filter4_b_3996_44297)">
<rect width="86.4789" height="86.4789" rx="43.2394" transform="matrix(0.99863 -0.052336 0.258819 0.965926 86.5527 219.067)" fill="#F1F1F5"/>
<rect x="0.53254" y="0.386913" width="85.6319" height="85.6319" rx="42.8159" transform="matrix(0.99863 -0.052336 0.258819 0.965926 86.4533 219.108)" stroke="white" stroke-width="0.847016"/>
<path d="M141.827 258.998C144.082 258.88 145.232 257.176 144.624 254.907C144.023 252.667 142.005 251.129 139.72 251.249L135.027 251.495L137.104 259.246L141.827 258.998ZM136.127 270.474L130.22 248.429L138.995 247.969C143.474 247.735 147.433 250.516 148.554 254.701C149.683 258.915 147.304 262.028 142.825 262.263L137.981 262.517L140.058 270.268L136.127 270.474Z" fill="#AEAFBC"/>
</g>
<g filter="url(#filter5_b_3996_44297)">
<rect width="46.6127" height="46.6127" rx="23.3064" transform="matrix(0.994522 0.104528 -0.275637 0.961262 155.934 97.9277)" fill="#F1F1F5"/>
<rect x="0.164103" y="0.243292" width="46.1562" height="46.1562" rx="23.0781" transform="matrix(0.994522 0.104528 -0.275637 0.961262 156.002 97.92)" stroke="white" stroke-width="0.456548"/>
<path d="M173.226 122.391C174.436 122.519 175.536 121.739 175.885 120.521C176.23 119.32 175.628 118.361 174.402 118.232L171.883 117.967L170.691 122.125L173.226 122.391ZM166.886 127.816L170.276 115.991L174.987 116.486C177.391 116.739 178.639 118.498 177.995 120.743C177.347 123.004 175.193 124.406 172.788 124.153L170.188 123.88L168.996 128.037L166.886 127.816Z" fill="#AEAFBC"/>
</g>
<g filter="url(#filter6_b_3996_44297)">
<rect width="55.2575" height="55.2575" rx="27.6288" transform="matrix(1 0 -0.190809 0.981627 213.039 147.528)" fill="#F1F1F5"/>
<rect x="0.218975" y="0.265638" width="54.7163" height="54.7163" rx="27.3582" transform="matrix(1 0 -0.190809 0.981627 213.09 147.533)" stroke="white" stroke-width="0.541219"/>
<path d="M235.805 175.102C237.248 175.102 238.466 174.05 238.753 172.576C239.036 171.122 238.226 170.069 236.764 170.069H233.762L232.784 175.102H235.805ZM228.877 182.26L231.66 167.945H237.275C240.14 167.945 241.796 169.859 241.268 172.576C240.736 175.313 238.336 177.227 235.47 177.227H232.371L231.392 182.26H228.877Z" fill="#AEAFBC"/>
</g>
<g filter="url(#filter7_b_3996_44297)">
<rect x="203.885" y="237.928" width="62.9024" height="33.4512" rx="16.7256" transform="rotate(14.878 203.885 237.928)" fill="#F1F1F5"/>
<rect x="204.169" y="238.417" width="62.1024" height="32.6512" rx="16.3256" transform="rotate(14.878 204.169 238.417)" stroke="white" stroke-width="0.8"/>
<path d="M214.738 256.703L220.577 258.255L220.129 259.944L214.289 258.392L214.738 256.703ZM223.562 260.758L221.921 260.126L223.66 254.952L229.016 256.375L228.622 257.855L224.891 256.863L224.245 258.766C224.676 258.727 225.119 258.746 225.512 258.851C227.542 259.39 228.624 261.121 228.116 263.033C227.608 264.945 225.809 265.911 223.78 265.371C222.169 264.944 221.063 263.514 221.113 261.901L222.854 261.943C222.822 262.804 223.376 263.568 224.201 263.787C225.248 264.065 226.166 263.566 226.427 262.584C226.688 261.602 226.139 260.713 225.091 260.435C224.672 260.324 224.033 260.462 223.562 260.758ZM232.567 266.08C233.798 266.407 234.955 265.27 235.501 263.215C236.048 261.159 235.607 259.598 234.376 259.271C233.132 258.941 231.962 260.074 231.416 262.129C230.87 264.185 231.324 265.749 232.567 266.08ZM229.727 261.681C230.489 258.813 232.57 257.207 234.769 257.792C236.956 258.372 237.952 260.796 237.19 263.663C236.429 266.531 234.361 268.14 232.174 267.559C229.975 266.975 228.965 264.548 229.727 261.681ZM242.466 265.079C243.435 265.337 244.308 264.797 244.575 263.789C244.84 262.794 244.35 261.893 243.368 261.632L241.352 261.096L240.437 264.54L242.466 265.079ZM237.447 268.988L240.049 259.194L243.82 260.196C245.745 260.707 246.759 262.378 246.265 264.238C245.767 266.11 244.058 267.058 242.133 266.546L240.051 265.993L239.136 269.437L237.447 268.988Z" fill="#AEAFBC"/>
</g>
<defs>
<filter id="filter0_b_3996_44297" x="79.1077" y="216.303" width="115.519" height="94.8344" filterUnits="userSpaceOnUse" color-interpolation-filters="sRGB">
<feFlood flood-opacity="0" result="BackgroundImageFix"/>
<feGaussianBlur in="BackgroundImageFix" stdDeviation="1.69403"/>
<feComposite in2="SourceAlpha" operator="in" result="effect1_backgroundBlur_3996_44297"/>
<feBlend mode="normal" in="SourceGraphic" in2="effect1_backgroundBlur_3996_44297" result="shape"/>
</filter>
<filter id="filter1_b_3996_44297" x="101.696" y="183.528" width="81.446" height="54.5231" filterUnits="userSpaceOnUse" color-interpolation-filters="sRGB">
<feFlood flood-opacity="0" result="BackgroundImageFix"/>
<feGaussianBlur in="BackgroundImageFix" stdDeviation="4"/>
<feComposite in2="SourceAlpha" operator="in" result="effect1_backgroundBlur_3996_44297"/>
<feBlend mode="normal" in="SourceGraphic" in2="effect1_backgroundBlur_3996_44297" result="shape"/>
</filter>
<filter id="filter2_b_3996_44297" x="139.07" y="93.7015" width="62.8581" height="53.3318" filterUnits="userSpaceOnUse" color-interpolation-filters="sRGB">
<feFlood flood-opacity="0" result="BackgroundImageFix"/>
<feGaussianBlur in="BackgroundImageFix" stdDeviation="0.913095"/>
<feComposite in2="SourceAlpha" operator="in" result="effect1_backgroundBlur_3996_44297"/>
<feBlend mode="normal" in="SourceGraphic" in2="effect1_backgroundBlur_3996_44297" result="shape"/>
</filter>
<filter id="filter3_b_3996_44297" x="202.496" y="148.112" width="70.1309" height="58.5721" filterUnits="userSpaceOnUse" color-interpolation-filters="sRGB">
<feFlood flood-opacity="0" result="BackgroundImageFix"/>
<feGaussianBlur in="BackgroundImageFix" stdDeviation="1.08244"/>
<feComposite in2="SourceAlpha" operator="in" result="effect1_backgroundBlur_3996_44297"/>
<feBlend mode="normal" in="SourceGraphic" in2="effect1_backgroundBlur_3996_44297" result="shape"/>
</filter>
<filter id="filter4_b_3996_44297" x="78.0826" y="206.07" width="125.683" height="104.999" filterUnits="userSpaceOnUse" color-interpolation-filters="sRGB">
<feFlood flood-opacity="0" result="BackgroundImageFix"/>
<feGaussianBlur in="BackgroundImageFix" stdDeviation="4.23508"/>
<feComposite in2="SourceAlpha" operator="in" result="effect1_backgroundBlur_3996_44297"/>
<feBlend mode="normal" in="SourceGraphic" in2="effect1_backgroundBlur_3996_44297" result="shape"/>
</filter>
<filter id="filter5_b_3996_44297" x="138.52" y="93.3623" width="68.3366" height="58.8104" filterUnits="userSpaceOnUse" color-interpolation-filters="sRGB">
<feFlood flood-opacity="0" result="BackgroundImageFix"/>
<feGaussianBlur in="BackgroundImageFix" stdDeviation="2.28274"/>
<feComposite in2="SourceAlpha" operator="in" result="effect1_backgroundBlur_3996_44297"/>
<feBlend mode="normal" in="SourceGraphic" in2="effect1_backgroundBlur_3996_44297" result="shape"/>
</filter>
<filter id="filter6_b_3996_44297" x="197.084" y="142.116" width="76.6255" height="65.0667" filterUnits="userSpaceOnUse" color-interpolation-filters="sRGB">
<feFlood flood-opacity="0" result="BackgroundImageFix"/>
<feGaussianBlur in="BackgroundImageFix" stdDeviation="2.7061"/>
<feComposite in2="SourceAlpha" operator="in" result="effect1_backgroundBlur_3996_44297"/>
<feBlend mode="normal" in="SourceGraphic" in2="effect1_backgroundBlur_3996_44297" result="shape"/>
</filter>
<filter id="filter7_b_3996_44297" x="187.296" y="229.928" width="85.3826" height="64.4807" filterUnits="userSpaceOnUse" color-interpolation-filters="sRGB">
<feFlood flood-opacity="0" result="BackgroundImageFix"/>
<feGaussianBlur in="BackgroundImageFix" stdDeviation="4"/>
<feComposite in2="SourceAlpha" operator="in" result="effect1_backgroundBlur_3996_44297"/>
<feBlend mode="normal" in="SourceGraphic" in2="effect1_backgroundBlur_3996_44297" result="shape"/>
</filter>
</defs>
</svg>
