<svg width="32" height="32" viewBox="0 0 32 32" fill="none" xmlns="http://www.w3.org/2000/svg">
<rect width="32" height="32" rx="16" fill="#D5D5DE"/>
<path fill-rule="evenodd" clip-rule="evenodd" d="M13.2857 10H18.7143C19.1482 10 19.5 10.3518 19.5 10.7857C19.5 11.2197 19.8518 11.5714 20.2857 11.5714H22C22.5523 11.5714 23 12.0191 23 12.5714V20C23 20.5523 22.5523 21 22 21H10C9.44772 21 9 20.5523 9 20V12.5714C9 12.0191 9.44772 11.5714 10 11.5714H11.7143C12.1482 11.5714 12.5 11.2197 12.5 10.7857C12.5 10.3518 12.8518 10 13.2857 10ZM16 18C17.1046 18 18 17.1046 18 16C18 14.8954 17.1046 14 16 14C14.8954 14 14 14.8954 14 16C14 17.1046 14.8954 18 16 18Z" fill="#7B7C87"/>
</svg>
