<svg width="18" height="18" viewBox="0 0 18 18" fill="none" xmlns="http://www.w3.org/2000/svg">
<path fill-rule="evenodd" clip-rule="evenodd" d="M2.07492 1.97263C2.09988 1.72536 2.32057 1.54514 2.56784 1.5701L7.94053 2.11252C8.1878 2.13749 8.36802 2.35818 8.34305 2.60545L7.84583 7.53041C7.67082 9.26392 6.65441 10.9125 5.40092 11.487C5.01849 11.6623 4.68254 11.9834 4.64028 12.402L4.41102 14.6728C4.37211 15.0583 4.5842 15.4253 4.93754 15.5841L6.76988 16.4076C6.87255 16.4538 6.93418 16.5604 6.92287 16.6724C6.90836 16.8161 6.78011 16.9209 6.63641 16.9063L0.888654 16.3261C0.744955 16.3116 0.640225 16.1833 0.654733 16.0396C0.66604 15.9276 0.747742 15.8354 0.857564 15.8107L2.81753 15.3701C3.19548 15.2851 3.47666 14.9679 3.51557 14.5824L3.74484 12.3116C3.78709 11.893 3.5221 11.5113 3.18243 11.2631C2.06907 10.4496 1.40269 8.6311 1.5777 6.89759L2.07492 1.97263Z" fill="#E5E9EE"/>
<path d="M2.11635 6.04727L7.62464 5.24652L7.35343 7.93286C7.17263 9.72376 5.54183 11.3683 4.30548 11.2434C3.06912 11.1186 1.79994 9.18134 1.98074 7.39045L2.11635 6.04727Z" fill="#FFDA16"/>
<path d="M2.11635 6.04727C3.41432 6.6306 6.54839 6.94701 7.62464 5.24652C5.83375 5.06571 4.40017 5.82556 2.11635 6.04727Z" fill="#FFC100"/>
<path fill-rule="evenodd" clip-rule="evenodd" d="M8.54437 2.52331C8.49775 2.27919 8.65786 2.04351 8.90197 1.99689L14.2061 0.98402C14.4502 0.937403 14.6859 1.09751 14.7326 1.34163L15.661 6.20377C15.9878 7.91517 15.484 9.78519 14.4465 10.6935C14.1299 10.9706 13.8996 11.3742 13.9785 11.7874L14.4066 14.0293C14.4792 14.4098 14.7872 14.7011 15.1712 14.7525L17.1623 15.019C17.2739 15.034 17.3634 15.1186 17.3845 15.2292C17.4116 15.371 17.3185 15.508 17.1767 15.5351L11.5022 16.6187C11.3604 16.6458 11.2234 16.5527 11.1963 16.4109C11.1752 16.3003 11.2272 16.1886 11.3254 16.1336L13.0782 15.1522C13.4162 14.9629 13.5952 14.5786 13.5225 14.1981L13.0944 11.9562C13.0155 11.543 12.6526 11.2527 12.2563 11.1117C10.9571 10.6496 9.79964 9.09685 9.47283 7.38546L8.54437 2.52331Z" fill="#E5E9EE"/>
<path d="M9.74694 6.41772L14.8823 4.52082L15.3043 6.73088C15.6419 8.49894 14.5481 10.5403 13.3275 10.7734C12.1069 11.0065 10.3378 9.51181 10.0002 7.74376L9.74694 6.41772Z" fill="#FFDA16"/>
<path d="M9.74673 6.41738C11.5991 6.52131 13.8092 6.09928 14.8821 4.52048C12.8607 3.5317 11.8724 5.55334 9.74673 6.41738Z" fill="#FFC100"/>
</svg>
