<svg width="14" height="14" viewBox="0 0 14 14" fill="none" xmlns="http://www.w3.org/2000/svg">
<path fill-rule="evenodd" clip-rule="evenodd" d="M7 14C10.866 14 14 10.866 14 7C14 3.13401 10.866 0 7 0C3.13401 0 0 3.13401 0 7C0 10.866 3.13401 14 7 14ZM7.71795 3.23082C7.71795 2.83431 7.39651 2.51288 7 2.51288C6.60349 2.51288 6.28205 2.83431 6.28205 3.23082V7.53852C6.28205 7.79071 6.41437 8.0244 6.63062 8.15415L9.32293 9.76954C9.66293 9.97354 10.1039 9.86329 10.3079 9.52328C10.5119 9.18328 10.4017 8.74227 10.0617 8.53827L7.71795 7.13202V3.23082Z" fill="#7B7C87"/>
</svg>
