<svg width="375" height="394" viewBox="0 0 375 394" fill="none" xmlns="http://www.w3.org/2000/svg">
<g clip-path="url(#clip0_3996_44292)">
<path d="M424 175C187.5 149.331 265 26.831 299 67.3312C335.029 110.248 281.73 226.767 129 190C68.646 175.471 -7.5 109.5 -19 32" stroke="#6E61FF" stroke-width="5"/>
<path d="M303.411 205.467C292.18 197.203 266.901 211.331 253.374 219.901L262.43 239.797C303.103 231.565 315.504 214.366 303.411 205.467Z" fill="#E6C6FF"/>
<rect x="209.738" y="122.448" width="84.3796" height="27.9486" rx="13.9743" transform="rotate(79.9927 209.738 122.448)" fill="#E6C6FF"/>
<rect x="252.385" y="124.907" width="84.3796" height="26.533" rx="13.2665" transform="rotate(111.924 252.385 124.907)" fill="#E6C6FF"/>
<path d="M234.1 148.377C209.513 145.804 187.266 153 194.976 187.371C190.331 200.432 214.714 267.593 191.36 275.547C177.307 280.333 169.205 296.665 185.917 307.973C194.976 314.103 220.318 306.871 234.1 303.08C241.582 301.022 252.51 296.188 278.315 306.973C304.12 317.759 319.293 263.365 285.036 273.103C273.081 276.502 289.88 260.31 288.972 233.609C288.064 206.907 278.266 153 234.1 148.377Z" fill="#E6C6FF"/>
<path d="M186.398 253.427C197.647 258.16 215.413 238.812 224.686 227.533L212.562 211.589C180.631 229.428 174.286 248.331 186.398 253.427Z" fill="#E6C6FF"/>
<path d="M198.937 237.602C198.849 222.874 168.948 212.344 152.031 207.409L140.094 228.43C175.046 255.394 199.032 253.461 198.937 237.602Z" fill="#EBECF5"/>
<path d="M121.705 145.346C96.6099 142.322 84.7268 162.6 82.4526 183.721C79.0479 215.342 107.653 277.924 82.4526 277.924C67 277.924 60.6299 301.014 77.0159 308.462C94.7005 316.501 121.288 302.512 135.341 299.413C143.284 297.662 149.394 294.525 175.056 302.512C202.391 311.019 216.894 261.238 186.706 267.301C175.056 269.641 178.561 262.235 178.561 231.349C178.561 200.463 172.766 151.5 121.705 145.346Z" fill="#EBECF5"/>
<path fill-rule="evenodd" clip-rule="evenodd" d="M172.469 188.796C171.759 188.567 171.002 188.444 170.217 188.444C166.167 188.444 162.885 191.726 162.885 195.776C162.885 199.825 166.167 203.108 170.217 203.108C172.269 203.108 174.124 202.265 175.454 200.907C174.691 196.844 173.714 192.778 172.469 188.796Z" fill="#E2E4F1"/>
<ellipse cx="157.331" cy="193.363" rx="3.46494" ry="2.47495" fill="#BCB9D9"/>
<path d="M72.7777 250.259C83.7671 260.034 111.56 244.877 126.525 235.62L118.899 212.716C75.5358 220.64 60.9443 239.733 72.7777 250.259Z" fill="#EBECF5"/>
<path d="M288.266 334.4C288.266 339.647 242.151 342 185.266 342C128.38 342 82.2656 339.647 82.2656 334.4C82.2656 329.153 128.38 323 185.266 323C242.151 323 288.266 329.153 288.266 334.4Z" fill="#F1F1F5"/>
<circle cx="164.137" cy="188.475" r="2.47495" fill="black"/>
<path fill-rule="evenodd" clip-rule="evenodd" d="M279.647 188.691C279.043 188.53 278.407 188.444 277.752 188.444C273.703 188.444 270.42 191.726 270.42 195.776C270.42 199.825 273.703 203.108 277.752 203.108C280.03 203.108 282.065 202.069 283.41 200.439C282.359 196.51 281.113 192.561 279.647 188.691Z" fill="#DDBDF6"/>
<circle cx="271.673" cy="188.475" r="2.47495" fill="black"/>
<rect x="104.885" y="141.318" width="77.5747" height="32.3581" rx="16.179" transform="rotate(79.9927 104.885 141.318)" fill="#EBECF5"/>
<rect x="129.132" y="135" width="77.5747" height="32.3581" rx="16.179" transform="rotate(79.9927 129.132 135)" fill="#EBECF5"/>
<path d="M113.8 261.539L114.866 238.276C115.106 233.045 118.046 228.201 122.952 226.368C140.699 219.739 160.529 221.515 160.994 244.33C161.367 262.635 145.073 271.414 130.134 275.652C121.33 278.149 113.381 270.68 113.8 261.539Z" fill="#E2E4F1"/>
<path d="M222.266 263.308V235.041C222.266 228.432 226.635 222.494 233.187 221.628C249.776 219.434 270.815 222.111 271.259 243.95C271.655 263.404 254.22 272.544 238.64 276.841C230.08 279.201 222.266 272.187 222.266 263.308Z" fill="#DDBDF6"/>
<circle cx="143.332" cy="195.776" r="7.332" fill="#E2E4F1"/>
<circle cx="149.251" cy="188.475" r="2.47495" fill="black"/>
<circle cx="250.869" cy="195.776" r="7.332" fill="#DDBDF6"/>
<circle cx="256.787" cy="188.475" r="2.47495" fill="black"/>
<ellipse cx="265.1" cy="193.363" rx="3.46494" ry="2.47495" fill="#B58ED4"/>
<path fill-rule="evenodd" clip-rule="evenodd" d="M162.248 120.046C171.366 114.001 177.012 105.626 177.012 96.3708C177.012 77.9406 154.624 63 127.006 63C99.3885 63 77 77.9406 77 96.3708C77 114.801 99.3885 129.742 127.006 129.742C133.016 129.742 138.778 129.034 144.116 127.737C147.388 126.942 150.842 127.614 153.84 129.146C158.8 131.682 165.679 133.391 173.834 131.506C166.15 128.01 163.889 123.796 162.248 120.046Z" fill="#4A3CEF"/>
<path d="M119.705 82.2521C129.093 82.2522 121.727 91.2493 110.476 97.6816C112.533 101.745 116.683 104.884 122.214 104.373C126.688 103.96 131.145 102.342 135.122 100.156C130.064 93.5421 136.476 82.3663 145.607 82.2521C154.499 82.141 146.935 93.66 135.122 100.156C131.145 102.342 126.688 103.96 122.214 104.373C116.683 104.884 112.533 101.745 110.476 97.6816C107.174 91.1577 109.267 82.2521 119.705 82.2521Z" fill="#4A3CEF"/>
<path d="M94.4854 103.694C112.018 100.894 133.219 82.2522 119.705 82.2521C102.766 82.252 107.803 105.705 122.214 104.373C139.98 102.731 157.492 82.1035 145.607 82.2521C131.498 82.4285 123.881 109.018 155.041 104.373" stroke="white" stroke-width="3" stroke-linecap="round"/>
<path d="M180.902 247.486C182.469 253.614 194.485 248.184 195.9 248.057C196.25 247.267 193.523 241.932 189.345 241.573C183.83 241.099 179.988 243.912 180.902 247.486Z" fill="#E6C6FF"/>
<path d="M180.902 247.486C182.469 253.614 194.485 248.184 195.9 248.057C196.25 247.267 193.523 241.932 189.345 241.573C183.83 241.099 179.988 243.912 180.902 247.486Z" fill="#E6C6FF"/>
</g>
<defs>
<clipPath id="clip0_3996_44292">
<rect width="375" height="394" fill="white"/>
</clipPath>
</defs>
</svg>
