<svg width="375" height="394" viewBox="0 0 375 394" fill="none" xmlns="http://www.w3.org/2000/svg">
<g clip-path="url(#clip0_3996_44298)">
<path d="M-13 186C295 137 250.963 23.686 200.18 69.8854C173.854 93.8361 161.959 186 258.657 186C291.281 186 382.19 180.559 390.5 120.5" stroke="#4A3CEF" stroke-width="5"/>
<path d="M180 330.4C180 334.266 153.361 336 120.5 336C87.6391 336 61 334.266 61 330.4C61 326.534 87.6391 322 120.5 322C153.361 322 180 326.534 180 330.4Z" fill="#AEAFBC"/>
<path d="M311 330.4C311 334.266 284.361 336 251.5 336C218.639 336 192 334.266 192 330.4C192 326.534 218.639 322 251.5 322C284.361 322 311 326.534 311 330.4Z" fill="#AEAFBC"/>
<path d="M182.082 185.8C169.106 180.695 165.082 206.3 144.082 211.8L158.005 233.463C191.582 211.8 196.054 191.297 182.082 185.8Z" fill="#E6C6FF"/>
<rect x="90.5234" y="138.448" width="98.9822" height="27.9486" rx="13.9743" transform="rotate(79.9927 90.5234 138.448)" fill="#E6C6FF"/>
<rect x="133.17" y="140.907" width="84.3796" height="26.533" rx="13.2665" transform="rotate(111.924 133.17 140.907)" fill="#E6C6FF"/>
<path d="M114.768 164.378C90.1811 161.804 65.791 167.629 73.5008 202C75.5008 212.5 84.3712 286.13 69.6446 301.5C61.5007 310 66.5001 329.5 88.9999 329.5C101.094 329.5 109.474 319.08 123.768 319.08C139.001 319.08 135.001 329.5 160.233 329.5C174.717 329.5 185 308 169.64 299C158.916 292.717 168.194 261.892 167.501 241.5C166.807 221.109 158.934 169 114.768 164.378Z" fill="#E6C6FF"/>
<path d="M64.9059 258.534C76.4636 262.453 92.8046 241.887 101.25 229.976L88.0191 214.937C57.4413 235.007 52.4608 254.314 64.9059 258.534Z" fill="#E6C6FF"/>
<path fill-rule="evenodd" clip-rule="evenodd" d="M154.37 191.086C153.754 190.975 153.283 191.031 152.63 191.085C148.595 191.425 145.66 194.965 145.999 199.001C146.338 203.036 149.885 206.032 153.92 205.692C156.19 205.501 158.297 203.737 159.5 202C158 198 156.715 195.518 154.37 191.086Z" fill="#DDBDF6"/>
<path d="M102.933 279.308V251.041C102.933 244.432 107.302 238.494 113.854 237.628C130.443 235.434 151.482 238.111 151.926 259.95C152.322 279.404 134.887 288.544 119.307 292.841C110.747 295.201 102.933 288.187 102.933 279.308Z" fill="#DDBDF6"/>
<circle cx="129.332" cy="204.332" r="7.332" fill="#DDBDF6"/>
<path d="M134.785 193.822C135.078 195.157 134.233 196.476 132.898 196.769C131.563 197.062 130.243 196.217 129.95 194.882C129.756 194 130.5 193.394 131.5 192.5C133.663 190.565 134.492 192.486 134.785 193.822Z" fill="black"/>
<path d="M143.473 190.906C143.448 192.272 144.536 193.4 145.903 193.425C147.269 193.45 148.398 192.363 148.422 190.996C148.439 190.093 147.591 189.645 146.435 188.965C143.934 187.492 143.498 189.539 143.473 190.906Z" fill="black"/>
<ellipse cx="142.511" cy="197.131" rx="3.46494" ry="2.47495" transform="rotate(-12.3733 142.511 197.131)" fill="#B58ED4"/>
<path d="M260.496 165.534C285.082 162.961 309.71 170.129 302 204.5C296.238 216.344 293.425 290.91 302.619 302.657C311.812 314.403 304.263 332.657 287.263 330.657C273.72 329.063 263.294 320.5 249 320.5C233.767 320.5 239 330.657 218.03 330.657C203.546 330.657 196.533 314.497 208.623 300.157C215.5 292 205 267 207.762 242.657C210.525 218.313 216.329 170.157 260.496 165.534Z" fill="#EBECF5"/>
<path d="M185.757 254.168C181.683 240.015 207.394 221.47 222.229 211.959L239.616 228.755C213.7 264.49 190.145 269.409 185.757 254.168Z" fill="#EBECF5"/>
<path fill-rule="evenodd" clip-rule="evenodd" d="M217.304 199.67C218.037 199.534 219.29 199.57 220.069 199.67C224.085 200.188 226.921 203.863 226.403 207.879C225.886 211.895 222.21 214.731 218.194 214.214C216.159 213.951 214.427 212.878 213.281 211.361C214 207.879 215.5 204 217.304 199.67Z" fill="#E2E4F1"/>
<ellipse cx="3.46494" cy="2.47495" rx="3.46494" ry="2.47495" transform="matrix(-1 0 0 1 234.095 203.655)" fill="#BCB9D9"/>
<path d="M313.063 268.67C300.341 276.051 276.14 255.644 263.327 243.582L275.378 222.665C316.282 239.098 326.762 260.723 313.063 268.67Z" fill="#EBECF5"/>
<path d="M295.649 158.516C286.927 156.574 278.282 162.071 276.341 170.792L267.761 209.333C265.82 218.055 271.316 226.699 280.038 228.641C288.76 230.583 297.405 225.086 299.346 216.364L307.926 177.824C309.867 169.102 304.371 160.457 295.649 158.516Z" fill="#EBECF5"/>
<rect width="77.5747" height="32.3581" rx="16.179" transform="matrix(-0.173774 0.984785 0.984785 0.173774 254.394 151)" fill="#EBECF5"/>
<path d="M266.2 279.539L265.134 256.276C264.894 251.045 261.954 246.201 257.048 244.368C239.301 237.739 219.471 239.515 219.006 262.33C218.633 280.635 234.927 289.414 249.866 293.652C258.67 296.149 266.619 288.68 266.2 279.539Z" fill="#E2E4F1"/>
<circle cx="7.332" cy="7.332" r="7.332" transform="matrix(-1 0 0 1 249.664 205)" fill="#E2E4F1"/>
<path d="M236.683 203.394C236.39 204.729 237.235 206.049 238.57 206.342C239.905 206.635 241.225 205.79 241.518 204.454C241.711 203.572 240.968 202.967 239.968 202.072C237.805 200.138 236.976 202.059 236.683 203.394Z" fill="black"/>
<path d="M227.994 200.478C228.019 201.845 226.932 202.973 225.565 202.998C224.198 203.023 223.07 201.935 223.045 200.568C223.029 199.665 223.877 199.217 225.033 198.537C227.534 197.065 227.969 199.111 227.994 200.478Z" fill="black"/>
<g clip-path="url(#clip1_3996_44298)">
<rect width="66" height="40.6744" transform="matrix(-0.956305 0.292372 8.36028e-08 -1 227.116 164.675)" fill="#F1F1F5"/>
<path d="M191.177 154.514L164 183.971L227.116 164.675L199.94 151.835C197.339 150.606 193.777 151.695 191.177 154.514Z" fill="#D5D5DE"/>
<path d="M227.335 124.241L228.224 123.278L227.116 123.617L164 142.913L162.892 143.252L163.781 143.672L190.957 156.512C193.688 157.802 197.428 156.658 200.159 153.698L227.335 124.241Z" fill="#F1F1F5" stroke="#D5D5DE" stroke-width="0.767442"/>
<path d="M199.94 195.667L225.644 167.805C226.57 166.802 227.116 165.499 227.116 164.291L164 183.588C164 184.795 164.546 185.764 165.472 186.202L191.177 198.346C193.777 199.575 197.339 198.486 199.94 195.667Z" fill="#D5D5DE"/>
</g>
</g>
<defs>
<clipPath id="clip0_3996_44298">
<rect width="375" height="394" fill="white"/>
</clipPath>
<clipPath id="clip1_3996_44298">
<rect width="66" height="66.7674" rx="5.37209" transform="matrix(0.956305 -0.292372 0 1 164 143.297)" fill="white"/>
</clipPath>
</defs>
</svg>
