<svg width="375" height="394" viewBox="0 0 375 394" fill="none" xmlns="http://www.w3.org/2000/svg">
<path d="M181.998 296.956C181.998 299.863 161.967 301.166 137.257 301.166C112.547 301.166 92.5162 299.863 92.5162 296.956C92.5162 294.048 112.547 290.639 137.257 290.639C161.967 290.639 181.998 294.048 181.998 296.956Z" fill="#AEAFBC"/>
<path d="M280.503 296.956C280.503 299.863 260.472 301.166 235.762 301.166C211.052 301.166 191.021 299.863 191.021 296.956C191.021 294.048 211.052 290.639 235.762 290.639C260.472 290.639 280.503 294.048 280.503 296.956Z" fill="#AEAFBC"/>
<path d="M183.563 188.224C173.806 184.386 170.78 203.639 154.99 207.775L165.459 224.064C190.707 207.775 194.069 192.357 183.563 188.224Z" fill="#DEDEE6"/>
<rect x="114.716" y="152.618" width="74.4293" height="21.0158" rx="10.5079" transform="rotate(79.9927 114.716 152.618)" fill="#DEDEE6"/>
<rect x="146.784" y="154.466" width="63.449" height="19.9514" rx="9.97568" transform="rotate(111.924 146.784 154.466)" fill="#DEDEE6"/>
<path d="M132.947 172.115C114.459 170.18 96.1189 174.56 101.916 200.406C103.42 208.301 110.09 263.667 99.0166 275.224C92.8928 281.616 96.6521 296.279 113.571 296.279C122.665 296.279 128.966 288.443 139.714 288.443C151.169 288.443 148.161 296.279 167.134 296.279C178.026 296.279 185.758 280.112 174.208 273.344C166.144 268.619 173.121 245.441 172.599 230.107C172.078 214.774 166.157 175.591 132.947 172.115Z" fill="#DEDEE6"/>
<path d="M95.4533 242.916C104.144 245.863 116.432 230.399 122.782 221.442L112.833 210.133C89.8403 225.226 86.0952 239.743 95.4533 242.916Z" fill="#DEDEE6"/>
<path fill-rule="evenodd" clip-rule="evenodd" d="M162.725 192.198C162.262 192.115 161.908 192.157 161.417 192.198C158.383 192.453 156.176 195.115 156.431 198.15C156.686 201.184 159.353 203.437 162.387 203.182C164.094 203.038 165.678 201.711 166.583 200.405C165.455 197.397 164.489 195.531 162.725 192.198Z" fill="#CFD0D9"/>
<path d="M124.047 258.536V237.281C124.047 232.312 127.333 227.847 132.26 227.195C144.734 225.546 160.554 227.558 160.888 243.98C161.185 258.608 148.076 265.482 136.36 268.712C129.924 270.487 124.047 265.213 124.047 258.536Z" fill="#CFD0D9"/>
<circle cx="143.898" cy="202.159" r="5.51327" fill="#CFD0D9"/>
<path d="M147.998 194.256C148.219 195.26 147.583 196.252 146.579 196.472C145.576 196.693 144.583 196.057 144.363 195.053C144.217 194.39 144.777 193.935 145.528 193.262C147.155 191.807 147.778 193.252 147.998 194.256Z" fill="#53525B"/>
<path d="M154.532 192.063C154.513 193.091 155.331 193.939 156.359 193.958C157.386 193.977 158.235 193.159 158.253 192.131C158.266 191.452 157.628 191.116 156.759 190.604C154.878 189.497 154.551 191.036 154.532 192.063Z" fill="#53525B"/>
<ellipse cx="153.808" cy="196.744" rx="2.60545" ry="1.86103" transform="rotate(-12.3733 153.808 196.744)" fill="#AEAFBC"/>
<path d="M242.526 172.985C261.014 171.05 279.533 176.44 273.735 202.285C269.402 211.191 267.288 267.261 274.201 276.094C281.114 284.927 275.437 298.652 262.654 297.149C252.47 295.95 244.631 289.511 233.882 289.511C222.428 289.511 226.363 297.149 210.595 297.149C199.703 297.149 194.43 284.997 203.521 274.214C208.692 268.081 200.797 249.282 202.874 230.977C204.951 212.672 209.316 176.461 242.526 172.985Z" fill="#F1F1F5"/>
<path d="M186.327 239.633C183.263 228.99 202.597 215.046 213.752 207.894L226.826 220.523C207.339 247.394 189.626 251.093 186.327 239.633Z" fill="#F1F1F5"/>
<path fill-rule="evenodd" clip-rule="evenodd" d="M210.049 198.654C210.6 198.551 211.542 198.578 212.128 198.654C215.148 199.043 217.28 201.807 216.891 204.826C216.502 207.846 213.738 209.979 210.718 209.59C209.188 209.392 207.885 208.585 207.023 207.444C207.564 204.826 208.692 201.91 210.049 198.654Z" fill="#E3E3ED"/>
<ellipse cx="2.60545" cy="1.86103" rx="2.60545" ry="1.86103" transform="matrix(-0.966797 -0.255547 -0.255547 0.966797 223.063 202.378)" fill="#D5D5DE"/>
<path d="M282.054 250.539C272.488 256.089 254.29 240.744 244.655 231.673L253.717 215.945C284.474 228.302 292.355 244.562 282.054 250.539Z" fill="#F1F1F5"/>
<path d="M268.96 167.707C262.401 166.248 255.901 170.381 254.441 176.939L247.99 205.919C246.53 212.478 250.663 218.978 257.221 220.438C263.78 221.898 270.28 217.765 271.74 211.207L278.191 182.226C279.651 175.668 275.518 169.167 268.96 167.707Z" fill="#F1F1F5"/>
<rect width="58.3321" height="24.3315" rx="12.1658" transform="matrix(-0.173774 0.984785 0.984785 0.173774 237.938 162.056)" fill="#F1F1F5"/>
<path d="M246.815 258.71L246.014 241.217C245.834 237.284 243.623 233.641 239.934 232.263C226.589 227.278 211.678 228.614 211.329 245.77C211.048 259.534 223.3 266.135 234.533 269.322C241.153 271.199 247.131 265.584 246.815 258.71Z" fill="#E3E3ED"/>
<circle cx="5.51327" cy="5.51327" r="5.51327" transform="matrix(-1 0 0 1 234.381 202.661)" fill="#E3E3ED"/>
<path d="M224.62 201.453C224.4 202.457 225.035 203.449 226.039 203.67C227.043 203.89 228.036 203.255 228.256 202.251C228.402 201.587 227.842 201.132 227.09 200.459C225.464 199.005 224.841 200.449 224.62 201.453Z" fill="#53525B"/>
<path d="M218.087 199.261C218.106 200.288 217.288 201.137 216.26 201.155C215.233 201.174 214.384 200.356 214.366 199.329C214.353 198.65 214.991 198.313 215.86 197.801C217.741 196.694 218.068 198.233 218.087 199.261Z" fill="#53525B"/>
<g clip-path="url(#clip0_3996_44298)">
<rect width="49.6285" height="30.585" transform="matrix(-0.956305 0.292372 8.36028e-08 -1 217.427 172.339)" fill="#F1F1F5"/>
<path d="M190.402 164.699L169.967 186.849L217.427 172.339L196.991 162.684C195.036 161.761 192.358 162.579 190.402 164.699Z" fill="#D7D8E1"/>
<path d="M217.591 141.935L218.259 141.211L217.427 141.465L169.967 155.975L169.134 156.23L169.802 156.546L190.237 166.2C192.29 167.17 195.103 166.311 197.156 164.085L217.591 141.935Z" fill="#F1F1F5" stroke="#D5D5DE" stroke-width="0.577075"/>
<path d="M196.991 195.643L216.32 174.693C217.016 173.938 217.427 172.958 217.427 172.05L169.967 186.56C169.967 187.468 170.377 188.197 171.073 188.526L190.402 197.658C192.357 198.582 195.036 197.763 196.991 195.643Z" fill="#D7D8E1"/>
</g>
<defs>
<clipPath id="clip0_3996_44298">
<rect width="49.6285" height="50.2056" rx="4.03953" transform="matrix(0.956305 -0.292372 0 1 169.967 156.264)" fill="white"/>
</clipPath>
</defs>
</svg>
