<svg width="375" height="394" viewBox="0 0 375 394" fill="none" xmlns="http://www.w3.org/2000/svg">
<g filter="url(#filter0_b_3996_44295)">
<g clip-path="url(#clip0_3996_44295)">
<rect x="74.6565" y="248.123" width="217.824" height="44.5548" rx="11.5512" transform="rotate(-3.65466 74.6565 248.123)" fill="#F1F1F5"/>
<path d="M126.216 261.879L127.574 261.792L127.795 265.238L129.326 265.14L129.398 266.264L127.866 266.362L128.1 270.018L126.741 270.105L126.216 261.879ZM119.136 264.626L119.068 263.551L121.624 263.388L121.546 262.165L122.905 262.078L122.983 263.301L125.54 263.138L125.608 264.212L119.136 264.626ZM119.869 267.158C119.789 265.911 120.835 265.001 122.403 264.901C123.984 264.8 125.137 265.569 125.217 266.817C125.297 268.077 124.252 268.987 122.671 269.088C121.102 269.188 119.949 268.418 119.869 267.158ZM121.272 273.009L121.068 269.822L122.427 269.736L122.561 271.835L128.638 271.447L128.707 272.534L121.272 273.009ZM121.165 267.075C121.208 267.742 121.788 268.09 122.603 268.038C123.419 267.986 123.95 267.567 123.907 266.9C123.865 266.233 123.285 265.886 122.469 265.938C121.654 265.99 121.123 266.408 121.165 267.075ZM137.01 261.177L138.369 261.09L138.54 263.771L140.072 263.673L140.143 264.797L138.612 264.895L138.781 267.538L137.422 267.625L137.01 261.177ZM130.076 267.176C132.527 266.325 133.886 264.886 134.004 263.229L130.348 263.463L130.278 262.364L135.416 262.036C135.601 264.938 133.855 267.108 130.702 268.227L130.076 267.176ZM131.767 270.342C131.68 268.983 133.072 268.051 135.282 267.91C137.481 267.77 138.967 268.518 139.054 269.877C139.141 271.235 137.762 272.167 135.563 272.307C133.352 272.448 131.854 271.701 131.767 270.342ZM133.113 270.256C133.16 270.985 134.063 271.349 135.496 271.257C136.929 271.166 137.779 270.69 137.733 269.961C137.685 269.22 136.782 268.868 135.349 268.96C133.917 269.051 133.066 269.515 133.113 270.256ZM148.77 267.346C151.129 267.195 152.698 267.877 152.78 269.161C152.861 270.433 151.392 271.308 149.033 271.459C146.674 271.61 145.117 270.928 145.036 269.656C144.954 268.371 146.411 267.497 148.77 267.346ZM143.816 266.857L143.746 265.77L147.575 265.525L147.448 263.537L148.794 263.451L148.921 265.439L153.652 265.137L153.721 266.224L143.816 266.857ZM144.665 262.3L144.597 261.226L152.156 260.743L152.214 261.657C152.27 262.534 152.328 263.448 152.105 264.603L150.761 264.54C150.966 263.473 150.929 262.694 150.878 261.904L144.665 262.3ZM146.382 269.57C146.424 270.224 147.386 270.523 148.967 270.422C150.548 270.321 151.463 269.902 151.422 269.248C151.379 268.581 150.417 268.27 148.836 268.371C147.255 268.472 146.34 268.903 146.382 269.57ZM161.991 259.582L163.349 259.495L163.883 267.844L162.524 267.931L162.462 266.955L160.337 267.091L160.277 266.152L162.402 266.017L161.991 259.582ZM154.464 265.035C156.476 264.894 159.167 264.698 161.484 264.265L161.619 265.223C160.74 265.428 159.807 265.587 158.897 265.707L159.032 267.819L157.673 267.906L157.543 265.868C156.534 265.982 155.559 266.057 154.706 266.111L154.464 265.035ZM155.113 262.377C155.039 261.216 156.113 260.366 157.719 260.264C159.337 260.16 160.498 260.868 160.572 262.029C160.648 263.214 159.585 264.051 157.967 264.154C156.361 264.257 155.188 263.563 155.113 262.377ZM156.281 270.773L156.075 267.537L157.433 267.45L157.571 269.599L164.228 269.174L164.297 270.261L156.281 270.773ZM156.41 262.294C156.448 262.9 157.063 263.208 157.903 263.154C158.768 263.099 159.314 262.717 159.275 262.111C159.236 261.506 158.646 261.197 157.782 261.252C156.942 261.306 156.371 261.689 156.41 262.294ZM175.571 258.727L176.942 258.639L177.645 269.632L176.274 269.719L175.571 258.727ZM168.28 266.497L169.626 266.411L169.299 261.297L168.237 261.365L168.168 260.278L174.368 259.882L174.437 260.969L173.375 261.037L173.692 266.002C174.209 265.932 174.724 265.85 175.214 265.756L175.363 266.727C173.054 267.271 170.475 267.473 168.487 267.612L168.28 266.497ZM170.934 266.303C171.414 266.259 171.895 266.216 172.388 266.16L172.066 261.121L170.609 261.214L170.934 266.303ZM179.848 259.47L187.568 258.977L187.651 260.274C187.753 261.88 187.85 263.399 187.505 265.765L186.151 265.727C186.312 264.75 186.381 263.89 186.393 263.108L180.004 263.851L179.761 262.762L186.391 262.103C186.377 261.496 186.341 260.928 186.304 260.36L186.292 260.163L179.918 260.57L179.848 259.47ZM179.26 268.127L179.188 267.003L189.131 266.368L189.203 267.492L179.26 268.127ZM191.519 264.529L198.954 264.054L199.223 268.266L197.865 268.352L197.665 265.228L191.588 265.616L191.519 264.529ZM190.443 263.407L190.123 258.392L191.469 258.306L191.717 262.197C193.198 262.078 194.771 261.853 196.405 261.426L196.649 262.515C194.783 263.018 193.024 263.242 191.369 263.348L190.443 263.407ZM197.564 263.647L197.163 257.36L198.521 257.273L198.923 263.56L197.564 263.647Z" fill="#7B7C87"/>
<rect x="86.9734" y="259.738" width="19.8021" height="19.8021" rx="9.90107" transform="rotate(-3.65466 86.9734 259.738)" fill="#D5D5DE"/>
<path d="M98.9584 268.392C99.6801 268.754 100.168 269.486 100.209 270.139C100.294 271.466 99.2623 272.478 97.7102 272.577C96.1688 272.676 95.0154 271.782 94.9279 270.412L96.0626 270.339C96.1125 271.121 96.7682 271.627 97.6459 271.571C98.5451 271.514 99.1525 270.927 99.1026 270.145C99.0547 269.396 98.389 268.901 97.5005 268.958L96.9439 268.993L96.8831 268.041L97.4504 268.004C98.2639 267.952 98.8112 267.434 98.7674 266.749C98.723 266.053 98.1356 265.607 97.3435 265.657C96.5513 265.708 96.0369 266.235 96.0813 266.931L94.9467 267.004C94.8639 265.708 95.8234 264.744 97.2792 264.651C98.7136 264.56 99.7866 265.372 99.8659 266.614C99.9042 267.214 99.5639 267.945 98.9584 268.392Z" fill="#7B7C87"/>
<rect x="234.259" y="248.677" width="48.6802" height="23.1025" rx="8.25089" transform="rotate(-3.65466 234.259 248.677)" fill="#D5D5DE"/>
<path d="M247.452 262.217C248.899 260.631 251.045 258.731 250.957 257.35C250.896 256.397 250.243 255.762 249.376 255.817C248.734 255.858 248.111 256.371 247.855 257.075L247.029 256.773C247.387 255.805 248.34 255.077 249.325 255.015C250.716 254.926 251.755 255.87 251.846 257.293C251.95 258.931 250.074 260.695 248.683 262.138L252.269 261.909L252.32 262.702L247.61 263.002L247.452 262.217ZM255.24 254.658L256.171 254.599L256.276 256.237C256.386 257.96 257.578 259.625 259.021 260.178L258.523 260.962C257.408 260.506 256.472 259.481 255.948 258.181C255.61 259.611 254.795 260.824 253.717 261.451L253.101 260.717C254.493 259.962 255.459 258.094 255.344 256.296L255.24 254.658ZM260.126 263.009L259.522 253.557L260.454 253.498L261.057 262.95L260.126 263.009ZM268.494 253.006L269.425 252.946L269.605 255.761L270.986 255.673L271.035 256.444L269.654 256.532L269.863 259.797L268.932 259.856L268.494 253.006ZM262.426 258.466C264.599 257.65 265.919 256.265 265.987 254.649L262.594 254.866L262.546 254.106L266.945 253.825C267.102 256.276 265.535 258.171 262.87 259.19L262.426 258.466ZM264.115 262.529L263.92 259.478L264.852 259.418L264.999 261.72L270.372 261.377L270.42 262.126L264.115 262.529Z" fill="#7B7C87"/>
</g>
<rect x="75.0945" y="248.508" width="216.998" height="43.7297" rx="11.1387" transform="rotate(-3.65466 75.0945 248.508)" stroke="white" stroke-width="0.825089"/>
</g>
<g filter="url(#filter1_b_3996_44295)">
<g clip-path="url(#clip1_3996_44295)">
<rect x="94.981" y="164.88" width="217.824" height="44.5548" rx="11.5512" transform="rotate(4.16801 94.981 164.88)" fill="#F1F1F5"/>
<path d="M136.335 193.515L140.581 193.825L140.765 191.294L142.123 191.393L141.939 193.923L146.284 194.24L146.203 195.351L136.254 194.626L136.335 193.515ZM136.878 190.142C139.189 189.938 140.94 188.391 141.058 186.761L141.118 185.947L142.55 186.051L142.49 186.866C142.37 188.52 143.892 190.281 146.148 190.818L145.485 191.923C143.66 191.418 142.245 190.235 141.632 188.764C140.801 190.13 139.216 191.094 137.35 191.331L136.878 190.142ZM147.331 191.289L157.279 192.014L157.201 193.087L153.017 192.783L152.871 194.782L151.513 194.683L151.659 192.684L147.252 192.362L147.331 191.289ZM148.144 196.647L148.376 193.462L149.734 193.561L149.581 195.659L155.876 196.118L155.797 197.204L148.144 196.647ZM148.652 190.355L148.943 186.356L156.374 186.897L156.083 190.896L148.652 190.355ZM150.064 189.366L154.829 189.713L154.964 187.862L150.199 187.514L150.064 189.366ZM158.96 187.346L160.318 187.445L160.013 191.63C161.41 191.707 162.912 191.692 164.515 191.498L164.595 192.609C162.754 192.847 161.055 192.822 159.488 192.708L158.574 192.642L158.96 187.346ZM159.39 197.454L159.653 193.849L161.01 193.948L160.827 196.466L166.801 196.902L166.722 197.988L159.39 197.454ZM165.202 195.011L165.778 187.098L167.136 187.197L166.908 190.333L168.426 190.443L168.342 191.591L166.824 191.481L166.56 195.11L165.202 195.011ZM171.717 193.723L181.666 194.448L181.585 195.559L179.166 195.383L178.896 199.086L177.514 198.985L177.783 195.282L175.389 195.108L175.119 198.811L173.724 198.709L173.994 195.006L171.636 194.834L171.717 193.723ZM172.985 190.465C173.093 188.972 174.753 188.162 177.074 188.331C179.407 188.501 180.932 189.543 180.823 191.037C180.714 192.53 179.053 193.352 176.72 193.182C174.4 193.013 172.876 191.959 172.985 190.465ZM174.379 190.567C174.316 191.431 175.269 191.984 176.799 192.096C178.342 192.208 179.377 191.8 179.44 190.936C179.501 190.096 178.539 189.517 176.996 189.405C175.465 189.293 174.441 189.728 174.379 190.567ZM190.719 188.916L192.077 189.015L191.606 195.471L190.248 195.372L190.359 193.853L188.187 193.695L188.124 194.547L183.002 194.174L183.366 189.174L188.489 189.548L188.426 190.412L190.598 190.57L190.719 188.916ZM184.025 197.338C184.122 196.005 185.598 195.331 187.906 195.499C190.202 195.666 191.577 196.548 191.48 197.881C191.382 199.227 189.894 199.888 187.599 199.72C185.29 199.552 183.927 198.683 184.025 197.338ZM184.412 193.209L186.869 193.388L187.076 190.537L184.62 190.358L184.412 193.209ZM185.382 197.437C185.332 198.128 186.156 198.573 187.674 198.683C189.192 198.794 190.072 198.474 190.122 197.782C190.173 197.091 189.348 196.659 187.83 196.548C186.311 196.437 185.433 196.746 185.382 197.437ZM188.266 192.609L190.438 192.767L190.519 191.656L188.347 191.498L188.266 192.609ZM199.636 189.913C201.303 190.035 202.475 191.15 202.369 192.607C202.263 194.063 200.942 194.985 199.276 194.863C197.622 194.743 196.461 193.64 196.567 192.184C196.673 190.727 197.982 189.793 199.636 189.913ZM197.876 192.279C197.814 193.131 198.455 193.699 199.356 193.765C200.282 193.832 200.986 193.362 201.048 192.51C201.11 191.659 200.482 191.079 199.556 191.012C198.655 190.946 197.938 191.428 197.876 192.279ZM197.912 196.551L197.988 195.501L205.222 196.029L205.012 198.905L199.124 198.476L199.059 199.364L205.256 199.816L205.179 200.877L197.661 200.33L197.875 197.392L203.739 197.819L203.8 196.98L197.912 196.551ZM203.899 195.448L204.303 189.906L205.661 190.005L205.257 195.547L203.899 195.448ZM210.006 190.83L211.376 190.93L211.3 191.979C211.194 193.436 212.008 194.86 213.683 195.541L212.952 196.555C211.723 196.043 210.896 195.139 210.479 194.042C209.914 195.154 208.921 196.013 207.593 196.363L206.993 195.227C208.814 194.764 209.821 193.373 209.93 191.879L210.006 190.83ZM208.411 198.42L208.491 197.322L215.921 197.863L215.636 201.776L214.279 201.677L214.484 198.863L208.411 198.42ZM214.601 197.258L215.079 190.691L216.437 190.79L215.958 197.357L214.601 197.258ZM218.551 191.589L224.537 192.026L224.46 193.087L222.164 192.92C222.083 194.205 222.941 195.533 224.608 196.163L223.865 197.164C222.633 196.702 221.79 195.834 221.358 194.785C220.796 195.848 219.808 196.645 218.47 196.957L217.868 195.846C219.659 195.455 220.669 194.188 220.781 192.819L218.473 192.651L218.551 191.589ZM219.226 201.901L219.547 197.494L220.88 197.592L220.799 198.715L225.341 199.046L225.423 197.923L226.756 198.02L226.435 202.426L219.226 201.901ZM220.639 200.9L225.182 201.231L225.265 200.095L220.722 199.764L220.639 200.9ZM225.434 197.427L225.868 191.477L227.225 191.576L226.792 197.526L225.434 197.427Z" fill="#7B7C87"/>
<rect x="105.603" y="178.063" width="19.8021" height="19.8021" rx="9.90107" transform="rotate(4.16801 105.603 178.063)" fill="#D5D5DE"/>
<path d="M112.176 191.011C113.847 189.627 116.087 188.263 116.183 186.947C116.247 186.07 115.736 185.409 114.944 185.351C114.334 185.307 113.693 185.701 113.368 186.312L112.406 185.801C112.905 184.848 113.993 184.239 115.02 184.313C116.485 184.42 117.425 185.543 117.317 187.03C117.198 188.666 115.316 189.992 113.781 191.128L117.13 191.372L117.057 192.366L112.211 192.013L112.176 191.011Z" fill="#7B7C87"/>
<rect x="253.022" y="187.152" width="48.6802" height="23.1025" rx="8.25089" transform="rotate(4.16801 253.022 187.152)" fill="#D5D5DE"/>
<path d="M268.131 195.654L267.567 203.389L266.679 203.324L267.171 196.574L265.85 197.295L265.462 196.557L267.243 195.589L268.131 195.654ZM272.048 195.864L272.979 195.932L272.86 197.569C272.734 199.291 273.688 201.103 275.043 201.847L274.443 202.556C273.401 201.953 272.613 200.81 272.271 199.451C271.741 200.821 270.769 201.912 269.616 202.387L269.105 201.576C270.587 201.017 271.798 199.298 271.929 197.501L272.048 195.864ZM275.753 204.803L276.441 195.356L277.372 195.424L276.683 204.87L275.753 204.803ZM285.404 196.031L286.335 196.099L286.13 198.912L287.51 199.013L287.454 199.783L286.074 199.683L285.836 202.945L284.906 202.878L285.404 196.031ZM278.65 200.615C280.913 200.102 282.409 198.91 282.697 197.318L279.306 197.071L279.361 196.311L283.758 196.632C283.58 199.081 281.77 200.746 278.991 201.393L278.65 200.615ZM279.77 204.869L279.992 201.821L280.923 201.888L280.755 204.188L286.126 204.58L286.071 205.329L279.77 204.869Z" fill="#7B7C87"/>
</g>
<rect x="95.3624" y="165.321" width="216.998" height="43.7297" rx="11.1387" transform="rotate(4.16801 95.3624 165.321)" stroke="white" stroke-width="0.825089"/>
</g>
<g filter="url(#filter2_b_3996_44295)">
<g clip-path="url(#clip2_3996_44295)">
<rect x="69.7063" y="130.434" width="217.824" height="44.5548" rx="11.5512" transform="rotate(-5.91155 69.7063 130.434)" fill="#F1F1F5"/>
<path d="M115.129 148.573L125.051 147.545L125.162 148.616L120.989 149.048L121.184 150.932L119.83 151.072L119.635 149.188L115.24 149.644L115.129 148.573ZM116.848 153.521L116.537 150.517L117.879 150.378L118.077 152.286L124.368 151.635L124.481 152.731L116.848 153.521ZM116.331 147.565L115.869 143.096L117.21 142.957L117.338 144.188L121.991 143.706L121.864 142.475L123.218 142.335L123.681 146.804L116.331 147.565ZM117.562 146.355L122.216 145.873L122.097 144.728L117.444 145.21L117.562 146.355ZM128.906 141.87C130.556 141.7 131.848 142.524 131.99 143.89C132.128 145.232 131.034 146.316 129.384 146.487C127.747 146.656 126.441 145.821 126.302 144.479C126.161 143.113 127.269 142.04 128.906 141.87ZM125.916 147.605C127.874 147.402 130.606 147.107 132.931 146.493L133.12 147.481C132.192 147.764 131.23 147.975 130.29 148.147L130.684 151.951L129.33 152.092L128.945 148.374C127.952 148.514 127.017 148.623 126.193 148.709L125.916 147.605ZM127.607 144.344C127.683 145.083 128.383 145.471 129.269 145.379C130.168 145.286 130.773 144.763 130.697 144.024C130.619 143.273 129.92 142.885 129.021 142.978C128.135 143.07 127.529 143.593 127.607 144.344ZM134.179 151.938L133.043 140.969L134.397 140.829L135.533 151.798L134.179 151.938ZM143.778 139.858L145.133 139.717L146.267 150.674L144.913 150.814L143.778 139.858ZM136.958 148.614C139.66 146.953 140.761 144.96 140.736 142.437L136.907 142.834L136.794 141.738L142.013 141.198C142.354 144.484 141.396 147.371 137.771 149.612L136.958 148.614ZM154.267 142.081L155.622 141.941L155.736 143.049L160.045 142.603L160.156 143.674L150.234 144.701L150.123 143.63L154.382 143.189L154.267 142.081ZM150.424 142.094C152.392 141.753 153.605 140.968 153.784 140.178L150.706 140.497L150.599 139.462L158.712 138.622L158.819 139.656L155.729 139.976C156.054 140.714 157.402 141.234 159.411 141.163L159.097 142.216C157.062 142.277 155.501 141.742 154.829 140.779C154.356 141.861 152.951 142.703 150.947 143.06L150.424 142.094ZM151.367 146.873L151.261 145.852L154.622 145.504L154.531 144.63L155.885 144.489L155.976 145.363L159.349 145.014L159.455 146.036L151.367 146.873ZM152.272 148.646C152.174 147.698 153.329 147.081 155.447 146.862C157.564 146.642 158.809 147.011 158.907 147.959C159.005 148.907 157.862 149.523 155.745 149.742C153.628 149.961 152.37 149.594 152.272 148.646ZM153.675 148.501C153.714 148.87 154.384 148.975 155.652 148.844C156.92 148.712 157.554 148.472 157.516 148.103C157.477 147.721 156.808 147.629 155.54 147.76C154.272 147.891 153.636 148.119 153.675 148.501ZM161.015 143.796L170.913 142.772L171.025 143.855L161.127 144.88L161.015 143.796ZM161.717 140.601C161.574 139.222 163.037 138.212 165.413 137.966C167.777 137.721 169.428 138.409 169.571 139.787C169.715 141.179 168.239 142.19 165.876 142.435C163.5 142.681 161.861 141.992 161.717 140.601ZM162.774 148.766L162.444 145.577L163.785 145.438L164.002 147.531L170.219 146.887L170.332 147.983L162.774 148.766ZM163.108 140.457C163.186 141.208 164.188 141.514 165.764 141.351C167.339 141.188 168.245 140.684 168.167 139.933C168.091 139.194 167.102 138.898 165.527 139.062C163.951 139.225 163.031 139.718 163.108 140.457ZM179.788 137.224C180.131 140.536 179.527 143.472 175.724 145.919L174.89 144.96C176.676 143.817 177.683 142.606 178.175 141.236L174.837 141.917L174.543 140.766L178.469 140.11C178.551 139.579 178.581 139.029 178.571 138.445L174.915 138.824L174.802 137.74L179.788 137.224ZM182.312 146.942L181.177 135.973L182.543 135.831L182.988 140.128L184.601 139.961L184.717 141.081L183.104 141.248L183.679 146.8L182.312 146.942ZM192.936 134.78L194.229 134.646L195.363 145.603L194.07 145.736L192.936 134.78ZM185.417 142.912L186.377 142.813L185.869 137.913L185.106 137.992L184.993 136.897L189.991 136.379L190.104 137.475L189.329 137.555L189.82 142.295C190.149 142.236 190.478 142.164 190.77 142.097L190.969 143.059C189.295 143.593 187.058 143.862 185.679 144.005L185.417 142.912ZM187.592 142.65C187.924 142.615 188.266 142.555 188.597 142.508L188.098 137.682L187.088 137.787L187.592 142.65ZM190.106 140.374L189.983 139.192L191.202 139.066L190.806 135.237L192.074 135.106L193.128 145.287L191.86 145.418L191.325 140.247L190.106 140.374Z" fill="#7B7C87"/>
<rect x="82.4709" y="141.555" width="19.8021" height="19.8021" rx="9.90107" transform="rotate(-5.91155 82.4709 141.555)" fill="#D5D5DE"/>
<path d="M94.0841 146.018L94.8872 153.775L93.7552 153.881L93.078 147.341L91.7908 148.24L91.223 147.339L92.9638 146.134L94.0841 146.018Z" fill="#7B7C87"/>
<rect x="229.206" y="124.703" width="48.6802" height="23.1025" rx="8.25089" transform="rotate(-5.91155 229.206 124.703)" fill="#D5D5DE"/>
<path d="M245.25 130.441L246.053 138.197L244.921 138.304L244.243 131.763L242.956 132.662L242.388 131.761L244.129 130.557L245.25 130.441ZM249.012 129.911L250.196 129.788L250.351 131.282C250.532 133.032 251.609 134.689 253.204 135.203L252.62 136.223C251.468 135.825 250.574 134.893 250.019 133.7C249.73 135.077 249.032 136.25 247.947 136.912L247.142 136.014C248.628 135.159 249.356 133.24 249.166 131.405L249.012 129.911ZM254.195 138.206L253.208 128.679L254.382 128.557L255.368 138.085L254.195 138.206ZM262.141 127.775L263.314 127.654L263.597 130.385L264.92 130.248L265.02 131.208L263.697 131.345L264.022 134.493L262.849 134.614L262.141 127.775ZM256.356 133.356C258.446 132.503 259.625 131.184 259.666 129.703L256.423 130.039L256.325 129.1L260.838 128.633C261.1 131.161 259.654 133.123 256.943 134.233L256.356 133.356ZM258.228 137.584L257.901 134.425L259.075 134.304L259.305 136.523L264.543 135.981L264.64 136.92L258.228 137.584Z" fill="#7B7C87"/>
</g>
<rect x="70.1591" y="130.802" width="216.998" height="43.7297" rx="11.1387" transform="rotate(-5.91155 70.1591 130.802)" stroke="white" stroke-width="0.825089"/>
</g>
<defs>
<filter id="filter0_b_3996_44295" x="66.4056" y="225.987" width="236.722" height="74.8509" filterUnits="userSpaceOnUse" color-interpolation-filters="sRGB">
<feFlood flood-opacity="0" result="BackgroundImageFix"/>
<feGaussianBlur in="BackgroundImageFix" stdDeviation="4.12544"/>
<feComposite in2="SourceAlpha" operator="in" result="effect1_backgroundBlur_3996_44295"/>
<feBlend mode="normal" in="SourceGraphic" in2="effect1_backgroundBlur_3996_44295" result="shape"/>
</filter>
<filter id="filter1_b_3996_44295" x="83.4918" y="156.629" width="236.987" height="76.7703" filterUnits="userSpaceOnUse" color-interpolation-filters="sRGB">
<feFlood flood-opacity="0" result="BackgroundImageFix"/>
<feGaussianBlur in="BackgroundImageFix" stdDeviation="4.12544"/>
<feComposite in2="SourceAlpha" operator="in" result="effect1_backgroundBlur_3996_44295"/>
<feBlend mode="normal" in="SourceGraphic" in2="effect1_backgroundBlur_3996_44295" result="shape"/>
</filter>
<filter id="filter2_b_3996_44295" x="61.4554" y="99.7491" width="237.756" height="83.2537" filterUnits="userSpaceOnUse" color-interpolation-filters="sRGB">
<feFlood flood-opacity="0" result="BackgroundImageFix"/>
<feGaussianBlur in="BackgroundImageFix" stdDeviation="4.12544"/>
<feComposite in2="SourceAlpha" operator="in" result="effect1_backgroundBlur_3996_44295"/>
<feBlend mode="normal" in="SourceGraphic" in2="effect1_backgroundBlur_3996_44295" result="shape"/>
</filter>
<clipPath id="clip0_3996_44295">
<rect x="74.6565" y="248.123" width="217.824" height="44.5548" rx="11.5512" transform="rotate(-3.65466 74.6565 248.123)" fill="white"/>
</clipPath>
<clipPath id="clip1_3996_44295">
<rect x="94.981" y="164.88" width="217.824" height="44.5548" rx="11.5512" transform="rotate(4.16801 94.981 164.88)" fill="white"/>
</clipPath>
<clipPath id="clip2_3996_44295">
<rect x="69.7063" y="130.434" width="217.824" height="44.5548" rx="11.5512" transform="rotate(-5.91155 69.7063 130.434)" fill="white"/>
</clipPath>
</defs>
</svg>
