<svg width="375" height="394" viewBox="0 0 375 394" fill="none" xmlns="http://www.w3.org/2000/svg">
<g clip-path="url(#clip0_3996_44337)">
<path d="M436 75.4346C148.5 97.4346 97.6389 362.467 225 318.935C295.197 294.941 293.237 23.9091 97.6389 88.3543C20 113.935 -4.00003 156.435 -39.5 190.435" stroke="#E3A3F9" stroke-width="5"/>
<g filter="url(#filter0_b_3996_44337)">
<g clip-path="url(#clip1_3996_44337)">
<rect x="50" y="267.763" width="264" height="54" rx="14" transform="rotate(-3.65466 50 267.763)" fill="#6E61FF" fill-opacity="0.8"/>
<path d="M112.505 284.678L114.152 284.573L114.418 288.749L116.275 288.631L116.362 289.993L114.505 290.111L114.788 294.542L113.142 294.648L112.505 284.678ZM103.925 288.007L103.842 286.704L106.94 286.506L106.846 285.024L108.492 284.919L108.587 286.401L111.686 286.203L111.769 287.506L103.925 288.007ZM104.812 291.076C104.716 289.564 105.983 288.461 107.884 288.34C109.8 288.218 111.197 289.15 111.294 290.662C111.392 292.189 110.124 293.292 108.208 293.415C106.307 293.536 104.91 292.603 104.812 291.076ZM106.513 298.167L106.266 294.305L107.913 294.2L108.075 296.745L115.44 296.274L115.524 297.592L106.513 298.167ZM106.384 290.976C106.436 291.784 107.139 292.205 108.127 292.142C109.115 292.079 109.759 291.572 109.707 290.764C109.656 289.955 108.952 289.534 107.964 289.597C106.976 289.66 106.332 290.168 106.384 290.976ZM125.588 283.827L127.234 283.722L127.442 286.97L129.298 286.852L129.385 288.214L127.529 288.333L127.733 291.536L126.087 291.641L125.588 283.827ZM117.184 291.098C120.154 290.066 121.802 288.323 121.944 286.315L117.513 286.598L117.428 285.265L123.655 284.868C123.88 288.385 121.763 291.016 117.942 292.372L117.184 291.098ZM119.233 294.935C119.128 293.288 120.814 292.158 123.494 291.987C126.158 291.817 127.96 292.724 128.065 294.371C128.17 296.017 126.499 297.146 123.834 297.316C121.154 297.488 119.338 296.582 119.233 294.935ZM120.865 294.831C120.921 295.714 122.016 296.155 123.753 296.044C125.489 295.933 126.52 295.356 126.463 294.473C126.406 293.575 125.311 293.149 123.575 293.26C121.838 293.371 120.807 293.933 120.865 294.831ZM139.841 291.304C142.7 291.121 144.601 291.947 144.701 293.504C144.799 295.045 143.018 296.106 140.159 296.289C137.3 296.471 135.413 295.645 135.315 294.103C135.215 292.546 136.982 291.487 139.841 291.304ZM133.836 290.711L133.751 289.393L138.392 289.097L138.238 286.687L139.87 286.582L140.024 288.993L145.757 288.626L145.841 289.944L133.836 290.711ZM134.866 285.189L134.783 283.886L143.944 283.301L144.015 284.409C144.083 285.472 144.153 286.579 143.882 287.98L142.254 287.903C142.502 286.61 142.457 285.666 142.395 284.708L134.866 285.189ZM136.947 293.999C136.997 294.792 138.163 295.154 140.079 295.031C141.995 294.909 143.105 294.402 143.054 293.609C143.002 292.8 141.836 292.424 139.92 292.546C138.004 292.669 136.895 293.191 136.947 293.999ZM155.864 281.893L157.51 281.788L158.157 291.908L156.51 292.013L156.435 290.83L153.86 290.995L153.787 289.857L156.362 289.693L155.864 281.893ZM146.742 288.503C149.181 288.333 152.442 288.094 155.249 287.569L155.414 288.731C154.347 288.98 153.217 289.172 152.114 289.318L152.278 291.877L150.631 291.983L150.473 289.513C149.25 289.651 148.068 289.741 147.035 289.807L146.742 288.503ZM147.528 285.282C147.438 283.875 148.74 282.844 150.686 282.72C152.647 282.595 154.054 283.452 154.144 284.859C154.236 286.296 152.948 287.31 150.987 287.436C149.041 287.56 147.62 286.719 147.528 285.282ZM148.944 295.457L148.694 291.535L150.34 291.43L150.507 294.035L158.575 293.519L158.659 294.837L148.944 295.457ZM149.1 285.181C149.146 285.915 149.892 286.288 150.91 286.223C151.958 286.156 152.619 285.693 152.573 284.959C152.526 284.226 151.81 283.851 150.762 283.918C149.744 283.983 149.053 284.448 149.1 285.181ZM172.324 280.857L173.985 280.751L174.836 294.074L173.175 294.18L172.324 280.857ZM163.486 290.275L165.118 290.17L164.722 283.973L163.434 284.055L163.35 282.738L170.865 282.258L170.949 283.575L169.662 283.658L170.046 289.675C170.672 289.59 171.297 289.49 171.891 289.377L172.071 290.553C169.272 291.213 166.147 291.457 163.738 291.626L163.486 290.275ZM166.702 290.039C167.285 289.987 167.868 289.935 168.465 289.866L168.075 283.759L166.308 283.872L166.702 290.039ZM177.507 281.759L186.863 281.161L186.963 282.733C187.088 284.679 187.205 286.52 186.787 289.388L185.146 289.342C185.341 288.157 185.424 287.115 185.439 286.167L177.696 287.067L177.401 285.748L185.436 284.95C185.42 284.214 185.376 283.526 185.332 282.837L185.316 282.598L177.592 283.091L177.507 281.759ZM176.794 292.25L176.707 290.888L188.758 290.118L188.845 291.481L176.794 292.25ZM191.652 287.889L200.663 287.314L200.99 292.418L199.343 292.524L199.101 288.736L191.736 289.207L191.652 287.889ZM190.348 286.53L189.959 280.452L191.591 280.348L191.892 285.063C193.687 284.919 195.593 284.647 197.574 284.129L197.869 285.448C195.608 286.059 193.476 286.33 191.47 286.458L190.348 286.53ZM198.979 286.82L198.492 279.201L200.139 279.096L200.625 286.715L198.979 286.82Z" fill="white"/>
<rect x="64.9277" y="281.84" width="24" height="24" rx="12" transform="rotate(-3.65466 64.9277 281.84)" fill="#4A3CEF"/>
<path d="M79.5019 293.085C80.3767 293.524 80.9674 294.411 81.018 295.202C81.1207 296.811 79.8703 298.037 77.9892 298.157C76.121 298.277 74.7231 297.194 74.617 295.533L75.9922 295.445C76.0527 296.392 76.8475 297.006 77.9113 296.938C79.0011 296.868 79.7372 296.157 79.6767 295.21C79.6187 294.302 78.8118 293.702 77.735 293.771L77.0604 293.814L76.9867 292.659L77.6743 292.615C78.6603 292.552 79.3235 291.924 79.2705 291.093C79.2166 290.25 78.5047 289.709 77.5447 289.771C76.5846 289.832 75.9611 290.471 76.015 291.314L74.6398 291.402C74.5395 289.832 75.7024 288.664 77.4668 288.551C79.2053 288.44 80.5057 289.425 80.6018 290.93C80.6482 291.657 80.2359 292.543 79.5019 293.085Z" fill="white"/>
<rect x="243.437" y="268.434" width="59" height="28" rx="10" transform="rotate(-3.65466 243.437 268.434)" fill="#4A3CEF"/>
<path d="M259.819 285.488C261.572 283.566 264.173 281.263 264.066 279.59C263.993 278.435 263.201 277.665 262.15 277.732C261.372 277.782 260.617 278.403 260.306 279.256L259.306 278.891C259.739 277.717 260.894 276.835 262.088 276.759C263.774 276.651 265.033 277.795 265.143 279.521C265.27 281.506 262.997 283.644 261.311 285.393L265.657 285.115L265.718 286.075L260.01 286.44L259.819 285.488ZM269.257 276.327L270.386 276.255L270.512 278.24C270.646 280.329 272.09 282.347 273.84 283.017L273.236 283.967C271.885 283.415 270.75 282.172 270.116 280.597C269.705 282.33 268.718 283.8 267.412 284.56L266.665 283.67C268.352 282.755 269.523 280.492 269.384 278.312L269.257 276.327ZM275.179 286.448L274.447 274.992L275.576 274.92L276.308 286.376L275.179 286.448ZM285.321 274.324L286.45 274.252L286.668 277.664L288.341 277.557L288.401 278.491L286.727 278.598L286.98 282.555L285.851 282.627L285.321 274.324ZM277.967 280.942C280.6 279.953 282.2 278.275 282.283 276.316L278.17 276.578L278.111 275.657L283.444 275.317C283.633 278.288 281.735 280.584 278.505 281.82L277.967 280.942ZM280.014 285.866L279.778 282.168L280.907 282.096L281.085 284.885L287.597 284.469L287.655 285.378L280.014 285.866Z" fill="white"/>
</g>
<rect x="50.5309" y="268.23" width="263" height="53" rx="13.5" transform="rotate(-3.65466 50.5309 268.23)" stroke="white" stroke-opacity="0.2"/>
</g>
<g filter="url(#filter1_b_3996_44337)">
<g clip-path="url(#clip2_3996_44337)">
<rect x="74.6328" y="166.873" width="264" height="54" rx="14" transform="rotate(4.16801 74.6328 166.873)" fill="#877DFF" fill-opacity="0.8"/>
<path d="M124.735 201.822L129.882 202.197L130.105 199.13L131.751 199.25L131.527 202.317L136.793 202.701L136.695 204.047L124.637 203.168L124.735 201.822ZM125.394 197.734C128.194 197.487 130.316 195.611 130.46 193.636L130.532 192.649L132.268 192.775L132.196 193.763C132.05 195.768 133.894 197.902 136.629 198.553L135.825 199.893C133.613 199.28 131.898 197.847 131.156 196.063C130.148 197.719 128.228 198.888 125.966 199.174L125.394 197.734ZM138.062 199.123L150.12 200.002L150.025 201.304L144.954 200.934L144.777 203.358L143.131 203.238L143.308 200.814L137.967 200.425L138.062 199.123ZM139.048 205.617L139.329 201.757L140.975 201.877L140.789 204.421L148.419 204.977L148.323 206.293L139.048 205.617ZM139.663 197.992L140.017 193.145L149.023 193.801L148.67 198.648L139.663 197.992ZM141.375 196.793L147.15 197.214L147.313 194.97L141.539 194.549L141.375 196.793ZM152.157 194.345L153.803 194.465L153.433 199.537C155.126 199.63 156.947 199.612 158.889 199.378L158.986 200.723C156.755 201.012 154.696 200.982 152.796 200.844L151.689 200.763L152.157 194.345ZM152.678 206.595L152.996 202.227L154.642 202.347L154.419 205.399L161.66 205.927L161.564 207.243L152.678 206.595ZM159.722 203.635L160.421 194.045L162.066 194.165L161.789 197.965L163.629 198.099L163.528 199.49L161.688 199.356L161.367 203.754L159.722 203.635ZM167.618 202.074L179.676 202.953L179.578 204.3L176.646 204.086L176.319 208.574L174.643 208.452L174.971 203.964L172.068 203.752L171.741 208.24L170.051 208.117L170.378 203.629L167.52 203.421L167.618 202.074ZM169.154 198.126C169.286 196.315 171.298 195.334 174.111 195.539C176.938 195.745 178.786 197.008 178.654 198.818C178.522 200.628 176.51 201.624 173.682 201.418C170.87 201.213 169.023 199.936 169.154 198.126ZM170.845 198.249C170.769 199.296 171.923 199.967 173.778 200.102C175.648 200.238 176.902 199.743 176.979 198.696C177.053 197.678 175.886 196.977 174.016 196.84C172.161 196.705 170.919 197.231 170.845 198.249ZM190.648 196.248L192.294 196.368L191.724 204.192L190.078 204.072L190.212 202.232L187.579 202.04L187.504 203.072L181.295 202.62L181.737 196.561L187.945 197.013L187.869 198.061L190.502 198.252L190.648 196.248ZM182.535 206.455C182.653 204.839 184.442 204.022 187.239 204.226C190.022 204.429 191.689 205.498 191.571 207.114C191.452 208.744 189.649 209.545 186.866 209.343C184.069 209.139 182.416 208.086 182.535 206.455ZM183.005 201.451L185.982 201.668L186.234 198.212L183.257 197.995L183.005 201.451ZM184.18 206.575C184.119 207.413 185.118 207.952 186.958 208.086C188.798 208.22 189.864 207.831 189.925 206.994C189.986 206.156 188.987 205.632 187.147 205.498C185.306 205.364 184.241 205.737 184.18 206.575ZM187.675 200.724L190.308 200.915L190.406 199.569L187.773 199.377L187.675 200.724ZM201.456 197.457C203.476 197.604 204.896 198.956 204.768 200.721C204.639 202.486 203.039 203.603 201.019 203.456C199.014 203.31 197.608 201.974 197.736 200.208C197.865 198.443 199.452 197.31 201.456 197.457ZM199.322 200.324C199.247 201.356 200.024 202.045 201.116 202.124C202.238 202.206 203.092 201.636 203.167 200.604C203.242 199.572 202.481 198.87 201.359 198.788C200.267 198.708 199.397 199.292 199.322 200.324ZM199.366 205.501L199.459 204.229L208.225 204.868L207.971 208.354L200.835 207.834L200.757 208.911L208.267 209.458L208.173 210.745L199.062 210.081L199.322 206.52L206.428 207.038L206.502 206.021L199.366 205.501ZM206.622 204.165L207.112 197.448L208.758 197.567L208.268 204.285L206.622 204.165ZM214.024 198.568L215.685 198.689L215.592 199.961C215.463 201.726 216.45 203.452 218.481 204.277L217.594 205.506C216.105 204.886 215.102 203.79 214.598 202.46C213.913 203.809 212.709 204.849 211.099 205.273L210.372 203.897C212.579 203.335 213.799 201.65 213.931 199.84L214.024 198.568ZM212.09 207.767L212.187 206.435L221.194 207.092L220.848 211.834L219.202 211.714L219.451 208.303L212.09 207.767ZM219.593 206.358L220.173 198.399L221.818 198.519L221.238 206.478L219.593 206.358ZM224.38 199.488L231.636 200.017L231.542 201.303L228.759 201.101C228.661 202.658 229.702 204.267 231.721 205.031L230.821 206.244C229.328 205.684 228.306 204.632 227.782 203.361C227.102 204.65 225.904 205.615 224.282 205.993L223.553 204.647C225.723 204.173 226.948 202.638 227.084 200.978L224.286 200.775L224.38 199.488ZM225.199 211.986L225.588 206.645L227.204 206.763L227.104 208.124L232.61 208.525L232.709 207.164L234.325 207.281L233.936 212.622L225.199 211.986ZM226.912 210.772L232.417 211.173L232.517 209.797L227.012 209.396L226.912 210.772ZM232.723 206.563L233.248 199.352L234.894 199.472L234.368 206.683L232.723 206.563Z" fill="white"/>
<rect x="87.5059" y="182.851" width="24" height="24" rx="12" transform="rotate(4.16801 87.5059 182.851)" fill="#4A3CEF"/>
<path d="M95.4181 199.299C97.4434 197.622 100.158 195.969 100.274 194.374C100.351 193.311 99.732 192.51 98.7725 192.44C98.0335 192.386 97.2557 192.864 96.8629 193.604L95.6958 192.985C96.3013 191.83 97.6195 191.092 98.8642 191.182C100.64 191.312 101.78 192.672 101.648 194.474C101.504 196.458 99.2229 198.065 97.363 199.441L101.421 199.737L101.333 200.943L95.4599 200.515L95.4181 199.299Z" fill="white"/>
<rect x="266.177" y="193.866" width="59" height="28" rx="10" transform="rotate(4.16801 266.177 193.866)" fill="#4A3CEF"/>
<path d="M284.291 204.826L283.607 214.2L282.531 214.121L283.127 205.94L281.526 206.814L281.056 205.919L283.214 204.747L284.291 204.826ZM289.039 205.08L290.167 205.163L290.022 207.146C289.87 209.234 291.026 211.43 292.668 212.331L291.941 213.191C290.678 212.46 289.723 211.074 289.308 209.427C288.666 211.088 287.488 212.41 286.09 212.986L285.471 212.002C287.267 211.325 288.735 209.242 288.894 207.064L289.039 205.08ZM293.528 215.913L294.362 204.465L295.49 204.547L294.656 215.996L293.528 215.913ZM305.226 205.282L306.354 205.365L306.106 208.775L307.778 208.896L307.71 209.83L306.038 209.708L305.749 213.663L304.621 213.58L305.226 205.282ZM297.04 210.838C299.783 210.217 301.596 208.772 301.945 206.842L297.835 206.543L297.902 205.622L303.231 206.01C303.014 208.979 300.821 210.996 297.453 211.781L297.04 210.838ZM298.397 215.994L298.667 212.299L299.795 212.381L299.592 215.169L306.1 215.643L306.034 216.551L298.397 215.994Z" fill="white"/>
</g>
<rect x="75.0951" y="167.408" width="263" height="53" rx="13.5" transform="rotate(4.16801 75.0951 167.408)" stroke="white" stroke-opacity="0.2"/>
</g>
<g filter="url(#filter2_b_3996_44337)">
<g clip-path="url(#clip3_3996_44337)">
<rect x="44" y="125.125" width="264" height="54" rx="14" transform="rotate(-5.91155 44 125.125)" fill="#6E61FF" fill-opacity="0.8"/>
<path d="M99.0772 147.351L111.103 146.105L111.237 147.404L106.179 147.927L106.416 150.21L104.775 150.38L104.538 148.097L99.2116 148.649L99.0772 147.351ZM101.161 153.348L100.784 149.707L102.41 149.539L102.65 151.852L110.274 151.062L110.412 152.39L101.161 153.348ZM100.534 146.129L99.9734 140.713L101.6 140.545L101.754 142.037L107.394 141.453L107.24 139.961L108.881 139.791L109.442 145.207L100.534 146.129ZM102.026 144.663L107.666 144.079L107.522 142.691L101.882 143.275L102.026 144.663ZM115.775 139.228C117.774 139.021 119.34 140.02 119.512 141.676C119.68 143.302 118.353 144.616 116.354 144.823C114.37 145.028 112.787 144.016 112.619 142.39C112.447 140.733 113.79 139.433 115.775 139.228ZM112.151 146.178C114.524 145.932 117.834 145.574 120.653 144.83L120.882 146.028C119.757 146.371 118.592 146.627 117.452 146.835L117.93 151.446L116.288 151.616L115.822 147.11C114.618 147.28 113.486 147.412 112.486 147.516L112.151 146.178ZM114.2 142.226C114.293 143.121 115.141 143.591 116.215 143.48C117.304 143.367 118.038 142.733 117.945 141.838C117.851 140.928 117.003 140.458 115.914 140.571C114.84 140.682 114.106 141.316 114.2 142.226ZM122.165 151.429L120.789 138.135L122.43 137.966L123.807 151.259L122.165 151.429ZM133.8 136.788L135.441 136.618L136.816 149.897L135.175 150.067L133.8 136.788ZM125.534 147.401C128.809 145.388 130.142 142.973 130.112 139.915L125.472 140.395L125.334 139.067L131.661 138.412C132.073 142.396 130.912 145.894 126.519 148.611L125.534 147.401ZM146.512 139.483L148.154 139.313L148.293 140.656L153.515 140.115L153.649 141.414L141.623 142.659L141.489 141.361L146.651 140.826L146.512 139.483ZM141.854 139.498C144.239 139.085 145.709 138.134 145.927 137.176L142.197 137.563L142.067 136.309L151.899 135.291L152.029 136.545L148.284 136.932C148.678 137.826 150.312 138.457 152.746 138.37L152.365 139.646C149.9 139.721 148.008 139.072 147.193 137.905C146.62 139.216 144.916 140.237 142.488 140.669L141.854 139.498ZM142.997 145.291L142.869 144.053L146.942 143.631L146.832 142.572L148.473 142.402L148.583 143.461L152.671 143.038L152.799 144.276L142.997 145.291ZM144.094 147.44C143.975 146.291 145.375 145.543 147.942 145.277C150.508 145.011 152.017 145.458 152.136 146.607C152.255 147.756 150.869 148.503 148.303 148.768C145.737 149.034 144.213 148.589 144.094 147.44ZM145.795 147.264C145.841 147.711 146.654 147.838 148.19 147.679C149.727 147.52 150.496 147.229 150.45 146.782C150.402 146.319 149.591 146.207 148.054 146.366C146.518 146.525 145.747 146.801 145.795 147.264ZM154.69 141.562L166.686 140.32L166.822 141.633L154.826 142.875L154.69 141.562ZM155.541 137.689C155.368 136.018 157.141 134.794 160.021 134.496C162.885 134.199 164.887 135.032 165.06 136.703C165.235 138.389 163.446 139.615 160.582 139.912C157.702 140.21 155.715 139.375 155.541 137.689ZM156.822 147.585L156.422 143.72L158.048 143.552L158.311 146.088L165.845 145.308L165.983 146.636L156.822 147.585ZM157.227 137.514C157.321 138.424 158.536 138.796 160.446 138.599C162.355 138.401 163.453 137.79 163.359 136.879C163.266 135.984 162.068 135.626 160.158 135.823C158.248 136.021 157.134 136.619 157.227 137.514ZM177.443 133.596C177.859 137.61 177.126 141.169 172.517 144.135L171.507 142.973C173.671 141.587 174.891 140.119 175.489 138.459L171.442 139.285L171.087 137.889L175.845 137.095C175.944 136.451 175.981 135.784 175.968 135.076L171.536 135.535L171.401 134.222L177.443 133.596ZM180.502 145.374L179.126 132.08L180.782 131.908L181.321 137.116L183.276 136.913L183.416 138.271L181.462 138.473L182.159 145.202L180.502 145.374ZM193.378 130.634L194.945 130.472L196.32 143.751L194.753 143.913L193.378 130.634ZM184.265 140.49L185.429 140.37L184.814 134.432L183.889 134.527L183.751 133.2L189.809 132.572L189.946 133.9L189.006 133.998L189.601 139.742C190.001 139.67 190.399 139.584 190.753 139.502L190.994 140.668C188.965 141.316 186.254 141.642 184.583 141.815L184.265 140.49ZM186.901 140.172C187.304 140.131 187.719 140.057 188.12 140.001L187.514 134.152L186.291 134.279L186.901 140.172ZM189.948 137.414L189.8 135.981L191.277 135.828L190.797 131.188L192.333 131.029L193.611 143.368L192.074 143.527L191.425 137.261L189.948 137.414Z" fill="white"/>
<rect x="59.4707" y="138.603" width="24" height="24" rx="12" transform="rotate(-5.91155 59.4707 138.603)" fill="#4A3CEF"/>
<path d="M73.624 144.766L74.5974 154.167L73.2254 154.296L72.4047 146.369L70.8446 147.459L70.1565 146.367L72.2663 144.907L73.624 144.766Z" fill="white"/>
<rect x="237.312" y="118.178" width="59" height="28" rx="10" transform="rotate(-5.91155 237.312 118.178)" fill="#4A3CEF"/>
<path d="M257.777 125.698L258.75 135.099L257.378 135.228L256.557 127.302L254.997 128.391L254.309 127.299L256.419 125.839L257.777 125.698ZM262.337 125.056L263.772 124.908L263.959 126.718C264.179 128.839 265.485 130.847 267.418 131.47L266.71 132.707C265.314 132.224 264.23 131.095 263.557 129.648C263.207 131.318 262.361 132.739 261.046 133.542L260.07 132.453C261.871 131.417 262.754 129.091 262.524 126.867L262.337 125.056ZM268.618 135.11L267.423 123.563L268.845 123.415L270.041 134.963L268.618 135.11ZM278.249 122.468L279.671 122.321L280.014 125.631L281.617 125.465L281.738 126.629L280.135 126.795L280.53 130.609L279.107 130.757L278.249 122.468ZM271.238 129.232C273.771 128.198 275.2 126.6 275.25 124.804L271.319 125.211L271.201 124.073L276.671 123.507C276.988 126.572 275.234 128.949 271.95 130.295L271.238 129.232ZM273.507 134.355L273.111 130.528L274.533 130.381L274.812 133.07L281.161 132.413L281.278 133.551L273.507 134.355Z" fill="white"/>
</g>
<rect x="44.5488" y="125.571" width="263" height="53" rx="13.5" transform="rotate(-5.91155 44.5488 125.571)" stroke="white" stroke-opacity="0.2"/>
</g>
</g>
<defs>
<filter id="filter0_b_3996_44337" x="40" y="240.935" width="286.905" height="90.7183" filterUnits="userSpaceOnUse" color-interpolation-filters="sRGB">
<feFlood flood-opacity="0" result="BackgroundImageFix"/>
<feGaussianBlur in="BackgroundImageFix" stdDeviation="5"/>
<feComposite in2="SourceAlpha" operator="in" result="effect1_backgroundBlur_3996_44337"/>
<feBlend mode="normal" in="SourceGraphic" in2="effect1_backgroundBlur_3996_44337" result="shape"/>
</filter>
<filter id="filter1_b_3996_44337" x="60.708" y="156.873" width="287.227" height="93.0452" filterUnits="userSpaceOnUse" color-interpolation-filters="sRGB">
<feFlood flood-opacity="0" result="BackgroundImageFix"/>
<feGaussianBlur in="BackgroundImageFix" stdDeviation="5"/>
<feComposite in2="SourceAlpha" operator="in" result="effect1_backgroundBlur_3996_44337"/>
<feBlend mode="normal" in="SourceGraphic" in2="effect1_backgroundBlur_3996_44337" result="shape"/>
</filter>
<filter id="filter2_b_3996_44337" x="34" y="87.9348" width="288.158" height="100.903" filterUnits="userSpaceOnUse" color-interpolation-filters="sRGB">
<feFlood flood-opacity="0" result="BackgroundImageFix"/>
<feGaussianBlur in="BackgroundImageFix" stdDeviation="5"/>
<feComposite in2="SourceAlpha" operator="in" result="effect1_backgroundBlur_3996_44337"/>
<feBlend mode="normal" in="SourceGraphic" in2="effect1_backgroundBlur_3996_44337" result="shape"/>
</filter>
<clipPath id="clip0_3996_44337">
<rect width="375" height="394" fill="white"/>
</clipPath>
<clipPath id="clip1_3996_44337">
<rect x="50" y="267.763" width="264" height="54" rx="14" transform="rotate(-3.65466 50 267.763)" fill="white"/>
</clipPath>
<clipPath id="clip2_3996_44337">
<rect x="74.6328" y="166.873" width="264" height="54" rx="14" transform="rotate(4.16801 74.6328 166.873)" fill="white"/>
</clipPath>
<clipPath id="clip3_3996_44337">
<rect x="44" y="125.125" width="264" height="54" rx="14" transform="rotate(-5.91155 44 125.125)" fill="white"/>
</clipPath>
</defs>
</svg>
