<svg width="17" height="17" viewBox="0 0 17 17" fill="none" xmlns="http://www.w3.org/2000/svg">
<path fill-rule="evenodd" clip-rule="evenodd" d="M8.5 17C13.1944 17 17 13.1944 17 8.5C17 3.80558 13.1944 0 8.5 0C3.80558 0 0 3.80558 0 8.5C0 13.1944 3.80558 17 8.5 17ZM9.3718 3.92314C9.3718 3.44166 8.98148 3.05135 8.5 3.05135C8.01852 3.05135 7.6282 3.44166 7.6282 3.92314V9.15391C7.6282 9.46014 7.78888 9.74392 8.05147 9.90147L11.3207 11.863C11.7336 12.1107 12.2691 11.9769 12.5168 11.564C12.7645 11.1511 12.6306 10.6156 12.2178 10.3679L9.3718 8.66031V3.92314Z" fill="#D5D5DE"/>
</svg>
