<svg width="375" height="394" viewBox="0 0 375 394" fill="none" xmlns="http://www.w3.org/2000/svg">
<path d="M268.022 228.532C260.334 222.874 243.027 232.546 233.767 238.413L239.967 252.033C267.811 246.398 276.301 234.624 268.022 228.532Z" fill="#DEDEE6"/>
<rect x="203.895" y="171.697" width="57.7653" height="19.1333" rx="9.56663" transform="rotate(79.9927 203.895 171.697)" fill="#DEDEE6"/>
<rect x="233.09" y="173.381" width="57.7653" height="18.1641" rx="9.08207" transform="rotate(111.924 233.09 173.381)" fill="#DEDEE6"/>
<path d="M220.573 189.449C203.741 187.687 188.511 192.613 193.789 216.144C190.609 225.085 207.301 271.063 191.313 276.508C181.692 279.784 176.146 290.965 187.587 298.706C193.789 302.903 211.138 297.952 220.573 295.356C225.694 293.948 233.176 290.638 250.842 298.022C268.508 305.405 278.895 268.168 255.443 274.835C247.258 277.161 258.759 266.077 258.138 247.797C257.516 229.518 250.808 192.613 220.573 189.449Z" fill="#DEDEE6"/>
<path d="M187.917 261.364C195.617 264.604 207.78 251.359 214.128 243.638L205.828 232.722C183.968 244.935 179.624 257.875 187.917 261.364Z" fill="#DEDEE6"/>
<path d="M196.5 250.531C196.44 240.448 175.97 233.24 164.389 229.861L156.217 244.252C180.145 262.711 196.565 261.388 196.5 250.531Z" fill="#F1F1F5"/>
<path d="M143.629 187.373C126.449 185.303 118.314 199.184 116.757 213.644C114.426 235.291 134.009 278.134 116.757 278.134C106.178 278.134 101.817 293.941 113.035 299.04C125.142 304.543 143.343 294.966 152.963 292.845C158.401 291.646 162.584 289.499 180.152 294.966C198.865 300.79 208.794 266.711 188.127 270.862C180.152 272.464 182.552 267.394 182.552 246.249C182.552 225.105 178.584 191.586 143.629 187.373Z" fill="#F1F1F5"/>
<path fill-rule="evenodd" clip-rule="evenodd" d="M178.381 217.119C177.895 216.963 177.377 216.878 176.839 216.878C174.067 216.878 171.82 219.125 171.82 221.897C171.82 224.669 174.067 226.917 176.839 226.917C178.244 226.917 179.514 226.34 180.425 225.41C179.902 222.628 179.233 219.845 178.381 217.119Z" fill="#E3E3ED"/>
<ellipse cx="168.018" cy="220.245" rx="2.37205" ry="1.69432" fill="#D5D5DE"/>
<path d="M110.133 259.195C117.656 265.887 136.683 255.511 146.928 249.174L141.707 233.494C112.021 238.919 102.032 251.99 110.133 259.195Z" fill="#F1F1F5"/>
<path d="M257.654 316.797C257.654 320.389 226.084 322 187.141 322C148.198 322 116.628 320.389 116.628 316.797C116.628 313.206 148.198 308.993 187.141 308.993C226.084 308.993 257.654 313.206 257.654 316.797Z" fill="#F1F1F5"/>
<circle cx="172.677" cy="216.898" r="1.69432" fill="#53525B"/>
<path fill-rule="evenodd" clip-rule="evenodd" d="M251.862 217.077C251.416 216.948 250.944 216.878 250.456 216.878C247.684 216.878 245.437 219.125 245.437 221.897C245.437 224.669 247.684 226.917 250.456 226.917C252.057 226.917 253.482 226.168 254.401 225.001C253.69 222.351 252.849 219.688 251.862 217.077Z" fill="#CFD0D9"/>
<circle cx="246.295" cy="216.898" r="1.69432" fill="#53525B"/>
<rect x="132.114" y="184.616" width="53.1067" height="22.1519" rx="11.076" transform="rotate(79.9927 132.114 184.616)" fill="#F1F1F5"/>
<rect x="148.713" y="180.291" width="53.1067" height="22.1519" rx="11.076" transform="rotate(79.9927 148.713 180.291)" fill="#F1F1F5"/>
<path d="M138.217 266.918L138.946 250.992C139.111 247.411 141.123 244.094 144.481 242.84C156.631 238.302 170.206 239.517 170.525 255.136C170.78 267.668 159.626 273.678 149.399 276.579C143.372 278.288 137.93 273.176 138.217 266.918Z" fill="#E3E3ED"/>
<path d="M212.471 268.129V248.778C212.471 244.253 215.462 240.188 219.948 239.595C231.304 238.094 245.707 239.926 246.011 254.877C246.282 268.195 234.347 274.452 223.681 277.393C217.821 279.009 212.471 274.207 212.471 268.129Z" fill="#CFD0D9"/>
<circle cx="158.434" cy="221.897" r="5.0194" fill="#E3E3ED"/>
<circle cx="162.486" cy="216.898" r="1.69432" fill="#53525B"/>
<circle cx="232.052" cy="221.897" r="5.0194" fill="#CFD0D9"/>
<circle cx="236.104" cy="216.898" r="1.69432" fill="#53525B"/>
<ellipse cx="241.794" cy="220.245" rx="2.37205" ry="1.69432" fill="#AEAFBC"/>
<path fill-rule="evenodd" clip-rule="evenodd" d="M171.383 170.053C177.626 165.915 181.491 160.181 181.491 153.845C181.491 141.228 166.164 131 147.257 131C128.351 131 113.024 141.228 113.024 153.845C113.024 166.462 128.351 176.69 147.257 176.69C151.372 176.69 155.317 176.206 158.971 175.318C161.211 174.774 163.575 175.234 165.628 176.283C169.024 178.019 173.733 179.189 179.316 177.898C174.055 175.505 172.507 172.62 171.383 170.053Z" fill="#D5D5DE"/>
<path d="M142.259 144.18C148.686 144.18 143.644 150.34 135.941 154.743C137.35 157.525 140.19 159.674 143.977 159.324C147.039 159.041 150.091 157.934 152.813 156.437C149.351 151.909 153.741 144.259 159.991 144.18C166.079 144.104 160.901 151.99 152.813 156.437C150.091 157.934 147.039 159.041 143.977 159.324C140.19 159.674 137.35 157.525 135.941 154.743C133.68 150.277 135.113 144.18 142.259 144.18Z" fill="#D5D5DE"/>
<path d="M124.994 158.86C136.997 156.943 151.51 144.18 142.259 144.18C130.663 144.18 134.111 160.236 143.977 159.324C156.139 158.2 168.127 144.079 159.991 144.18C150.332 144.301 145.118 162.504 166.45 159.324" stroke="#F1F1F5" stroke-width="2.05376" stroke-linecap="round"/>
<path d="M184.154 257.298C185.227 261.492 193.453 257.775 194.421 257.688C194.661 257.147 192.795 253.495 189.934 253.25C186.159 252.925 183.529 254.851 184.154 257.298Z" fill="#D5D5DE"/>
<path d="M184.154 257.298C185.227 261.493 193.453 257.775 194.421 257.689C194.661 257.148 192.794 253.496 189.934 253.25C186.158 252.926 183.529 254.851 184.154 257.298Z" fill="#DEDEE6"/>
</svg>
