<svg width="375" height="394" viewBox="0 0 375 394" fill="none" xmlns="http://www.w3.org/2000/svg">
<g clip-path="url(#clip0_3996_44293)">
<path d="M425 147C188.5 121.331 266 -1.16896 300 39.3312C336.029 82.2484 282.73 198.767 130 162C69.646 147.471 -6.5 81.5 -18 4.00001" stroke="#6E61FF" stroke-width="5"/>
<g clip-path="url(#clip1_3996_44293)">
<path d="M60.9116 122.027C59.9475 114.816 65.0111 108.19 72.2214 107.226L132.071 99.2235C139.282 98.2595 145.908 103.323 146.872 110.533L148.909 125.765L62.948 137.258L60.9116 122.027Z" fill="#6458F1"/>
<g filter="url(#filter0_b_3996_44293)">
<path d="M62.1816 130.591L247.132 105.863C255.544 104.738 263.275 110.646 264.4 119.058L274.984 198.214C276.108 206.626 270.201 214.357 261.789 215.482L92.0693 238.174C83.6573 239.299 75.9263 233.391 74.8016 224.979L62.1816 130.591Z" fill="#6E61FF" fill-opacity="0.8"/>
</g>
<path d="M87.7879 151.41L89.4786 151.184L90.1893 156.5L92.1846 156.233L92.3699 157.619L90.3746 157.886L91.293 164.755L89.6024 164.981L87.7879 151.41ZM80.1972 162.471C83.2479 160.358 84.69 157.809 84.5964 154.674L79.9661 155.293L79.7849 153.937L86.1059 153.092C86.6394 157.083 85.474 160.774 81.3106 163.609L80.1972 162.471ZM98.4065 150.238C101.453 149.831 103.373 150.396 103.575 151.904C103.776 153.412 102.074 154.477 99.0277 154.884C95.9814 155.291 94.0589 154.711 93.8573 153.203C93.6557 151.695 95.3603 150.646 98.4065 150.238ZM93.1817 157.774L93.0025 156.434L105.248 154.796L105.428 156.137L93.1817 157.774ZM94.8873 159.748L94.7183 158.483L104.025 157.239L104.469 160.559L96.8377 161.58L96.9741 162.6L104.986 161.529L105.155 162.793L95.5134 164.082L95.0512 160.625L102.667 159.607L102.549 158.723L94.8873 159.748ZM95.5937 152.971C95.6914 153.702 96.8065 153.925 98.8627 153.65C100.904 153.377 101.936 152.867 101.838 152.136C101.743 151.42 100.61 151.184 98.5695 151.457C96.5132 151.732 95.498 152.255 95.5937 152.971ZM115.557 147.713L117.141 147.501L118.954 161.057L117.37 161.269L115.557 147.713ZM106.471 154.896C106.07 151.896 106.966 149.9 108.733 149.664C110.363 149.446 111.665 150.838 112.188 153.357L113.498 153.182L112.85 148.338L114.419 148.129L116.111 160.786L114.542 160.995L113.679 154.537L112.384 154.71C112.604 157.394 111.69 159.144 110.03 159.366C108.263 159.602 106.875 157.912 106.471 154.896ZM107.995 154.693C108.28 156.825 108.952 157.914 109.82 157.797C110.704 157.679 111.067 156.452 110.782 154.32C110.499 152.203 109.828 151.13 108.945 151.248C108.077 151.364 107.711 152.576 107.995 154.693ZM128.713 146.559L133.449 145.925L133.547 146.656C133.669 147.57 133.851 148.926 133.672 150.717L132.017 150.752C132.154 149.339 132.092 148.293 131.999 147.483L128.892 147.899L128.713 146.559ZM123.424 154.428L123.245 153.088L128.758 152.351L128.424 149.853L130.085 149.631L130.418 152.129L135.46 151.455L135.639 152.795L123.424 154.428ZM123.652 148.599L123.473 147.259L127.646 146.701L127.718 147.234C127.83 148.072 128.025 149.534 127.612 151.543L125.966 151.53C126.253 150.081 126.252 149.027 126.196 148.259L123.652 148.599ZM125.076 156.812L124.895 155.456L134.277 154.202L134.902 158.878L133.212 159.104L132.768 155.784L125.076 156.812ZM139.47 146.717L141.952 146.385L141.712 144.588L143.357 144.368L143.597 146.165L146.05 145.837L146.227 147.162L139.647 148.042L139.47 146.717ZM140.534 151.893C140.285 150.034 141.344 148.559 143.05 148.331C144.771 148.101 146.18 149.246 146.428 151.104C146.679 152.978 145.62 154.453 143.899 154.683C142.193 154.911 140.784 153.766 140.534 151.893ZM142.011 151.695C142.158 152.792 142.859 153.396 143.712 153.282C144.565 153.167 145.098 152.399 144.951 151.302C144.806 150.221 144.088 149.603 143.235 149.717C142.382 149.831 141.867 150.614 142.011 151.695ZM148.04 156.548L146.348 143.891L147.916 143.681L148.625 148.981L149.935 148.806L149.188 143.216L150.772 143.004L152.584 156.56L151 156.772L150.116 150.162L148.806 150.337L149.609 156.338L148.04 156.548ZM153.358 143.79L155.003 143.571L155.243 145.368L158.731 144.901L158.491 143.104L160.151 142.882L160.976 149.051L158.417 149.393L158.712 151.602C159.8 151.394 160.885 151.156 161.902 150.88L162.202 152.081C159.423 152.979 156.364 153.404 154.062 153.696L153.65 152.356C154.671 152.219 155.828 152.065 157.043 151.871L156.741 149.617L154.182 149.959L153.358 143.79ZM155.65 148.414L159.138 147.948L158.904 146.196L155.416 146.662L155.65 148.414ZM163.246 155.135L161.434 141.579L163.094 141.357L163.833 146.886L165.768 146.627L165.953 148.013L164.019 148.272L164.906 154.913L163.246 155.135ZM169.591 141.48C171.617 141.21 173.328 142.872 173.721 145.812C174.116 148.767 172.902 150.821 170.876 151.091C168.835 151.364 167.125 149.702 166.73 146.747C166.337 143.807 167.55 141.753 169.591 141.48ZM168.329 146.533C168.608 148.62 169.548 149.734 170.675 149.583C171.802 149.433 172.401 148.112 172.122 146.026C171.845 143.954 170.922 142.853 169.795 143.004C168.668 143.154 168.052 144.461 168.329 146.533ZM176.5 153.378L174.687 139.822L176.393 139.594L176.827 142.839L178.792 142.576L178.977 143.962L177.012 144.225L177.363 146.844L179.327 146.582L179.511 147.952L177.546 148.215L178.206 153.15L176.5 153.378ZM188.03 138.038L189.706 137.814L190.427 143.206L192.483 142.931L192.668 144.317L190.612 144.592L191.518 151.37L189.843 151.594L188.03 138.038ZM179.528 142.632L179.349 141.292L182.502 140.87L182.254 139.012L183.944 138.786L184.193 140.644L187.3 140.229L187.479 141.569L179.528 142.632ZM180.701 146.646C180.45 144.773 181.722 143.269 183.656 143.011C185.621 142.748 187.228 143.866 187.479 145.74C187.729 147.613 186.473 149.115 184.508 149.377C182.573 149.636 180.951 148.52 180.701 146.646ZM182.315 146.43C182.464 147.542 183.289 148.145 184.324 148.007C185.36 147.868 186.013 147.068 185.864 145.956C185.715 144.844 184.873 144.228 183.838 144.366C182.802 144.505 182.167 145.318 182.315 146.43ZM194.095 137.708L195.755 137.486L196.201 140.822L203.862 139.797L204.042 141.138L194.72 142.384L194.095 137.708ZM193.54 145.503L193.361 144.163L205.637 142.521L205.817 143.862L193.54 145.503ZM195.697 150.501L195.159 146.48L196.819 146.258L197.176 148.924L205.02 147.875L205.201 149.231L195.697 150.501ZM218.24 133.984L219.9 133.762L220.33 136.976L222.203 136.725L222.388 138.111L220.515 138.362L220.967 141.743L219.307 141.965L218.24 133.984ZM210.814 142.108L209.986 135.909L211.661 135.685L212.307 140.513C214.024 140.253 215.831 139.856 217.73 139.215L218.094 140.546C215.931 141.3 213.876 141.699 211.926 141.96L210.814 142.108ZM212.398 145.834C212.174 144.159 213.831 142.868 216.588 142.499C219.344 142.13 221.282 142.941 221.506 144.617C221.728 146.277 220.069 147.553 217.313 147.921C214.556 148.29 212.62 147.495 212.398 145.834ZM214.058 145.612C214.174 146.481 215.338 146.837 217.135 146.596C218.948 146.354 219.977 145.705 219.861 144.836C219.741 143.938 218.581 143.612 216.769 143.855C214.972 144.095 213.938 144.714 214.058 145.612ZM223.223 134.496L229.59 133.644L230.453 140.103L224.087 140.954L223.223 134.496ZM226.369 146.431L225.787 142.075L227.462 141.851L227.866 144.867L235.344 143.867L235.523 145.207L226.369 146.431ZM225.55 139.378L228.627 138.967L228.122 135.19L225.045 135.601L225.55 139.378ZM232.861 142.106L231.537 132.206L233.212 131.982L233.746 135.972L235.619 135.722L235.805 137.108L233.931 137.359L234.536 141.882L232.861 142.106ZM90.8121 173.217L92.5027 172.991L92.9487 176.327L94.7917 176.08L94.977 177.466L93.134 177.713L93.5617 180.911L91.871 181.137L90.8121 173.217ZM83.3341 181.411L82.5175 175.303L88.5491 174.496L88.7303 175.852L84.3589 176.436L84.8151 179.848C87.3719 179.491 88.761 179.212 90.3175 178.678L90.6774 179.979C88.9747 180.579 87.4009 180.867 84.4308 181.264L83.3341 181.411ZM85.0008 185.064C84.7748 183.373 86.4072 182.131 89.1793 181.761C91.9513 181.39 93.8526 182.159 94.0786 183.85C94.3047 185.54 92.6702 186.767 89.8981 187.137C87.1261 187.508 85.2269 186.754 85.0008 185.064ZM86.6458 184.844C86.7619 185.712 87.8912 186.041 89.7189 185.797C91.5467 185.553 92.5497 184.938 92.4337 184.07C92.3135 183.171 91.1862 182.857 89.3585 183.101C87.5307 183.345 86.5256 183.945 86.6458 184.844ZM99.0202 172.569C101.076 172.294 102.784 173.353 103.024 175.15C103.264 176.947 101.893 178.402 99.8368 178.677C97.7958 178.95 96.1057 177.905 95.8654 176.107C95.6251 174.31 96.9792 172.842 99.0202 172.569ZM97.4799 175.891C97.6204 176.942 98.5437 177.47 99.6556 177.321C100.798 177.169 101.535 176.419 101.394 175.368C101.254 174.317 100.344 173.772 99.2014 173.925C98.0896 174.073 97.3394 174.84 97.4799 175.891ZM98.607 181.074L98.4339 179.779L107.359 178.586L107.834 182.135L100.569 183.106L100.715 184.203L108.361 183.18L108.536 184.49L99.2606 185.731L98.7759 182.106L106.011 181.138L105.872 180.102L98.607 181.074ZM105.604 178.216L104.69 171.377L106.366 171.153L107.28 177.992L105.604 178.216ZM117.985 169.584L119.661 169.36L121.473 182.916L119.798 183.14L117.985 169.584ZM109.904 180.571C111.906 179.311 112.819 176.864 112.526 174.67L112.434 173.985L109.51 174.376L109.333 173.051L112.257 172.66L111.992 170.68L113.668 170.456L113.933 172.436L116.827 172.049L117.004 173.374L114.11 173.761L114.201 174.446C114.48 176.533 116.04 178.572 118.312 179.214L117.569 180.616C115.941 180.152 114.602 178.951 113.773 177.387C113.411 179.203 112.449 180.82 110.974 181.73L109.904 180.571ZM131.328 167.8L133.004 167.576L134.816 181.132L133.141 181.356L131.328 167.8ZM123.187 178.919C126.48 176.758 127.771 174.244 127.647 171.114L122.91 171.747L122.729 170.391L129.187 169.528C129.731 173.595 128.649 177.212 124.233 180.128L123.187 178.919ZM148.608 165.49L150.207 165.276L152.02 178.832L150.42 179.045L148.608 165.49ZM140.442 177.232L139.255 168.353L144.403 167.664L144.582 169.005L141.079 169.473L141.901 175.626C143.483 175.399 144.614 175.155 145.874 174.723L146.209 176.074C144.729 176.597 143.397 176.837 141.356 177.11L140.442 177.232ZM144.117 172.601L143.936 171.246L146.51 170.902L145.873 166.134L147.441 165.925L149.134 178.582L147.565 178.792L146.691 172.257L144.117 172.601ZM161.416 163.762L163.106 163.536L164.925 177.137L163.234 177.363L161.416 163.762ZM153.112 170.763C152.719 167.824 153.948 165.768 155.989 165.495C158.03 165.222 159.756 166.883 160.149 169.822C160.544 172.777 159.315 174.833 157.274 175.106C155.233 175.379 153.507 173.718 153.112 170.763ZM154.726 170.547C155.005 172.634 155.945 173.749 157.072 173.598C158.199 173.447 158.813 172.125 158.534 170.038C158.257 167.967 157.319 166.867 156.192 167.018C155.065 167.169 154.449 168.476 154.726 170.547ZM166.874 164.117L176.196 162.871L176.375 164.211L168.744 165.231L168.966 166.892L176.292 165.912L176.468 167.222L169.141 168.201L169.374 169.938L177.126 168.901L177.305 170.242L167.862 171.504L166.874 164.117ZM166.836 175.192L166.655 173.836L178.931 172.195L179.112 173.55L166.836 175.192ZM183.626 162.032L193.176 160.755L193.341 161.989C193.559 163.619 193.814 165.523 193.604 168.481L191.92 168.52C192.019 167.406 192.026 166.413 192.003 165.548L184.125 167.035L183.72 165.632L191.923 164.256C191.86 163.551 191.775 162.912 191.697 162.333L183.807 163.388L183.626 162.032ZM183.652 172.897L183.471 171.541L187.98 170.938L187.534 167.603L189.194 167.381L189.64 170.716L195.717 169.904L195.898 171.259L183.652 172.897ZM200.682 159.38L202.449 159.143L202.584 160.149C202.865 162.251 205.156 164.084 208.039 164.194L207.493 165.678C205.163 165.525 203.136 164.4 202.026 162.704C201.383 164.619 199.725 166.252 197.532 167.01L196.631 165.72C199.336 164.846 201.096 162.472 200.817 160.385L200.682 159.38ZM196.959 171.071L196.775 169.7L209.052 168.059L209.235 169.43L196.959 171.071Z" fill="white"/>
<path d="M88.6424 201.951C88.3237 199.702 83.6407 196.295 82.4413 198.197C81.08 200.356 85.3734 202.414 88.6424 201.951Z" fill="#BDB8FF"/>
<path d="M175.525 192.078C175.206 189.83 170.523 186.422 169.324 188.325C167.963 190.483 172.256 192.541 175.525 192.078Z" fill="#BDB8FF"/>
<path d="M87.9315 204.424C86.2942 202.85 80.5065 203.055 80.7352 205.292C80.9948 207.832 85.6437 206.804 87.9315 204.424Z" fill="#BDB8FF"/>
<path d="M175.133 193.991C173.496 192.418 167.708 192.623 167.937 194.86C168.197 197.399 172.846 196.372 175.133 193.991Z" fill="#BDB8FF"/>
</g>
<path d="M163.25 218.754C160.166 229.392 181.952 245.826 193.095 253L203.718 237.94C184.278 211.031 166.571 207.298 163.25 218.754Z" fill="#E6C6FF"/>
<path d="M178.198 199.599C165.577 201.006 159.253 227.596 156.55 242.548L175.654 250.882C195.613 218.476 191.788 198.084 178.198 199.599Z" fill="#EBECF5"/>
<path d="M276.874 200.342C264.031 199.102 255.162 221.704 243.966 235.543L260.598 247.055C289.009 221.222 290.703 201.676 276.874 200.342Z" fill="#E6C6FF"/>
<path fill-rule="evenodd" clip-rule="evenodd" d="M228.992 170.271C234.853 172.629 237.691 179.292 235.333 185.152L230.933 196.085C262.989 204.739 270.417 246.746 271.148 268.263C271.541 279.816 268.089 289.088 265.855 295.088C263.637 301.042 262.62 303.774 267.755 302.314C297.291 293.918 284.209 340.816 261.96 331.517C241.513 322.971 231.899 325.799 225.469 327.69C224.903 327.857 224.361 328.016 223.838 328.16C223.506 328.251 223.166 328.345 222.818 328.441C210.744 331.768 189.887 337.516 182.295 332.379C167.887 322.629 174.871 308.548 186.988 304.421C200.176 299.93 195.708 273.541 192.181 252.701C191.215 247 190.32 241.713 189.877 237.405C189.788 237.072 189.713 236.733 189.652 236.388L181.197 188.474C180.041 181.921 184.416 175.671 190.969 174.515C197.522 173.359 203.771 177.733 204.928 184.286L206.785 194.812L214.111 176.611C216.469 170.751 223.132 167.912 228.992 170.271Z" fill="#E6C6FF"/>
<path d="M130.839 191.165C109.202 188.557 98.9564 206.04 96.9956 224.251C94.0601 251.514 118.723 305.472 96.9956 305.472C83.6725 305.472 78.1803 325.38 92.3081 331.801C107.556 338.732 130.479 326.671 142.595 323.999C149.444 322.49 154.712 319.785 176.837 326.671C200.406 334.006 212.909 291.085 186.881 296.313C176.837 298.33 179.86 291.945 179.86 265.315C179.86 238.686 174.863 196.47 130.839 191.165Z" fill="#EBECF5"/>
<path fill-rule="evenodd" clip-rule="evenodd" d="M174.744 228.626C174.133 228.429 173.48 228.323 172.803 228.323C169.312 228.323 166.481 231.153 166.481 234.644C166.481 238.136 169.312 240.966 172.803 240.966C174.572 240.966 176.171 240.239 177.319 239.068C176.66 235.565 175.817 232.06 174.744 228.626Z" fill="#E2E4F1"/>
<ellipse cx="161.693" cy="232.564" rx="2.98743" ry="2.13388" fill="#BCB9D9"/>
<path d="M67.3465 224.342C65.6757 236.913 89.9271 249.436 103.768 255.65L116.44 239.138C89.8295 212.002 69.1456 210.807 67.3465 224.342Z" fill="#EBECF5"/>
<path d="M288.266 357.4C288.266 362.647 242.151 365 185.266 365C128.38 365 82.2656 362.647 82.2656 357.4C82.2656 352.153 128.38 346 185.266 346C242.151 346 288.266 352.153 288.266 357.4Z" fill="#F1F1F5"/>
<circle cx="167.562" cy="228.349" r="2.13388" fill="#090909"/>
<path fill-rule="evenodd" clip-rule="evenodd" d="M263.247 229.536C262.726 229.397 262.178 229.323 261.613 229.323C258.121 229.323 255.291 232.153 255.291 235.644C255.291 239.136 258.121 241.966 261.613 241.966C263.577 241.966 265.331 241.07 266.491 239.665C265.584 236.277 264.511 232.873 263.247 229.536Z" fill="#DDBDF6"/>
<circle cx="256.372" cy="229.349" r="2.13388" fill="#090909"/>
<rect x="116.337" y="187.691" width="66.8841" height="27.8988" rx="13.9494" transform="rotate(79.9927 116.337 187.691)" fill="#EBECF5"/>
<rect x="138.242" y="182.244" width="66.8841" height="27.8988" rx="13.9494" transform="rotate(79.9927 138.242 182.244)" fill="#EBECF5"/>
<path d="M124.024 291.344L124.943 271.287C125.15 266.777 127.685 262.6 131.914 261.02C147.216 255.304 164.313 256.836 164.714 276.507C165.035 292.289 150.987 299.858 138.107 303.512C130.516 305.665 123.663 299.226 124.024 291.344Z" fill="#E2E4F1"/>
<path d="M213.635 293.869V269.498C213.635 263.8 217.402 258.68 223.051 257.933C237.354 256.042 255.493 258.35 255.876 277.18C256.218 293.952 241.186 301.833 227.753 305.537C220.373 307.572 213.635 301.525 213.635 293.869Z" fill="#DDBDF6"/>
<circle cx="149.623" cy="234.644" r="6.32157" fill="#E2E4F1"/>
<circle cx="154.727" cy="228.349" r="2.13388" fill="#090909"/>
<circle cx="238.435" cy="235.644" r="6.32157" fill="#DDBDF6"/>
<circle cx="243.538" cy="229.349" r="2.13388" fill="#090909"/>
<ellipse cx="250.704" cy="233.564" rx="2.98743" ry="2.13388" fill="#B58ED4"/>
</g>
<defs>
<filter id="filter0_b_3996_44293" x="51.2054" y="94.7493" width="234.892" height="154.538" filterUnits="userSpaceOnUse" color-interpolation-filters="sRGB">
<feFlood flood-opacity="0" result="BackgroundImageFix"/>
<feGaussianBlur in="BackgroundImageFix" stdDeviation="5.48814"/>
<feComposite in2="SourceAlpha" operator="in" result="effect1_backgroundBlur_3996_44293"/>
<feBlend mode="normal" in="SourceGraphic" in2="effect1_backgroundBlur_3996_44293" result="shape"/>
</filter>
<clipPath id="clip0_3996_44293">
<rect width="375" height="394" fill="white"/>
</clipPath>
<clipPath id="clip1_3996_44293">
<rect width="201.963" height="135.008" fill="white" transform="translate(58.9453 106.393) rotate(-7.61548)"/>
</clipPath>
</defs>
</svg>
