<svg width="288" height="198" viewBox="0 0 288 198" fill="none" xmlns="http://www.w3.org/2000/svg">
<path fill-rule="evenodd" clip-rule="evenodd" d="M173.908 150.51C180.799 150.51 186.385 144.924 186.385 138.033C186.385 131.142 180.799 125.556 173.908 125.556C167.017 125.556 161.431 131.142 161.431 138.033C161.431 144.924 167.017 150.51 173.908 150.51ZM173.908 147.391C179.076 147.391 183.266 143.201 183.266 138.033C183.266 132.865 179.076 128.675 173.908 128.675C168.74 128.675 164.55 132.865 164.55 138.033C164.55 143.201 168.74 147.391 173.908 147.391Z" fill="white"/>
<path fill-rule="evenodd" clip-rule="evenodd" d="M70.9543 118H67.835V129.503C65.5487 126.912 62.2037 125.279 58.4771 125.279C51.5862 125.279 46 130.865 46 137.756C46 144.647 51.5862 150.233 58.4771 150.233C65.368 150.233 70.9542 144.647 70.9542 137.756C70.9542 137.756 70.9542 137.755 70.9542 137.755H70.9543V118ZM67.8348 137.756C67.8348 142.924 63.6452 147.114 58.477 147.114C53.3088 147.114 49.1192 142.924 49.1192 137.756C49.1192 132.588 53.3088 128.398 58.477 128.398C63.6452 128.398 67.8348 132.588 67.8348 137.756Z" fill="white"/>
<path fill-rule="evenodd" clip-rule="evenodd" d="M242 118H238.881V129.503C236.594 126.912 233.249 125.279 229.523 125.279C222.632 125.279 217.046 130.865 217.046 137.756C217.046 144.647 222.632 150.233 229.523 150.233C236.414 150.233 242 144.647 242 137.756C242 137.756 242 137.755 242 137.755H242V118ZM238.88 137.756C238.88 142.924 234.691 147.114 229.523 147.114C224.354 147.114 220.165 142.924 220.165 137.756C220.165 132.588 224.354 128.398 229.523 128.398C234.691 128.398 238.88 132.588 238.88 137.756Z" fill="white"/>
<path fill-rule="evenodd" clip-rule="evenodd" d="M99.0276 125.556H95.9083V129.781C93.6221 127.19 90.277 125.557 86.5503 125.557C79.6594 125.557 74.0732 131.143 74.0732 138.034C74.0732 144.925 79.6594 150.511 86.5503 150.511C90.277 150.511 93.6221 148.877 95.9083 146.286V150.51H99.0276V125.556ZM95.9082 138.033C95.9082 143.201 91.7186 147.391 86.5504 147.391C81.3822 147.391 77.1926 143.201 77.1926 138.033C77.1926 132.865 81.3822 128.675 86.5504 128.675C91.7186 128.675 95.9082 132.865 95.9082 138.033Z" fill="white"/>
<path fill-rule="evenodd" clip-rule="evenodd" d="M210.807 146.286C208.521 148.877 205.176 150.51 201.45 150.51C194.559 150.51 188.973 144.924 188.973 138.033C188.973 131.142 194.559 125.556 201.45 125.556C205.176 125.556 208.521 127.19 210.807 129.78V125.556H213.927V137.993C213.927 138.006 213.927 138.02 213.927 138.033C213.927 138.047 213.927 138.06 213.927 138.073V150.51H210.807V146.286ZM210.807 138.088C210.778 143.231 206.6 147.391 201.45 147.391C196.282 147.391 192.092 143.201 192.092 138.033C192.092 132.865 196.282 128.675 201.45 128.675C206.6 128.675 210.778 132.835 210.807 137.978V138.088Z" fill="white"/>
<path fill-rule="evenodd" clip-rule="evenodd" d="M149.461 125.556H146.342V139.373V141.152V150.51H149.461L149.461 141.152L149.461 139.304C149.461 133.434 154.22 128.675 160.09 128.675H162.493V125.556H160.159C155.846 125.556 151.995 127.532 149.461 130.628V125.556Z" fill="white"/>
<path fill-rule="evenodd" clip-rule="evenodd" d="M109.425 118H106.305V125.278H102.146V128.397H106.305V143.943C106.305 147.416 109.122 150.232 112.595 150.232H116.703V147.113H111.941C110.551 147.113 109.425 145.987 109.425 144.597V128.397H113.584V125.278H109.425V118Z" fill="white"/>
<path fill-rule="evenodd" clip-rule="evenodd" d="M116.703 138.033C116.703 138.383 116.718 138.73 116.746 139.073C117.274 145.477 122.639 150.51 129.18 150.51C134.613 150.51 139.234 147.038 140.947 142.192H137.565C136.034 145.273 132.854 147.391 129.18 147.391C124.363 147.391 120.397 143.752 119.88 139.073H138.481H140.618H141.615C141.643 138.73 141.657 138.383 141.657 138.033C141.657 131.142 136.071 125.556 129.18 125.556C122.289 125.556 116.703 131.142 116.703 138.033ZM120.054 135.954H138.306C137.361 131.786 133.634 128.675 129.18 128.675C124.727 128.675 121 131.786 120.054 135.954Z" fill="white"/>
<path fill-rule="evenodd" clip-rule="evenodd" d="M116.115 55.089C116.115 55.089 116.703 55.089 118.731 55.7112C120.759 56.3334 128.597 58.8087 135.392 65.035C137.949 67.5917 140.992 71.1271 142.041 74.739C143.189 75.2688 144.369 75.8734 145.581 76.5588L147.911 77.8762L145.209 82.4188L142.879 81.1014C142.809 81.062 142.74 81.0228 142.67 80.984C142.496 83.093 141.936 85.2838 140.927 87.5383C138.866 92.1465 135.685 95.0204 132.021 96.24C128.404 97.4438 124.632 96.9279 121.561 95.3533C118.502 93.7843 115.98 91.0828 114.95 87.7018C113.897 84.2423 114.489 80.337 117.193 76.6473C119.783 73.1125 125.977 70.1737 135.026 72.2805C134.301 71.1812 132.412 69.0928 129.719 67.5611C126.766 65.8818 123.435 64.5241 120.069 63.8414C116.703 63.1587 114.577 62.8914 114.577 62.8914L116.115 55.089ZM137.293 78.4478C127.633 74.7974 122.688 78.1811 121.575 79.7001C119.759 82.1789 119.57 84.4212 120.113 86.2073C120.681 88.0719 122.135 89.714 124.068 90.7055C125.991 91.6914 128.229 91.953 130.281 91.2702C132.285 90.6031 134.43 88.9263 135.991 85.4385C137.137 82.8761 137.487 80.5531 137.293 78.4478Z" fill="white"/>
<path fill-rule="evenodd" clip-rule="evenodd" d="M171.344 102.877C171.344 102.877 170.756 102.877 168.728 102.237C166.7 101.597 158.862 99.0512 152.067 92.6471C149.51 90.0173 146.467 86.3809 145.418 82.6658C144.27 82.1208 143.09 81.4989 141.878 80.7939L139.548 79.4389L142.25 74.7665L144.58 76.1215C144.65 76.1621 144.719 76.2024 144.789 76.2423C144.962 74.073 145.523 71.8197 146.532 69.5007C148.593 64.7609 151.774 61.8048 155.438 60.5505C159.055 59.3122 162.827 59.8429 165.898 61.4625C168.957 63.0763 171.479 65.855 172.509 69.3326C173.562 72.8909 172.97 76.9078 170.266 80.7029C167.676 84.3387 161.482 87.3615 152.433 85.1945C153.158 86.3253 155.047 88.4733 157.74 90.0487C160.693 91.776 164.024 93.1725 167.39 93.8747C170.756 94.5769 172.882 94.8518 172.882 94.8518L171.344 102.877ZM150.166 78.851C159.826 82.6057 164.771 79.1253 165.884 77.5629C167.7 75.0133 167.889 72.7069 167.345 70.8698C166.778 68.9519 165.324 67.2629 163.391 66.2431C161.468 65.229 159.229 64.9599 157.178 65.6623C155.174 66.3484 153.029 68.0731 151.468 71.6605C150.322 74.2962 149.972 76.6856 150.166 78.851Z" fill="white"/>
</svg>
