<svg width="14" height="14" viewBox="0 0 14 14" fill="none" xmlns="http://www.w3.org/2000/svg">
<path fill-rule="evenodd" clip-rule="evenodd" d="M7 14C10.866 14 14 10.866 14 7C14 3.13401 10.866 0 7 0C3.13401 0 0 3.13401 0 7C0 10.866 3.13401 14 7 14ZM3.58718 4.97728C3.83663 4.87377 4.11975 4.99964 4.21953 5.25841L5.02058 7.33582C5.02791 7.3522 5.03442 7.36905 5.04005 7.38632L5.38944 8.29239L6.55934 5.25841C6.64422 5.03828 6.86176 4.91433 7.0784 4.94593C7.24552 4.97025 7.39576 5.08422 7.46293 5.25841L8.63283 8.29239L9.80274 5.25841C9.90252 4.99964 10.1856 4.87377 10.4351 4.97728C10.6845 5.08079 10.8059 5.37448 10.7061 5.63325L10.1619 7.04449H11.0657C11.3344 7.04449 11.5522 7.27043 11.5522 7.54914C11.5522 7.82784 11.3344 8.05378 11.0657 8.05378H9.77274L9.08451 9.83861C9.01064 10.0302 8.83175 10.1558 8.63283 10.1558C8.43391 10.1558 8.25503 10.0302 8.18115 9.83861L7.01113 6.80434L5.84112 9.83861C5.76724 10.0302 5.58836 10.1558 5.38944 10.1558C5.19051 10.1558 5.01163 10.0302 4.93775 9.83861L4.24913 8.05277H2.95753C2.68886 8.05277 2.47106 7.82683 2.47106 7.54813C2.47106 7.26942 2.68886 7.04348 2.95753 7.04348H3.85995L3.31617 5.63325C3.21638 5.37448 3.33772 5.08079 3.58718 4.97728Z" fill="#7B7C87"/>
</svg>
