<svg width="375" height="394" viewBox="0 0 375 394" fill="none" xmlns="http://www.w3.org/2000/svg">
<g clip-path="url(#clip0_3996_44296)">
<path d="M425 262.169C95.517 186.648 224 7.6687 295 92.1689C359.78 169.266 282.73 313.936 130 277.169C69.646 262.64 -6.5 196.669 -18 119.169" stroke="#A8A0FF" stroke-width="5"/>
<g clip-path="url(#clip1_3996_44296)">
<path d="M76.0369 100.022C76.8191 93.4407 82.7882 88.7398 89.3693 89.5219L156.894 97.547C163.475 98.3291 168.176 104.298 167.394 110.879L165.742 124.782L74.3847 113.924L76.0369 100.022Z" fill="#6458F1"/>
<g filter="url(#filter0_b_3996_44296)">
<path d="M75.0928 107.966L243.905 128.029C251.583 128.941 257.067 135.905 256.155 143.583L248.366 209.122C247.453 216.8 240.489 222.284 232.811 221.372L77.9014 202.961C70.2235 202.049 64.739 195.085 65.6515 187.407L75.0928 107.966Z" fill="#6E61FF" fill-opacity="0.8"/>
</g>
<path d="M93.8307 124.942L95.3739 125.125L94.7972 129.977L96.6184 130.194L96.4681 131.459L94.6469 131.242L93.9017 137.512L92.3586 137.329L93.8307 124.942ZM84.6273 132.984C87.798 131.81 89.6479 129.887 90.2753 127.1L86.049 126.597L86.1961 125.36L91.9654 126.046C91.5326 129.688 89.6683 132.681 85.3521 134.24L84.6273 132.984ZM103.467 126.313C106.247 126.643 107.814 127.577 107.65 128.953C107.487 130.329 105.743 130.883 102.963 130.553C100.182 130.223 98.6171 129.275 98.7807 127.899C98.9443 126.523 100.686 125.982 103.467 126.313ZM97.1493 131.779L97.2947 130.556L108.472 131.884L108.327 133.108L97.1493 131.779ZM98.2076 133.907L98.3447 132.753L106.839 133.763L106.479 136.794L99.5138 135.966L99.4031 136.897L106.716 137.766L106.578 138.92L97.7784 137.874L98.1535 134.719L105.105 135.545L105.2 134.738L98.2076 133.907ZM100.366 128.087C100.286 128.755 101.22 129.204 103.097 129.427C104.959 129.648 105.986 129.432 106.065 128.765C106.143 128.111 105.197 127.646 103.334 127.425C101.458 127.202 100.443 127.434 100.366 128.087ZM119.173 127.968L120.619 128.14L119.149 140.513L117.703 140.341L119.173 127.968ZM109.529 132.25C109.854 129.511 111.097 127.953 112.709 128.144C114.197 128.321 115.031 129.844 114.922 132.186L116.117 132.328L116.643 127.907L118.075 128.077L116.702 139.63L115.27 139.46L115.97 133.565L114.789 133.425C114.374 135.843 113.172 137.18 111.657 137C110.044 136.808 109.202 135.002 109.529 132.25ZM110.919 132.415C110.688 134.361 111.035 135.474 111.827 135.568C112.633 135.664 113.232 134.664 113.463 132.717C113.693 130.785 113.344 129.686 112.538 129.59C111.745 129.496 111.149 130.483 110.919 132.415ZM131.044 129.929L135.367 130.442L135.288 131.11C135.189 131.944 135.042 133.181 134.478 134.721L133.01 134.378C133.451 133.161 133.633 132.224 133.734 131.489L130.898 131.152L131.044 129.929ZM124.595 135.676L124.74 134.452L129.772 135.05L130.043 132.77L131.559 132.951L131.288 135.231L135.889 135.777L135.744 137.001L124.595 135.676ZM126.116 130.584L126.261 129.36L130.071 129.813L130.013 130.3C129.922 131.064 129.763 132.399 128.943 134.078L127.495 133.694C128.076 132.48 128.313 131.55 128.438 130.86L126.116 130.584ZM125.513 138.153L125.66 136.916L134.223 137.934L133.716 142.202L132.173 142.018L132.533 138.988L125.513 138.153ZM140.501 132.505L142.767 132.774L142.962 131.134L144.463 131.312L144.268 132.952L146.507 133.218L146.363 134.428L140.357 133.714L140.501 132.505ZM140.268 137.313C140.469 135.617 141.737 134.555 143.295 134.74C144.865 134.927 145.849 136.256 145.648 137.952C145.445 139.662 144.176 140.724 142.606 140.537C141.048 140.352 140.065 139.023 140.268 137.313ZM141.616 137.473C141.497 138.474 141.979 139.166 142.758 139.258C143.536 139.351 144.18 138.793 144.299 137.792C144.417 136.805 143.923 136.098 143.144 136.005C142.366 135.913 141.734 136.486 141.616 137.473ZM145.837 143.121L147.21 131.568L148.642 131.738L148.067 136.576L149.263 136.718L149.869 131.616L151.315 131.788L149.844 144.161L148.399 143.989L149.116 137.956L147.92 137.813L147.269 143.291L145.837 143.121ZM153.419 133.067L154.92 133.246L154.725 134.886L157.909 135.264L158.104 133.624L159.619 133.804L158.95 139.434L156.615 139.157L156.375 141.173C157.383 141.236 158.394 141.272 159.354 141.259L159.347 142.386C156.691 142.55 153.895 142.231 151.797 141.968L151.737 140.692C152.669 140.803 153.725 140.928 154.841 141.033L155.085 138.975L152.75 138.698L153.419 133.067ZM154.395 137.667L157.579 138.045L157.769 136.446L154.585 136.068L154.395 137.667ZM159.576 145.317L161.047 132.945L162.562 133.125L161.962 138.171L163.728 138.381L163.578 139.646L161.812 139.436L161.092 145.498L159.576 145.317ZM168.268 134.705C170.117 134.925 171.25 136.779 170.931 139.463C170.61 142.16 169.074 143.697 167.225 143.477C165.362 143.256 164.229 141.401 164.55 138.704C164.869 136.021 166.405 134.484 168.268 134.705ZM166.01 138.878C165.783 140.782 166.36 141.979 167.389 142.101C168.418 142.223 169.245 141.194 169.471 139.289C169.696 137.398 169.131 136.218 168.103 136.095C167.074 135.973 166.234 136.987 166.01 138.878ZM171.67 146.769L173.14 134.396L174.697 134.581L174.345 137.542L176.139 137.755L175.988 139.02L174.195 138.807L173.911 141.198L175.704 141.412L175.556 142.663L173.762 142.45L173.227 146.954L171.67 146.769ZM185.319 135.843L186.848 136.025L186.263 140.946L188.14 141.169L187.99 142.435L186.113 142.212L185.378 148.398L183.848 148.216L185.319 135.843ZM176.776 137.972L176.921 136.749L179.799 137.091L180.001 135.395L181.544 135.578L181.342 137.274L184.178 137.611L184.033 138.834L176.776 137.972ZM176.902 141.779C177.105 140.069 178.568 139.031 180.333 139.241C182.127 139.454 183.291 140.805 183.088 142.515C182.885 144.225 181.436 145.265 179.643 145.052C177.877 144.842 176.698 143.489 176.902 141.779ZM178.375 141.955C178.255 142.969 178.846 143.688 179.791 143.801C180.737 143.913 181.494 143.354 181.614 142.34C181.735 141.325 181.131 140.59 180.186 140.478C179.241 140.366 178.496 140.94 178.375 141.955ZM190.746 136.925L192.261 137.105L191.899 140.15L198.892 140.981L198.746 142.204L190.238 141.193L190.746 136.925ZM188.491 143.678L188.636 142.455L199.841 143.787L199.696 145.01L188.491 143.678ZM189.262 148.578L189.698 144.907L191.214 145.088L190.924 147.52L198.084 148.371L197.937 149.609L189.262 148.578ZM212.896 139.107L214.411 139.287L214.062 142.22L215.772 142.423L215.622 143.688L213.912 143.485L213.545 146.571L212.03 146.391L212.896 139.107ZM204.503 144.595L205.176 138.936L206.705 139.118L206.181 143.525C207.756 143.684 209.44 143.743 211.261 143.607L211.281 144.864C209.202 145.04 207.298 144.927 205.518 144.715L204.503 144.595ZM205.057 148.241C205.239 146.712 206.993 145.948 209.509 146.247C212.026 146.546 213.552 147.7 213.37 149.229C213.19 150.745 211.438 151.495 208.921 151.196C206.405 150.897 204.877 149.757 205.057 148.241ZM206.572 148.421C206.478 149.214 207.425 149.792 209.065 149.987C210.719 150.183 211.775 149.843 211.869 149.051C211.966 148.231 211.017 147.681 209.362 147.484C207.722 147.289 206.67 147.601 206.572 148.421ZM217.178 140.687L222.989 141.378L222.288 147.272L216.477 146.582L217.178 140.687ZM217.251 151.932L217.723 147.956L219.253 148.138L218.926 150.891L225.752 151.702L225.606 152.925L217.251 151.932ZM218.125 145.523L220.934 145.856L221.343 142.409L218.535 142.075L218.125 145.523ZM223.959 149.585L225.033 140.549L226.562 140.731L226.129 144.373L227.839 144.576L227.689 145.842L225.979 145.638L225.488 149.767L223.959 149.585ZM91.5661 144.828L93.1092 145.011L92.7474 148.056L94.4295 148.256L94.2792 149.521L92.597 149.321L92.25 152.24L90.7069 152.057L91.5661 144.828ZM83.1115 150.365L83.7741 144.79L89.2793 145.444L89.1323 146.681L85.1424 146.207L84.7723 149.321C87.1095 149.585 88.3984 149.654 89.8928 149.535L89.9159 150.765C88.2775 150.908 86.8234 150.806 84.1125 150.484L83.1115 150.365ZM83.755 153.966C83.9384 152.423 85.6601 151.697 88.1903 151.997C90.7205 152.298 92.2241 153.407 92.0407 154.951C91.8573 156.494 90.1373 157.206 87.6071 156.905C85.0769 156.604 83.5716 155.509 83.755 153.966ZM85.2565 154.144C85.1623 154.937 86.0842 155.483 87.7525 155.682C89.4208 155.88 90.4451 155.565 90.5393 154.772C90.6368 153.952 89.7132 153.419 88.0449 153.221C86.3767 153.023 85.354 153.324 85.2565 154.144ZM98.9561 146.115C100.833 146.338 102.1 147.659 101.905 149.299C101.71 150.94 100.17 151.913 98.2936 151.69C96.4307 151.468 95.176 150.163 95.3709 148.523C95.5659 146.882 97.0932 145.894 98.9561 146.115ZM96.8446 148.698C96.7306 149.657 97.4258 150.332 98.4406 150.452C99.4833 150.576 100.303 150.082 100.417 149.122C100.531 148.163 99.8517 147.476 98.8091 147.352C97.7942 147.232 96.9586 147.739 96.8446 148.698ZM96.6655 153.526L96.8059 152.345L104.953 153.313L104.568 156.552L97.9363 155.764L97.8173 156.765L104.796 157.594L104.654 158.79L96.1877 157.784L96.5809 154.475L103.184 155.26L103.297 154.314L96.6655 153.526ZM103.488 152.589L104.23 146.347L105.759 146.529L105.017 152.771L103.488 152.589ZM116.368 147.775L117.897 147.957L116.427 160.33L114.898 160.148L116.368 147.775ZM106.749 155.641C108.801 154.983 110.161 153.03 110.399 151.028L110.473 150.402L107.804 150.085L107.948 148.875L110.617 149.193L110.832 147.385L112.361 147.567L112.146 149.374L114.787 149.688L114.644 150.898L112.002 150.584L111.928 151.209C111.702 153.114 112.616 155.267 114.475 156.348L113.502 157.417C112.171 156.638 111.261 155.275 110.884 153.708C110.153 155.228 108.938 156.437 107.43 156.906L106.749 155.641ZM128.547 149.223L130.076 149.405L128.606 161.777L127.076 161.596L128.547 149.223ZM118.845 157.191C122.239 156.03 123.949 154.104 124.548 151.314L120.225 150.8L120.372 149.562L126.266 150.263C125.825 153.975 124.051 156.922 119.493 158.495L118.845 157.191ZM144.319 151.097L145.778 151.271L144.308 163.644L142.848 163.47L144.319 151.097ZM134.453 159.61L135.416 151.505L140.115 152.064L139.97 153.287L136.772 152.907L136.105 158.524C137.552 158.682 138.605 158.722 139.815 158.626L139.805 159.894C138.38 160.021 137.15 159.931 135.287 159.71L134.453 159.61ZM138.745 156.356L138.892 155.119L141.242 155.398L141.759 151.047L143.191 151.217L141.818 162.77L140.386 162.599L141.095 156.635L138.745 156.356ZM156.012 152.473L157.556 152.656L156.08 165.071L154.537 164.888L156.012 152.473ZM147.099 156.771C147.418 154.088 148.968 152.552 150.831 152.773C152.694 152.995 153.841 154.851 153.522 157.534C153.201 160.231 151.651 161.767 149.788 161.546C147.925 161.324 146.778 159.468 147.099 156.771ZM148.572 156.946C148.346 158.851 148.923 160.047 149.952 160.169C150.98 160.292 151.822 159.264 152.048 157.359C152.273 155.468 151.694 154.286 150.665 154.164C149.637 154.041 148.797 155.055 148.572 156.946ZM160.749 154.023L169.257 155.034L169.112 156.257L162.147 155.43L161.967 156.945L168.654 157.74L168.511 158.935L161.824 158.14L161.636 159.725L168.712 160.566L168.567 161.79L159.948 160.765L160.749 154.023ZM158.207 163.787L158.354 162.55L169.559 163.881L169.412 165.119L158.207 163.787ZM176.004 155.977L184.72 157.013L184.587 158.139C184.41 159.626 184.203 161.364 183.349 163.927L181.853 163.58C182.193 162.62 182.424 161.745 182.6 160.976L175.311 160.505L175.271 159.175L182.822 159.818C182.926 159.182 182.995 158.598 183.058 158.07L175.857 157.214L176.004 155.977ZM173.567 165.57L173.714 164.333L177.829 164.822L178.191 161.777L179.706 161.957L179.344 165.002L184.891 165.661L184.744 166.898L173.567 165.57ZM191.656 157.499L193.269 157.69L193.16 158.608C192.932 160.526 194.539 162.663 197.058 163.413L196.24 164.599C194.218 163.936 192.685 162.485 192.089 160.736C191.088 162.281 189.255 163.346 187.148 163.519L186.645 162.176C189.23 162.018 191.321 160.321 191.547 158.416L191.656 157.499ZM185.722 166.972L185.871 165.721L197.076 167.053L196.928 168.304L185.722 166.972Z" fill="white"/>
<rect x="73.665" y="179.296" width="40.8182" height="18.2727" rx="9.13636" transform="rotate(6.77763 73.665 179.296)" fill="#4A3CEF"/>
<path d="M81.2318 189.659L83.3877 192.66C83.6892 193.08 84.2509 193.146 84.6423 192.809L87.4416 190.397C88.2719 189.682 88.4266 188.38 87.7871 187.49C87.1476 186.6 85.9561 186.458 85.1257 187.174L84.6246 187.605L84.2386 187.068C83.5991 186.178 82.4076 186.036 81.5773 186.752C80.747 187.467 80.5923 188.769 81.2318 189.659Z" fill="white"/>
<path d="M94.0216 190.981L92.9184 190.711L93.6707 186.633L97.7794 187.122L97.6626 188.104L94.6313 187.744L94.2811 189.609C94.6485 189.492 95.0506 189.443 95.3991 189.484C96.9835 189.673 97.9762 190.873 97.7967 192.383C97.6147 193.914 96.3671 194.859 94.7828 194.67C93.5365 194.522 92.5583 193.56 92.4243 192.344L93.5423 192.22C93.6167 192.947 94.1796 193.528 94.9083 193.614C95.8378 193.725 96.5692 193.158 96.6772 192.25C96.7826 191.363 96.2031 190.651 95.2736 190.541C94.8828 190.494 94.3681 190.679 94.0216 190.981ZM98.8154 194.046C100.533 192.751 102.813 191.501 102.968 190.202C103.071 189.336 102.594 188.658 101.813 188.565C101.211 188.493 100.557 188.855 100.208 189.445L99.2776 188.896C99.8156 187.974 100.92 187.42 101.934 187.54C103.381 187.712 104.262 188.867 104.087 190.335C103.895 191.951 101.971 193.179 100.4 194.235L103.706 194.628L103.589 195.61L98.8043 195.041L98.8154 194.046Z" fill="white"/>
</g>
<g clip-path="url(#clip2_3996_44296)">
<path d="M114.577 222.93C114.08 216.322 119.033 210.561 125.642 210.063L193.45 204.955C200.059 204.457 205.82 209.411 206.317 216.02L207.369 229.98L115.629 236.891L114.577 222.93Z" fill="#E1B7F0"/>
<g filter="url(#filter1_b_3996_44296)">
<path d="M115.179 230.907L284.698 218.138C292.409 217.558 299.13 223.337 299.71 231.047L304.668 296.861C305.249 304.571 299.469 311.292 291.759 311.873L136.2 323.59C128.49 324.171 121.769 318.392 121.188 310.681L115.179 230.907Z" fill="#E1C2F9" fill-opacity="0.75"/>
</g>
<path d="M129.177 250.648L134.007 250.284L133.923 249.167L130.544 249.422L130.194 244.773L131.716 244.658L131.804 245.831L137.081 245.433L136.993 244.261L138.529 244.145L138.879 248.794L135.458 249.051L135.543 250.168L140.401 249.802L140.493 251.031L129.269 251.876L129.177 250.648ZM130.972 256.774L130.665 252.698L139.209 252.054L139.516 256.131L130.972 256.774ZM132.388 255.446L137.916 255.03L137.792 253.382L132.264 253.799L132.388 255.446ZM131.976 248.106L137.253 247.709L137.168 246.578L131.89 246.976L131.976 248.106ZM150.08 242.98L151.532 242.871L152.468 255.296L151.016 255.405L150.08 242.98ZM141.439 249.036C141.231 246.286 142.151 244.518 143.771 244.396C145.264 244.283 146.376 245.618 146.719 247.937L147.919 247.846L147.585 243.407L149.023 243.298L149.897 254.899L148.459 255.008L148.013 249.089L146.826 249.178C146.885 251.631 145.962 253.174 144.44 253.289C142.821 253.411 141.647 251.8 141.439 249.036ZM142.835 248.931C142.982 250.886 143.536 251.911 144.332 251.851C145.142 251.79 145.537 250.693 145.389 248.739C145.243 246.798 144.69 245.787 143.88 245.848C143.084 245.908 142.688 246.991 142.835 248.931ZM156.956 243.22L158.478 243.106L158.607 244.823L161.344 244.617L161.214 242.9L162.722 242.786L162.895 245.075L165.366 244.889L165.137 241.86L166.673 241.744L167.212 248.906L165.677 249.022L165.459 246.132L162.988 246.318L163.161 248.607L157.395 249.042L156.956 243.22ZM158.864 253.634C161.036 253.204 162.317 252.139 162.475 251.06L159.208 251.306L159.117 250.091L167.409 249.467L167.501 250.681L164.178 250.932C164.493 251.947 165.949 252.82 168.134 252.936L167.69 254.121C165.73 254.016 164.217 253.315 163.423 252.28C162.794 253.437 161.401 254.328 159.481 254.739L158.864 253.634ZM158.823 247.685L161.559 247.479L161.433 245.803L158.697 246.009L158.823 247.685ZM174.3 241.605L178.642 241.278L178.689 241.906C178.747 242.674 178.836 243.847 178.571 245.369L177.079 245.313C177.272 244.147 177.263 243.291 177.241 242.619L174.393 242.833L174.3 241.605ZM169.036 247.954L168.943 246.712L173.997 246.331L173.855 244.446L175.376 244.332L175.518 246.216L180.139 245.868L180.233 247.111L169.036 247.954ZM170.296 252.745C172.485 252.356 173.852 251.312 174.014 250.289L170.649 250.542L170.56 249.356L173.966 249.099L173.883 247.996L175.433 247.88L175.516 248.982L178.922 248.726L179.012 249.913L175.647 250.166C175.961 251.167 177.469 251.98 179.691 252.037L179.248 253.236C177.276 253.146 175.74 252.518 174.934 251.511C174.273 252.614 172.837 253.494 170.9 253.865L170.296 252.745ZM169.591 243.195L169.498 241.967L173.323 241.679L173.367 242.265C173.425 243.033 173.516 244.233 173.016 245.801L171.505 245.69C171.879 244.497 171.942 243.664 171.922 243.02L169.591 243.195ZM184.691 250.102L189.535 249.738L189.352 247.308L185.75 247.58L185.267 241.158L186.788 241.043L186.941 243.068L192.637 242.639L192.484 240.614L194.006 240.5L194.49 246.921L190.874 247.194L191.057 249.623L195.943 249.255L196.038 250.511L184.786 251.359L184.691 250.102ZM187.18 246.237L192.875 245.808L192.728 243.853L187.032 244.282L187.18 246.237ZM204.944 238.833L206.48 238.718L207.419 251.184L205.883 251.3L205.384 244.669L203.276 244.828L203.182 243.585L205.29 243.426L204.944 238.833ZM196.744 241.81L196.652 240.581L202.222 240.162L202.564 244.699L198.529 245.003L198.727 247.627C200.569 247.474 202.015 247.295 203.656 246.891L203.89 248.137C202.07 248.583 200.428 248.777 198.306 248.936L197.301 249.012L196.916 243.903L200.965 243.598L200.807 241.504L196.744 241.81ZM219.693 237.722L221.243 237.606L221.61 242.478L223.439 242.34L223.534 243.61L221.705 243.748L222.18 250.044L220.63 250.161L219.693 237.722ZM212.208 247.384C215.094 245.622 216.539 243.379 216.619 240.523L212.375 240.843L212.281 239.6L218.075 239.164C218.35 242.822 217.096 246.117 213.161 248.477L212.208 247.384ZM227.175 238.071C229.032 237.932 230.5 239.534 230.703 242.228C230.907 244.936 229.695 246.741 227.838 246.88C225.968 247.021 224.499 245.419 224.295 242.711C224.092 240.016 225.304 238.212 227.175 238.071ZM225.761 242.6C225.905 244.513 226.701 245.576 227.734 245.498C228.767 245.421 229.381 244.251 229.237 242.339C229.094 240.44 228.313 239.39 227.28 239.467C226.247 239.545 225.618 240.702 225.761 242.6ZM232.833 249.256L231.897 236.831L233.461 236.713L233.685 239.687L235.485 239.551L235.581 240.822L233.78 240.957L233.961 243.359L235.762 243.223L235.857 244.479L234.056 244.615L234.396 249.138L232.833 249.256ZM239.411 243.383L240.932 243.269L241.13 245.893L243.559 245.71L243.362 243.086L244.883 242.971L245.081 245.596L247.971 245.378L248.065 246.634L236.813 247.482L236.719 246.226L239.608 246.008L239.411 243.383ZM236.911 242.448C239.325 241.874 240.99 240.119 240.969 238.352L237.088 238.644L236.996 237.416L246.349 236.711L246.442 237.94L242.561 238.232C242.805 239.983 244.725 241.425 247.238 241.614L246.73 242.888C244.607 242.655 242.834 241.679 241.922 240.19C241.244 241.813 239.655 243.084 237.618 243.631L236.911 242.448ZM252.221 246.995C251.704 247.034 251.314 246.699 251.275 246.182C251.236 245.666 251.573 245.289 252.089 245.25C252.606 245.211 252.981 245.534 253.02 246.051C253.059 246.567 252.737 246.956 252.221 246.995ZM248.52 238.499C248.932 237.078 250.213 235.999 251.609 235.894C253.605 235.744 255.045 236.969 255.105 238.874C255.122 239.855 254.692 240.856 253.428 241.962C252.769 242.532 252.638 242.85 252.73 243.882L251.223 244.01C251.101 242.573 251.454 241.662 252.443 240.815C253.405 239.985 253.608 239.506 253.592 238.918C253.574 237.936 252.796 237.307 251.721 237.388C250.926 237.448 250.215 238.077 249.955 238.911L248.52 238.499ZM133.612 265.176C135.469 265.036 136.938 266.638 137.141 269.332C137.345 272.041 136.133 273.845 134.276 273.985C132.405 274.126 130.937 272.523 130.733 269.815C130.53 267.121 131.742 265.317 133.612 265.176ZM132.199 269.705C132.343 271.617 133.139 272.68 134.172 272.603C135.205 272.525 135.819 271.355 135.675 269.443C135.532 267.544 134.751 266.494 133.718 266.572C132.684 266.65 132.056 267.806 132.199 269.705ZM139.271 276.36L138.335 263.935L139.898 263.818L140.122 266.791L141.923 266.656L142.019 267.926L140.218 268.062L140.399 270.463L142.2 270.327L142.294 271.584L140.493 271.719L140.834 276.243L139.271 276.36ZM142.956 270.677L154.209 269.83L154.301 271.058L149.401 271.427L149.714 275.588L148.179 275.703L147.865 271.543L143.049 271.906L142.956 270.677ZM144.186 269.111L143.814 264.169L152.33 263.527L152.702 268.469L144.186 269.111ZM145.603 267.796L151.118 267.381L150.928 264.854L145.413 265.27L145.603 267.796ZM155.199 263.592L161.97 263.082L162.062 264.31L159.466 264.506L159.492 264.855C159.61 266.418 160.784 267.846 162.773 268.342L162.081 269.588C160.636 269.233 159.561 268.374 158.912 267.215C158.465 268.554 157.495 269.652 156.067 270.265L155.195 269.124C157.126 268.304 158.053 266.62 157.929 264.973L157.902 264.624L155.292 264.82L155.199 263.592ZM157.638 274.724L157.337 270.731L158.873 270.616L159.081 273.38L166.048 272.855L166.14 274.084L157.638 274.724ZM164.018 271.071L163.338 262.052L164.888 261.935L165.567 270.954L164.018 271.071ZM178.772 260.89L180.321 260.773L181.257 273.198L179.707 273.314L178.772 260.89ZM170.624 269.773L172.145 269.658L171.71 263.878L170.51 263.969L170.417 262.74L177.425 262.212L177.518 263.441L176.317 263.531L176.74 269.143C177.323 269.057 177.905 268.957 178.458 268.846L178.639 269.941C176.034 270.587 173.12 270.848 170.873 271.031L170.624 269.773ZM173.623 269.519C174.167 269.464 174.71 269.409 175.266 269.339L174.837 263.643L173.19 263.767L173.623 269.519ZM183.619 261.676L192.344 261.018L192.454 262.484C192.591 264.299 192.72 266.016 192.361 268.697L190.829 268.672C190.998 267.564 191.065 266.59 191.068 265.706L183.851 266.628L183.562 265.4L191.053 264.569C191.029 263.883 190.981 263.241 190.933 262.599L190.916 262.376L183.712 262.918L183.619 261.676ZM183.065 271.475L182.969 270.205L194.208 269.358L194.303 270.628L183.065 271.475ZM196.885 267.247L205.289 266.614L205.648 271.374L204.112 271.49L203.846 267.958L196.977 268.475L196.885 267.247ZM195.653 265.992L195.226 260.324L196.748 260.209L197.079 264.607C198.752 264.453 200.529 264.179 202.372 263.675L202.661 264.902C200.558 265.496 198.571 265.772 196.7 265.913L195.653 265.992ZM203.711 266.171L203.176 259.065L204.712 258.95L205.247 266.056L203.711 266.171ZM219.026 257.843L220.492 257.733L221.428 270.158L219.962 270.268L219.026 257.843ZM210.981 268.095L210.368 259.956L215.087 259.6L215.179 260.829L211.969 261.071L212.393 266.711C213.844 266.587 214.885 266.425 216.054 266.098L216.288 267.344C214.914 267.742 213.69 267.891 211.819 268.031L210.981 268.095ZM214.568 264.076L214.474 262.833L216.833 262.656L216.504 258.286L217.942 258.178L218.816 269.779L217.378 269.887L216.927 263.898L214.568 264.076ZM230.766 256.945L232.316 256.828L233.255 269.295L231.705 269.412L230.766 256.945ZM222.845 262.877C222.642 260.182 223.868 258.377 225.739 258.236C227.61 258.095 229.092 259.696 229.295 262.391C229.499 265.099 228.273 266.904 226.402 267.045C224.532 267.186 223.049 265.585 222.845 262.877ZM224.325 262.765C224.469 264.678 225.265 265.741 226.298 265.663C227.331 265.585 227.959 264.415 227.815 262.502C227.672 260.604 226.877 259.554 225.844 259.632C224.811 259.71 224.182 260.867 224.325 262.765ZM235.712 257.555L244.256 256.912L244.349 258.14L237.354 258.667L237.469 260.189L244.184 259.683L244.274 260.883L237.559 261.389L237.679 262.981L244.785 262.445L244.878 263.674L236.222 264.326L235.712 257.555ZM235.095 267.626L235.001 266.384L246.253 265.536L246.347 266.778L235.095 267.626ZM251.058 256.54L259.811 255.88L259.897 257.011C260.009 258.505 260.141 260.25 259.795 262.929L258.26 262.877C258.409 261.869 258.468 260.966 258.492 260.177L251.248 261.116L250.954 259.819L258.488 258.999C258.467 258.354 258.423 257.768 258.383 257.237L251.152 257.782L251.058 256.54ZM250.511 266.423L250.417 265.18L254.55 264.869L254.319 261.812L255.841 261.697L256.071 264.754L261.642 264.335L261.735 265.577L250.511 266.423ZM266.711 255.024L268.33 254.902L268.4 255.823C268.545 257.75 270.533 259.537 273.149 259.79L272.575 261.11C270.463 260.848 268.679 259.719 267.758 258.118C267.073 259.826 265.479 261.224 263.444 261.798L262.693 260.577C265.199 259.925 266.924 257.858 266.78 255.945L266.711 255.024ZM262.71 265.462L262.615 264.205L273.867 263.358L273.962 264.614L262.71 265.462Z" fill="white"/>
<rect x="127.491" y="301.181" width="40.8182" height="18.2727" rx="9.13636" transform="rotate(-4.3077 127.491 301.181)" fill="#E1B7F0"/>
<path d="M136.909 309.896L139.602 312.427C139.979 312.78 140.543 312.738 140.862 312.332L143.145 309.426C143.822 308.565 143.724 307.258 142.925 306.507C142.126 305.756 140.93 305.846 140.253 306.708L139.844 307.228L139.362 306.775C138.563 306.025 137.367 306.115 136.689 306.977C136.012 307.838 136.111 309.145 136.909 309.896Z" fill="white"/>
<path d="M148.628 311.301C150.065 309.7 152.062 308.035 151.964 306.73C151.898 305.86 151.3 305.287 150.516 305.346C149.911 305.391 149.339 305.872 149.111 306.518L148.091 306.158C148.442 305.15 149.42 304.394 150.438 304.317C151.891 304.208 152.977 305.171 153.088 306.645C153.21 308.268 151.558 309.843 150.219 311.181L153.539 310.931L153.613 311.918L148.809 312.28L148.628 311.301ZM156.576 311.716L155.345 311.809L157.857 304.793L154.315 305.07L154.24 304.073L158.907 303.722L159.087 304.7L156.576 311.716Z" fill="white"/>
</g>
</g>
<defs>
<filter id="filter0_b_3996_44296" x="55.5522" y="97.9661" width="210.702" height="133.505" filterUnits="userSpaceOnUse" color-interpolation-filters="sRGB">
<feFlood flood-opacity="0" result="BackgroundImageFix"/>
<feGaussianBlur in="BackgroundImageFix" stdDeviation="5"/>
<feComposite in2="SourceAlpha" operator="in" result="effect1_backgroundBlur_3996_44296"/>
<feBlend mode="normal" in="SourceGraphic" in2="effect1_backgroundBlur_3996_44296" result="shape"/>
</filter>
<filter id="filter1_b_3996_44296" x="105.179" y="208.098" width="209.53" height="125.532" filterUnits="userSpaceOnUse" color-interpolation-filters="sRGB">
<feFlood flood-opacity="0" result="BackgroundImageFix"/>
<feGaussianBlur in="BackgroundImageFix" stdDeviation="5"/>
<feComposite in2="SourceAlpha" operator="in" result="effect1_backgroundBlur_3996_44296"/>
<feBlend mode="normal" in="SourceGraphic" in2="effect1_backgroundBlur_3996_44296" result="shape"/>
</filter>
<clipPath id="clip0_3996_44296">
<rect width="375" height="394" fill="white"/>
</clipPath>
<clipPath id="clip1_3996_44296">
<rect width="184" height="123" fill="white" transform="translate(78.5156 79.1687) rotate(6.77763)"/>
</clipPath>
<clipPath id="clip2_3996_44296">
<rect width="184" height="123" fill="white" transform="translate(113 201.99) rotate(-4.3077)"/>
</clipPath>
</defs>
</svg>
