<svg width="375" height="394" viewBox="0 0 375 394" fill="none" xmlns="http://www.w3.org/2000/svg">
<g clip-path="url(#clip0_3996_44296)">
<path d="M101.237 123.25C100.846 118.069 104.73 113.553 109.91 113.163L163.066 109.159C168.247 108.769 172.763 112.652 173.153 117.833L173.977 128.777L102.061 134.194L101.237 123.25Z" fill="#D5D5DE"/>
<g filter="url(#filter0_b_3996_44296)">
<path d="M101.708 129.503L234.597 119.494C240.641 119.038 245.91 123.569 246.365 129.613L250.251 181.205C250.706 187.249 246.176 192.518 240.132 192.973L118.187 202.159C112.143 202.614 106.874 198.083 106.419 192.039L101.708 129.503Z" fill="#F1F1F5"/>
</g>
<path d="M112.624 144.222L116.411 143.936L116.345 143.061L113.696 143.26L113.422 139.616L114.615 139.526L114.684 140.445L118.821 140.134L118.752 139.215L119.955 139.124L120.23 142.768L117.549 142.97L117.615 143.846L121.423 143.559L121.496 144.522L112.697 145.185L112.624 144.222ZM114.032 149.024L113.791 145.829L120.488 145.324L120.729 148.52L114.032 149.024ZM115.142 147.983L119.475 147.657L119.378 146.365L115.044 146.692L115.142 147.983ZM114.818 142.229L118.955 141.918L118.888 141.031L114.752 141.343L114.818 142.229ZM129.011 138.211L130.149 138.125L130.882 147.865L129.744 147.951L129.011 138.211ZM122.236 142.958C122.074 140.802 122.795 139.416 124.065 139.321C125.236 139.232 126.107 140.278 126.376 142.096L127.317 142.025L127.055 138.545L128.182 138.46L128.867 147.554L127.74 147.639L127.39 142.999L126.46 143.069C126.506 144.992 125.783 146.202 124.59 146.292C123.32 146.387 122.4 145.125 122.236 142.958ZM123.331 142.876C123.446 144.408 123.881 145.212 124.505 145.165C125.14 145.117 125.449 144.257 125.334 142.725C125.219 141.204 124.785 140.411 124.15 140.459C123.527 140.506 123.216 141.355 123.331 142.876ZM134.401 138.399L135.594 138.309L135.695 139.655L137.84 139.494L137.739 138.148L138.921 138.059L139.056 139.853L140.993 139.707L140.814 137.333L142.018 137.242L142.441 142.856L141.237 142.947L141.067 140.681L139.129 140.827L139.265 142.622L134.745 142.963L134.401 138.399ZM135.897 146.563C137.599 146.225 138.604 145.39 138.727 144.545L136.166 144.737L136.095 143.785L142.595 143.296L142.667 144.248L140.062 144.444C140.309 145.24 141.45 145.924 143.163 146.015L142.815 146.944C141.279 146.862 140.093 146.313 139.471 145.501C138.978 146.408 137.886 147.106 136.38 147.429L135.897 146.563ZM135.864 141.899L138.009 141.737L137.91 140.424L135.765 140.585L135.864 141.899ZM147.997 137.133L151.401 136.876L151.438 137.369C151.483 137.971 151.553 138.89 151.345 140.083L150.175 140.039C150.327 139.125 150.32 138.455 150.302 137.928L148.07 138.096L147.997 137.133ZM143.871 142.11L143.797 141.136L147.759 140.838L147.648 139.36L148.841 139.27L148.952 140.748L152.574 140.475L152.648 141.449L143.871 142.11ZM144.858 145.866C146.574 145.56 147.646 144.742 147.773 143.94L145.135 144.139L145.065 143.209L147.735 143.008L147.67 142.143L148.885 142.051L148.95 142.916L151.621 142.715L151.691 143.645L149.053 143.844C149.299 144.629 150.481 145.266 152.223 145.311L151.876 146.251C150.33 146.18 149.126 145.687 148.494 144.898C147.976 145.763 146.85 146.453 145.331 146.744L144.858 145.866ZM144.305 138.379L144.233 137.416L147.231 137.19L147.266 137.65C147.311 138.252 147.382 139.193 146.99 140.422L145.806 140.335C146.099 139.4 146.149 138.747 146.133 138.242L144.305 138.379ZM156.143 143.794L159.94 143.508L159.797 141.604L156.973 141.816L156.594 136.782L157.787 136.692L157.906 138.279L162.371 137.943L162.252 136.356L163.445 136.266L163.824 141.3L160.989 141.514L161.133 143.418L164.963 143.13L165.037 144.115L156.217 144.779L156.143 143.794ZM158.093 140.764L162.559 140.427L162.443 138.895L157.978 139.231L158.093 140.764ZM172.019 134.96L173.223 134.869L173.959 144.642L172.755 144.733L172.364 139.535L170.711 139.659L170.638 138.685L172.29 138.561L172.019 134.96ZM165.591 137.293L165.519 136.33L169.885 136.001L170.153 139.558L166.991 139.796L167.146 141.854C168.589 141.734 169.723 141.593 171.009 141.276L171.193 142.253C169.766 142.603 168.479 142.755 166.816 142.88L166.028 142.939L165.726 138.934L168.9 138.695L168.776 137.053L165.591 137.293ZM183.581 134.089L184.796 133.998L185.084 137.817L186.517 137.709L186.592 138.705L185.159 138.813L185.53 143.749L184.316 143.84L183.581 134.089ZM177.713 141.663C179.976 140.282 181.109 138.524 181.171 136.285L177.844 136.535L177.771 135.561L182.313 135.219C182.529 138.086 181.546 140.67 178.46 142.52L177.713 141.663ZM189.446 134.363C190.902 134.253 192.053 135.509 192.212 137.621C192.372 139.744 191.422 141.159 189.966 141.268C188.5 141.379 187.349 140.123 187.189 138C187.03 135.887 187.98 134.473 189.446 134.363ZM188.338 137.913C188.451 139.412 189.075 140.246 189.885 140.185C190.695 140.124 191.176 139.207 191.063 137.708C190.951 136.219 190.338 135.396 189.529 135.457C188.719 135.518 188.226 136.425 188.338 137.913ZM193.882 143.13L193.148 133.391L194.374 133.298L194.549 135.629L195.961 135.523L196.036 136.519L194.624 136.625L194.766 138.507L196.178 138.401L196.252 139.386L194.84 139.492L195.107 143.038L193.882 143.13ZM199.038 138.527L200.231 138.437L200.386 140.494L202.29 140.351L202.135 138.294L203.328 138.204L203.483 140.261L205.748 140.09L205.823 141.075L197.002 141.74L196.928 140.755L199.193 140.584L199.038 138.527ZM197.079 137.794C198.971 137.343 200.276 135.968 200.26 134.583L197.217 134.812L197.145 133.849L204.477 133.297L204.55 134.26L201.507 134.489C201.699 135.861 203.204 136.991 205.174 137.14L204.776 138.139C203.111 137.956 201.722 137.191 201.007 136.023C200.475 137.296 199.23 138.292 197.633 138.721L197.079 137.794ZM209.08 141.358C208.675 141.389 208.369 141.126 208.338 140.721C208.308 140.316 208.572 140.021 208.977 139.99C209.382 139.96 209.676 140.213 209.706 140.618C209.737 141.023 209.485 141.328 209.08 141.358ZM206.179 134.698C206.502 133.584 207.506 132.738 208.6 132.656C210.165 132.538 211.294 133.498 211.341 134.992C211.355 135.761 211.018 136.546 210.026 137.413C209.51 137.859 209.407 138.109 209.479 138.918L208.298 139.018C208.202 137.892 208.479 137.177 209.254 136.514C210.009 135.862 210.167 135.487 210.155 135.026C210.141 134.257 209.531 133.763 208.689 133.827C208.065 133.874 207.508 134.367 207.304 135.021L206.179 134.698ZM116.051 154.934C117.506 154.824 118.657 156.08 118.816 158.192C118.976 160.315 118.026 161.73 116.571 161.839C115.104 161.95 113.953 160.694 113.793 158.571C113.634 156.459 114.584 155.044 116.051 154.934ZM114.942 158.484C115.055 159.983 115.679 160.817 116.489 160.756C117.299 160.695 117.78 159.778 117.667 158.279C117.555 156.79 116.943 155.967 116.133 156.028C115.323 156.089 114.83 156.996 114.942 158.484ZM120.486 163.702L119.752 153.962L120.978 153.869L121.154 156.2L122.565 156.094L122.64 157.09L121.229 157.196L121.37 159.078L122.782 158.972L122.856 159.957L121.445 160.063L121.712 163.609L120.486 163.702ZM123.375 159.247L132.196 158.582L132.269 159.545L128.427 159.835L128.673 163.096L127.469 163.187L127.224 159.925L123.448 160.21L123.375 159.247ZM124.339 158.018L124.048 154.144L130.723 153.641L131.015 157.516L124.339 158.018ZM125.45 156.988L129.773 156.663L129.624 154.682L125.301 155.007L125.45 156.988ZM132.973 153.692L138.28 153.292L138.353 154.255L136.317 154.409L136.338 154.682C136.43 155.908 137.351 157.027 138.91 157.416L138.367 158.392C137.235 158.115 136.392 157.441 135.883 156.533C135.533 157.582 134.772 158.443 133.653 158.924L132.969 158.029C134.484 157.386 135.209 156.066 135.112 154.775L135.092 154.501L133.045 154.655L132.973 153.692ZM134.885 162.419L134.649 159.289L135.853 159.198L136.016 161.365L141.477 160.954L141.549 161.917L134.885 162.419ZM139.886 159.555L139.353 152.485L140.568 152.394L141.1 159.463L139.886 159.555ZM151.451 151.574L152.666 151.482L153.4 161.222L152.185 161.314L151.451 151.574ZM145.064 158.537L146.257 158.448L145.916 153.917L144.975 153.988L144.902 153.025L150.396 152.611L150.468 153.574L149.527 153.645L149.859 158.044C150.316 157.977 150.772 157.898 151.206 157.811L151.348 158.669C149.306 159.175 147.021 159.381 145.26 159.524L145.064 158.537ZM147.415 158.338C147.841 158.295 148.267 158.252 148.704 158.197L148.367 153.732L147.076 153.829L147.415 158.338ZM155.251 152.19L162.091 151.675L162.177 152.824C162.285 154.247 162.386 155.593 162.104 157.694L160.903 157.675C161.036 156.806 161.088 156.043 161.091 155.349L155.433 156.072L155.207 155.11L161.079 154.459C161.06 153.921 161.023 153.417 160.985 152.914L160.971 152.739L155.324 153.164L155.251 152.19ZM154.817 159.872L154.742 158.876L163.552 158.212L163.627 159.208L154.817 159.872ZM165.651 156.557L172.239 156.061L172.52 159.793L171.316 159.884L171.108 157.115L165.723 157.521L165.651 156.557ZM164.685 155.574L164.35 151.13L165.543 151.041L165.803 154.488C167.115 154.367 168.507 154.152 169.952 153.757L170.179 154.72C168.53 155.185 166.972 155.401 165.506 155.512L164.685 155.574ZM171.002 155.714L170.582 150.144L171.786 150.053L172.206 155.623L171.002 155.714ZM183.007 149.186L184.156 149.099L184.89 158.839L183.741 158.926L183.007 149.186ZM176.701 157.222L176.22 150.842L179.919 150.563L179.992 151.526L177.475 151.716L177.808 156.137C178.945 156.04 179.761 155.913 180.677 155.657L180.861 156.633C179.784 156.946 178.824 157.062 177.358 157.172L176.701 157.222ZM179.512 154.072L179.439 153.098L181.288 152.958L181.03 149.533L182.158 149.448L182.843 158.542L181.715 158.627L181.362 153.932L179.512 154.072ZM192.21 148.482L193.425 148.39L194.161 158.163L192.947 158.254L192.21 148.482ZM186.001 153.132C185.842 151.019 186.803 149.604 188.27 149.494C189.736 149.383 190.898 150.639 191.057 152.751C191.217 154.874 190.256 156.289 188.79 156.399C187.323 156.51 186.161 155.255 186.001 153.132ZM187.161 153.044C187.274 154.543 187.898 155.377 188.708 155.316C189.518 155.255 190.01 154.337 189.897 152.838C189.785 151.35 189.162 150.527 188.352 150.588C187.542 150.649 187.049 151.556 187.161 153.044ZM196.088 148.96L202.785 148.455L202.858 149.419L197.375 149.832L197.465 151.024L202.729 150.628L202.8 151.569L197.536 151.966L197.63 153.213L203.2 152.794L203.273 153.757L196.488 154.268L196.088 148.96ZM195.604 156.855L195.531 155.881L204.351 155.216L204.425 156.19L195.604 156.855ZM208.118 148.164L214.979 147.647L215.046 148.533C215.134 149.704 215.237 151.072 214.966 153.173L213.764 153.131C213.88 152.341 213.926 151.633 213.946 151.016L208.267 151.752L208.036 150.734L213.942 150.091C213.926 149.586 213.891 149.127 213.86 148.711L208.191 149.138L208.118 148.164ZM207.689 155.911L207.615 154.937L210.855 154.693L210.674 152.297L211.867 152.207L212.048 154.603L216.414 154.275L216.488 155.249L207.689 155.911ZM220.388 146.975L221.658 146.88L221.712 147.602C221.826 149.112 223.384 150.514 225.435 150.711L224.985 151.747C223.329 151.541 221.931 150.656 221.209 149.401C220.672 150.74 219.422 151.836 217.827 152.286L217.238 151.329C219.203 150.818 220.555 149.197 220.442 147.698L220.388 146.975ZM217.251 155.158L217.177 154.173L225.998 153.509L226.072 154.494L217.251 155.158Z" fill="#AEAFBC"/>
<rect x="111.36" y="184.592" width="31.807" height="14.5655" rx="7.28277" transform="rotate(-4.3077 111.36 184.592)" fill="#D5D5DE"/>
<path d="M118.752 191.544L120.863 193.528C121.158 193.805 121.6 193.772 121.85 193.453L123.64 191.176C124.171 190.5 124.094 189.475 123.468 188.887C122.842 188.299 121.904 188.369 121.373 189.045L121.052 189.453L120.674 189.097C120.048 188.509 119.11 188.58 118.579 189.255C118.049 189.931 118.126 190.955 118.752 191.544Z" fill="#AEAFBC"/>
<path d="M127.958 192.901C129.084 191.645 130.65 190.34 130.573 189.318C130.521 188.636 130.052 188.186 129.437 188.232C128.963 188.268 128.515 188.645 128.336 189.152L127.537 188.869C127.812 188.079 128.578 187.486 129.376 187.426C130.516 187.34 131.367 188.095 131.454 189.251C131.55 190.523 130.255 191.758 129.205 192.807L131.807 192.611L131.866 193.384L128.099 193.668L127.958 192.901ZM134.188 193.226L133.223 193.299L135.192 187.799L132.416 188.016L132.357 187.235L136.015 186.959L136.157 187.726L134.188 193.226Z" fill="#AEAFBC"/>
</g>
<g clip-path="url(#clip1_3996_44296)">
<path d="M128.049 200.912C128.663 195.753 133.342 192.068 138.501 192.681L191.434 198.972C196.593 199.585 200.279 204.264 199.665 209.423L198.37 220.322L126.754 211.81L128.049 200.912Z" fill="#AEAFBC"/>
<g filter="url(#filter1_b_3996_44296)">
<path d="M127.31 207.14L259.643 222.867C265.662 223.582 269.962 229.042 269.246 235.06L263.14 286.437C262.425 292.456 256.966 296.755 250.947 296.04L129.511 281.608C123.492 280.892 119.193 275.433 119.908 269.414L127.31 207.14Z" fill="#D5D5DE"/>
</g>
<path d="M142.088 219.694L143.298 219.838L142.846 223.641L144.273 223.811L144.156 224.803L142.728 224.633L142.144 229.548L140.934 229.404L142.088 219.694ZM134.873 225.998C137.359 225.078 138.809 223.57 139.301 221.385L135.988 220.991L136.103 220.022L140.626 220.559C140.287 223.414 138.825 225.761 135.442 226.983L134.873 225.998ZM149.642 220.769C151.821 221.028 153.05 221.759 152.921 222.838C152.793 223.917 151.426 224.351 149.247 224.092C147.067 223.833 145.84 223.091 145.968 222.012C146.097 220.933 147.462 220.509 149.642 220.769ZM144.69 225.054L144.804 224.095L153.566 225.136L153.452 226.095L144.69 225.054ZM145.519 226.722L145.627 225.817L152.285 226.609L152.003 228.984L146.543 228.336L146.456 229.066L152.189 229.747L152.081 230.652L145.183 229.832L145.477 227.358L150.926 228.005L151.001 227.373L145.519 226.722ZM147.211 222.16C147.149 222.683 147.88 223.035 149.352 223.21C150.812 223.383 151.617 223.214 151.679 222.691C151.74 222.178 150.999 221.814 149.538 221.64C148.067 221.466 147.272 221.647 147.211 222.16ZM161.955 222.066L163.088 222.201L161.935 231.9L160.802 231.765L161.955 222.066ZM154.394 225.423C154.649 223.276 155.623 222.054 156.887 222.204C158.053 222.343 158.707 223.537 158.622 225.372L159.559 225.484L159.971 222.018L161.093 222.152L160.017 231.208L158.895 231.075L159.444 226.454L158.517 226.344C158.193 228.239 157.25 229.288 156.062 229.146C154.798 228.996 154.137 227.58 154.394 225.423ZM155.484 225.552C155.302 227.078 155.574 227.95 156.196 228.024C156.828 228.099 157.297 227.315 157.478 225.789C157.658 224.274 157.385 223.413 156.753 223.338C156.131 223.264 155.664 224.037 155.484 225.552ZM171.26 223.603L174.649 224.006L174.587 224.529C174.509 225.183 174.394 226.153 173.952 227.36L172.802 227.091C173.147 226.137 173.29 225.403 173.369 224.826L171.146 224.562L171.26 223.603ZM166.204 228.108L166.318 227.149L170.263 227.618L170.476 225.831L171.664 225.972L171.451 227.759L175.058 228.188L174.944 229.147L166.204 228.108ZM167.397 224.116L167.511 223.157L170.497 223.512L170.452 223.894C170.38 224.493 170.256 225.539 169.613 226.856L168.478 226.555C168.933 225.603 169.12 224.874 169.217 224.333L167.397 224.116ZM166.924 230.05L167.039 229.081L173.752 229.878L173.355 233.224L172.145 233.08L172.427 230.705L166.924 230.05ZM178.673 225.622L180.45 225.834L180.603 224.548L181.78 224.687L181.627 225.973L183.381 226.182L183.269 227.13L178.561 226.571L178.673 225.622ZM178.491 229.392C178.649 228.062 179.643 227.23 180.863 227.375C182.095 227.521 182.866 228.563 182.708 229.893C182.549 231.233 181.555 232.066 180.323 231.919C179.103 231.774 178.331 230.732 178.491 229.392ZM179.548 229.517C179.455 230.302 179.832 230.844 180.442 230.917C181.053 230.989 181.558 230.552 181.651 229.767C181.743 228.993 181.356 228.439 180.746 228.366C180.135 228.294 179.64 228.743 179.548 229.517ZM182.857 233.944L183.933 224.888L185.055 225.022L184.605 228.814L185.542 228.925L186.017 224.926L187.151 225.061L185.998 234.76L184.865 234.625L185.427 229.895L184.489 229.784L183.979 234.078L182.857 233.944ZM188.8 226.063L189.977 226.203L189.824 227.489L192.32 227.786L192.473 226.5L193.661 226.641L193.136 231.055L191.305 230.837L191.117 232.417C191.907 232.467 192.7 232.495 193.452 232.485L193.447 233.368C191.365 233.497 189.173 233.247 187.529 233.041L187.482 232.041C188.212 232.127 189.04 232.226 189.915 232.308L190.106 230.695L188.276 230.477L188.8 226.063ZM189.565 229.669L192.061 229.965L192.21 228.712L189.714 228.416L189.565 229.669ZM193.627 235.667L194.78 225.967L195.968 226.108L195.497 230.064L196.881 230.229L196.764 231.221L195.379 231.056L194.815 235.808L193.627 235.667ZM200.44 227.347C201.89 227.52 202.778 228.973 202.528 231.077C202.277 233.191 201.072 234.396 199.623 234.224C198.163 234.05 197.274 232.597 197.526 230.482C197.776 228.379 198.98 227.174 200.44 227.347ZM198.67 230.618C198.493 232.111 198.945 233.049 199.751 233.145C200.558 233.241 201.206 232.434 201.384 230.941C201.56 229.459 201.117 228.533 200.311 228.437C199.504 228.341 198.846 229.136 198.67 230.618ZM203.107 236.804L204.26 227.105L205.48 227.25L205.205 229.571L206.61 229.738L206.493 230.73L205.087 230.563L204.864 232.438L206.27 232.605L206.153 233.585L204.747 233.418L204.328 236.949L203.107 236.804ZM213.807 228.24L215.006 228.382L214.547 232.24L216.018 232.415L215.901 233.407L214.429 233.232L213.853 238.081L212.654 237.939L213.807 228.24ZM207.11 229.908L207.224 228.949L209.48 229.217L209.638 227.888L210.848 228.032L210.69 229.361L212.913 229.625L212.799 230.584L207.11 229.908ZM207.208 232.893C207.368 231.553 208.514 230.738 209.898 230.903C211.304 231.07 212.217 232.129 212.058 233.469C211.899 234.81 210.763 235.625 209.357 235.458C207.973 235.294 207.049 234.233 207.208 232.893ZM208.364 233.03C208.269 233.826 208.733 234.389 209.474 234.477C210.215 234.565 210.808 234.128 210.903 233.332C210.997 232.536 210.524 231.961 209.783 231.873C209.042 231.785 208.458 232.235 208.364 233.03ZM218.061 229.088L219.249 229.229L218.965 231.616L224.447 232.267L224.333 233.226L217.663 232.433L218.061 229.088ZM216.293 234.382L216.407 233.423L225.191 234.467L225.077 235.426L216.293 234.382ZM216.898 238.222L217.24 235.345L218.428 235.486L218.201 237.393L223.814 238.06L223.698 239.03L216.898 238.222ZM235.425 230.798L236.613 230.939L236.339 233.238L237.68 233.398L237.562 234.389L236.221 234.23L235.934 236.65L234.746 236.508L235.425 230.798ZM228.846 235.1L229.373 230.664L230.572 230.807L230.161 234.261C231.395 234.386 232.716 234.432 234.143 234.326L234.159 235.311C232.529 235.449 231.036 235.36 229.641 235.194L228.846 235.1ZM229.28 237.959C229.422 236.76 230.798 236.161 232.77 236.395C234.743 236.63 235.939 237.534 235.797 238.733C235.656 239.921 234.282 240.509 232.309 240.275C230.336 240.04 229.139 239.146 229.28 237.959ZM230.468 238.1C230.394 238.721 231.136 239.174 232.422 239.327C233.719 239.481 234.546 239.214 234.62 238.593C234.696 237.95 233.952 237.519 232.655 237.365C231.369 237.212 230.544 237.457 230.468 238.1ZM238.781 232.037L243.337 232.578L242.787 237.199L238.232 236.657L238.781 232.037ZM238.839 240.852L239.209 237.735L240.408 237.878L240.152 240.035L245.502 240.671L245.388 241.63L238.839 240.852ZM239.524 235.827L241.726 236.089L242.047 233.386L239.846 233.125L239.524 235.827ZM244.097 239.012L244.939 231.928L246.138 232.071L245.798 234.926L247.139 235.086L247.021 236.077L245.681 235.918L245.296 239.155L244.097 239.012ZM140.393 234.609L141.603 234.753L141.319 237.14L142.638 237.296L142.52 238.288L141.201 238.131L140.929 240.42L139.719 240.276L140.393 234.609ZM133.765 238.95L134.285 234.579L138.6 235.092L138.485 236.062L135.357 235.691L135.067 238.132C136.899 238.338 137.91 238.392 139.081 238.299L139.099 239.263C137.815 239.376 136.675 239.295 134.55 239.043L133.765 238.95ZM134.27 241.773C134.413 240.563 135.763 239.994 137.747 240.23C139.73 240.465 140.909 241.335 140.765 242.544C140.621 243.754 139.273 244.312 137.289 244.077C135.306 243.841 134.126 242.982 134.27 241.773ZM135.447 241.912C135.373 242.534 136.096 242.962 137.403 243.118C138.711 243.273 139.514 243.026 139.588 242.405C139.664 241.762 138.94 241.344 137.633 241.189C136.325 241.033 135.523 241.269 135.447 241.912ZM146.186 235.618C147.657 235.793 148.65 236.828 148.498 238.114C148.345 239.4 147.138 240.163 145.667 239.988C144.206 239.815 143.223 238.792 143.376 237.506C143.528 236.22 144.726 235.445 146.186 235.618ZM144.531 237.643C144.441 238.395 144.986 238.924 145.782 239.018C146.599 239.115 147.242 238.728 147.332 237.976C147.421 237.224 146.888 236.685 146.071 236.588C145.275 236.493 144.62 236.891 144.531 237.643ZM144.39 241.428L144.5 240.502L150.887 241.261L150.585 243.8L145.387 243.182L145.293 243.967L150.764 244.617L150.653 245.554L144.016 244.765L144.324 242.172L149.501 242.787L149.589 242.046L144.39 241.428ZM149.738 240.693L150.32 235.8L151.519 235.942L150.937 240.836L149.738 240.693ZM159.836 236.92L161.034 237.062L159.882 246.762L158.683 246.619L159.836 236.92ZM152.295 243.086C153.903 242.57 154.969 241.039 155.156 239.469L155.214 238.979L153.122 238.73L153.234 237.782L155.327 238.031L155.495 236.614L156.694 236.756L156.526 238.173L158.596 238.419L158.484 239.367L156.413 239.121L156.355 239.612C156.177 241.105 156.894 242.792 158.352 243.64L157.589 244.478C156.545 243.867 155.832 242.799 155.536 241.57C154.964 242.762 154.011 243.71 152.829 244.078L152.295 243.086ZM169.383 238.054L170.581 238.197L169.429 247.896L168.23 247.754L169.383 238.054ZM161.777 244.301C164.438 243.391 165.778 241.881 166.248 239.693L162.859 239.291L162.974 238.321L167.595 238.87C167.249 241.78 165.858 244.09 162.285 245.323L161.777 244.301ZM181.746 239.524L182.891 239.66L181.738 249.359L180.594 249.223L181.746 239.524ZM174.012 246.197L174.768 239.844L178.451 240.282L178.337 241.241L175.831 240.943L175.307 245.346C176.442 245.469 177.267 245.501 178.216 245.426L178.208 246.42C177.091 246.519 176.127 246.449 174.666 246.275L174.012 246.197ZM177.377 243.646L177.492 242.676L179.334 242.895L179.74 239.484L180.862 239.618L179.786 248.674L178.663 248.541L179.219 243.865L177.377 243.646ZM190.913 240.602L192.123 240.746L190.966 250.478L189.757 250.334L190.913 240.602ZM183.926 243.972C184.176 241.868 185.391 240.664 186.851 240.838C188.311 241.011 189.211 242.467 188.961 244.57C188.709 246.684 187.494 247.888 186.034 247.715C184.574 247.541 183.674 246.086 183.926 243.972ZM185.081 244.109C184.903 245.602 185.356 246.54 186.162 246.636C186.969 246.731 187.628 245.926 187.805 244.433C187.982 242.95 187.528 242.023 186.722 241.928C185.915 241.832 185.257 242.627 185.081 244.109ZM194.626 241.817L201.296 242.61L201.182 243.569L195.722 242.92L195.581 244.108L200.823 244.731L200.711 245.668L195.469 245.045L195.322 246.287L200.869 246.947L200.755 247.906L193.998 247.103L194.626 241.817ZM192.633 249.471L192.749 248.502L201.532 249.545L201.417 250.515L192.633 249.471ZM206.585 243.349L213.418 244.161L213.313 245.044C213.174 246.21 213.012 247.572 212.343 249.581L211.17 249.309C211.437 248.556 211.618 247.87 211.755 247.268L206.041 246.898L206.01 245.856L211.93 246.36C212.011 245.862 212.065 245.404 212.115 244.99L206.469 244.319L206.585 243.349ZM204.674 250.869L204.789 249.899L208.015 250.283L208.299 247.896L209.487 248.037L209.203 250.424L213.551 250.941L213.436 251.911L204.674 250.869ZM218.855 244.542L220.119 244.692L220.033 245.411C219.855 246.915 221.114 248.59 223.089 249.179L222.448 250.108C220.863 249.588 219.661 248.451 219.194 247.08C218.409 248.291 216.972 249.126 215.321 249.261L214.926 248.208C216.953 248.085 218.592 246.754 218.769 245.261L218.855 244.542ZM214.203 251.969L214.32 250.988L223.104 252.032L222.987 253.013L214.203 251.969Z" fill="#AEAFBC"/>
<rect x="126.19" y="263.056" width="31.807" height="14.5655" rx="7.28277" transform="rotate(6.77763 126.19 263.056)" fill="#AEAFBC"/>
<path d="M132.108 271.3L133.798 273.652C134.034 273.981 134.475 274.033 134.781 273.769L136.976 271.878C137.627 271.317 137.748 270.297 137.247 269.599C136.745 268.901 135.811 268.79 135.16 269.351L134.768 269.69L134.465 269.269C133.964 268.571 133.03 268.46 132.379 269.021C131.728 269.582 131.607 270.602 132.108 271.3Z" fill="white"/>
<path d="M142.104 272.59L141.239 272.378L141.829 269.182L145.049 269.565L144.958 270.335L142.582 270.053L142.307 271.515C142.595 271.423 142.91 271.385 143.183 271.417C144.425 271.565 145.204 272.505 145.063 273.689C144.92 274.89 143.942 275.63 142.7 275.483C141.723 275.367 140.957 274.612 140.851 273.659L141.728 273.562C141.786 274.131 142.227 274.587 142.799 274.655C143.527 274.741 144.101 274.297 144.185 273.585C144.268 272.89 143.814 272.332 143.085 272.245C142.779 272.209 142.375 272.354 142.104 272.59ZM145.862 274.993C147.208 273.978 148.996 272.998 149.117 271.98C149.197 271.301 148.824 270.769 148.211 270.697C147.739 270.64 147.227 270.924 146.954 271.387L146.224 270.956C146.646 270.233 147.512 269.799 148.307 269.893C149.441 270.028 150.131 270.933 149.994 272.084C149.844 273.351 148.335 274.313 147.104 275.141L149.695 275.449L149.604 276.219L145.853 275.773L145.862 274.993Z" fill="white"/>
</g>
<defs>
<filter id="filter0_b_3996_44296" x="93.8689" y="111.623" width="164.253" height="98.4064" filterUnits="userSpaceOnUse" color-interpolation-filters="sRGB">
<feFlood flood-opacity="0" result="BackgroundImageFix"/>
<feGaussianBlur in="BackgroundImageFix" stdDeviation="3.91956"/>
<feComposite in2="SourceAlpha" operator="in" result="effect1_backgroundBlur_3996_44296"/>
<feBlend mode="normal" in="SourceGraphic" in2="effect1_backgroundBlur_3996_44296" result="shape"/>
</filter>
<filter id="filter1_b_3996_44296" x="111.991" y="199.301" width="165.172" height="104.656" filterUnits="userSpaceOnUse" color-interpolation-filters="sRGB">
<feFlood flood-opacity="0" result="BackgroundImageFix"/>
<feGaussianBlur in="BackgroundImageFix" stdDeviation="3.91956"/>
<feComposite in2="SourceAlpha" operator="in" result="effect1_backgroundBlur_3996_44296"/>
<feBlend mode="normal" in="SourceGraphic" in2="effect1_backgroundBlur_3996_44296" result="shape"/>
</filter>
<clipPath id="clip0_3996_44296">
<rect width="144.24" height="96.4213" fill="white" transform="translate(100 106.834) rotate(-4.3077)"/>
</clipPath>
<clipPath id="clip1_3996_44296">
<rect width="144.24" height="96.4213" fill="white" transform="translate(129.993 184.565) rotate(6.77763)"/>
</clipPath>
</defs>
</svg>
