<svg width="18" height="18" viewBox="0 0 18 18" fill="none" xmlns="http://www.w3.org/2000/svg">
<path d="M1.7998 12.5999H16.1998V12.3099C16.1998 9.9408 14.363 7.97745 11.9991 7.81986L11.5124 7.78741C10.2952 7.70626 9.28364 6.81908 9.0444 5.6229L8.2912 1.85688C8.18809 1.34135 7.66693 1.02358 7.16143 1.16801L2.45256 2.5134C2.06618 2.62379 1.7998 2.97694 1.7998 3.37877V12.5999Z" fill="#72C3C2"/>
<path d="M1.7998 12.6001H16.1998V13.5001C16.1998 13.9972 15.7969 14.4001 15.2998 14.4001H2.6998C2.20275 14.4001 1.7998 13.9972 1.7998 13.5001V12.6001Z" fill="#9F6E53"/>
<circle cx="4.5002" cy="15.3" r="1.8" fill="#F692A4"/>
<circle cx="4.49961" cy="15.2999" r="0.9" fill="white"/>
<circle cx="13.5002" cy="15.3" r="1.8" fill="#F692A4"/>
<circle cx="13.4996" cy="15.2999" r="0.9" fill="white"/>
<path d="M6.2998 4.9501L8.5498 3.6001" stroke="#054F4F" stroke-width="0.9" stroke-linecap="round"/>
<path d="M7.2002 6.7499L9.0002 5.3999" stroke="#054F4F" stroke-width="0.9" stroke-linecap="round"/>
<path d="M8.09961 8.54995L9.89961 7.19995" stroke="#054F4F" stroke-width="0.9" stroke-linecap="round"/>
</svg>
