<svg width="116" height="87" viewBox="0 0 116 87" fill="none" xmlns="http://www.w3.org/2000/svg">
<g clip-path="url(#clip0_4492_35562)">
<path d="M29.0098 15.2757C29.2926 13.4371 30.8746 12.0798 32.7349 12.0798H59.7955C61.5506 12.0798 63.0733 13.2912 63.468 15.0013L64.6782 20.2459H28.2451L29.0098 15.2757Z" fill="#6458F1"/>
<g filter="url(#filter0_b_4492_35562)">
<path d="M28.7008 16.7532H84.898C87.6302 16.7532 89.9624 18.7276 90.4133 21.4224L94.8238 47.7846C95.3942 51.1941 92.7653 54.2992 89.3084 54.2992H29.0245C25.5676 54.2992 22.9388 51.1941 23.5092 47.7845L28.7008 16.7532Z" fill="#6E61FF" fill-opacity="0.7"/>
</g>
<path opacity="0.4" fill-rule="evenodd" clip-rule="evenodd" d="M47.4731 28.7365C48.7535 27.0918 50.8722 26.0843 53.7932 26.0843C54.9195 26.0843 55.8956 26.2704 56.5708 26.7824C56.9277 27.0531 57.1892 27.4077 57.3248 27.8322C57.4573 28.2469 57.4518 28.6718 57.3716 29.0699C57.2158 29.843 56.753 30.6415 56.1581 31.4041C55.5503 32.1832 54.7443 33.0006 53.8015 33.8147C52.5332 34.9099 50.9786 36.0317 49.2548 37.072C50.515 38.9345 52.6309 40.2287 55.2826 39.9837C57.8568 39.7459 60.443 38.831 62.7779 37.5805C62.3909 36.8348 62.1534 36.0381 62.0559 35.2217C61.5391 30.8944 65.0083 26.1475 70.0521 26.0844C71.0886 26.0714 72.0132 26.2773 72.6587 26.8495C73.3495 27.4618 73.5262 28.3135 73.4214 29.1329C73.3197 29.9277 72.9516 30.7742 72.4399 31.6046C71.9211 32.4464 71.2192 33.3289 70.3819 34.204C69.0919 35.5521 67.4365 36.927 65.5499 38.136C65.9609 38.5137 66.4566 38.8581 67.0462 39.1569C69.0914 40.1935 72.3219 40.7034 77.1076 39.99C77.6223 39.9133 78.1017 40.2683 78.1784 40.783C78.2552 41.2977 77.9001 41.7772 77.3854 41.8539C72.3842 42.5994 68.7156 42.1157 66.1942 40.8378C65.2584 40.3635 64.489 39.7833 63.8765 39.1287C61.2932 40.5418 58.391 41.589 55.456 41.8602C51.9243 42.1865 49.1978 40.4196 47.6203 38.0053C44.633 39.6166 41.2859 40.9174 38.1001 41.4262C37.5862 41.5082 37.1031 41.1582 37.0211 40.6443C36.939 40.1305 37.289 39.6474 37.8029 39.5653C40.7633 39.0925 43.9211 37.862 46.7499 36.3337C46.5021 35.7165 46.3219 35.0812 46.2136 34.4464C45.8745 32.4594 46.21 30.3591 47.4731 28.7365ZM48.4013 35.3861C49.9772 34.427 51.4025 33.3964 52.5699 32.3884C53.4495 31.6288 54.1613 30.8999 54.6723 30.245C55.1961 29.5734 55.4533 29.0499 55.5243 28.6976C55.5574 28.5331 55.5421 28.4445 55.5297 28.4055C55.5203 28.3763 55.502 28.337 55.4321 28.284C55.2538 28.1487 54.7891 27.9688 53.7931 27.9688C51.3217 27.9688 49.8097 28.8028 48.9601 29.8941C48.0933 31.0076 47.7996 32.538 48.0712 34.1294C48.1438 34.5547 48.2546 34.976 48.4013 35.3861ZM64.4084 36.6291C66.2028 35.4937 67.7878 34.1893 69.0203 32.9012C69.7889 32.0979 70.4019 31.3197 70.8355 30.616C71.2762 29.9008 71.498 29.3168 71.5521 28.8938C71.6031 28.4955 71.5016 28.3421 71.4086 28.2596C71.2703 28.137 70.9057 27.9584 70.0757 27.9687C66.2567 28.0165 63.5303 31.6761 63.9271 34.9983C63.9934 35.5541 64.1488 36.1046 64.4084 36.6291Z" fill="white"/>
<path fill-rule="evenodd" clip-rule="evenodd" d="M50.0571 51.3591C49.8118 51.342 49.6269 51.1294 49.6439 50.8841C49.7475 49.3951 50.2357 47.0868 51.3684 44.9565C52.5027 42.8232 54.3082 40.826 57.0608 40.0625C57.2978 39.9968 57.5431 40.1355 57.6088 40.3725C57.6745 40.6094 57.5357 40.8547 57.2988 40.9204C54.8581 41.5974 53.2178 43.3748 52.1545 45.3745C51.0896 47.3774 50.6285 49.5606 50.5321 50.9459C50.5151 51.1912 50.3024 51.3762 50.0571 51.3591Z" fill="white"/>
<path d="M58.4421 39.8668C58.4083 39.6233 58.5783 39.3985 58.8218 39.3647C59.0653 39.3308 59.2902 39.5008 59.324 39.7444C59.3578 39.9879 59.1878 40.2127 58.9443 40.2465C58.7008 40.2804 58.4759 40.1104 58.4421 39.8668Z" fill="white"/>
<mask id="mask0_4492_35562" style="mask-type:alpha" maskUnits="userSpaceOnUse" x="45" y="36" width="27" height="28">
<circle cx="58.3536" cy="49.9698" r="13.2267" fill="#D9D9D9"/>
</mask>
<g mask="url(#mask0_4492_35562)">
<g filter="url(#filter1_b_4492_35562)">
<path d="M26.5993 16.6599H86.8947C89.8263 16.6599 92.3286 18.7783 92.8123 21.6697L97.5444 49.9543C98.1564 53.6125 95.3359 56.9441 91.6269 56.9441H26.9466C23.2376 56.9441 20.417 53.6125 21.0291 49.9543L26.5993 16.6599Z" fill="#6E61FF" fill-opacity="0.7"/>
</g>
<path opacity="0.4" fill-rule="evenodd" clip-rule="evenodd" d="M46.7273 29.5169C48.1011 27.7522 50.3743 26.6713 53.5083 26.6713C54.7167 26.6713 55.764 26.8709 56.4885 27.4203C56.8714 27.7107 57.152 28.0912 57.2975 28.5467C57.4396 28.9916 57.4338 29.4475 57.3477 29.8747C57.1805 30.7041 56.684 31.5608 56.0457 32.379C55.3935 33.215 54.5288 34.0919 53.5173 34.9654C52.1565 36.1405 50.4885 37.3442 48.639 38.4603C49.9911 40.4586 52.2613 41.8472 55.1064 41.5844C57.8682 41.3292 60.6431 40.3476 63.1483 39.0059C62.733 38.2058 62.4782 37.3509 62.3736 36.4751C61.8191 31.8322 65.5414 26.7391 70.953 26.6714C72.065 26.6575 73.0571 26.8784 73.7496 27.4923C74.4908 28.1493 74.6804 29.063 74.5679 29.9423C74.4588 30.795 74.0639 31.7032 73.5149 32.5941C72.9583 33.4974 72.2052 34.4442 71.3068 35.3832C69.9228 36.8295 68.1466 38.3047 66.1224 39.6019C66.5634 40.0071 67.0953 40.3767 67.7278 40.6972C69.9222 41.8094 73.3883 42.3565 78.523 41.5911C79.0752 41.5088 79.5896 41.8897 79.6719 42.442C79.7542 42.9942 79.3733 43.5086 78.8211 43.5909C73.4551 44.3908 69.5189 43.8719 66.8137 42.5007C65.8096 41.9918 64.9841 41.3693 64.327 40.667C61.5553 42.1831 58.4414 43.3067 55.2924 43.5977C51.5031 43.9478 48.5778 42.052 46.8853 39.4617C43.6801 41.1905 40.0889 42.5861 36.6708 43.132C36.1194 43.2201 35.6011 42.8445 35.513 42.2932C35.425 41.7418 35.8006 41.2235 36.3519 41.1354C39.5281 40.6281 42.9163 39.3079 45.9514 37.6682C45.6856 37.006 45.4921 36.3243 45.3759 35.6432C45.0121 33.5113 45.3721 31.2578 46.7273 29.5169ZM47.7232 36.6514C49.414 35.6224 50.9433 34.5167 52.1958 33.4351C53.1396 32.6202 53.9033 31.8381 54.4515 31.1354C55.0136 30.4149 55.2894 29.8532 55.3656 29.4752C55.4012 29.2987 55.3848 29.2037 55.3714 29.1618C55.3614 29.1304 55.3417 29.0882 55.2667 29.0314C55.0754 28.8863 54.5768 28.6932 53.5083 28.6932C50.8566 28.6932 49.2343 29.588 48.3228 30.759C47.3927 31.9537 47.0776 33.5956 47.369 35.3031C47.4469 35.7594 47.5658 36.2114 47.7232 36.6514ZM64.8976 37.9851C66.8229 36.7669 68.5235 35.3673 69.8459 33.9853C70.6706 33.1235 71.3283 32.2885 71.7935 31.5334C72.2664 30.7661 72.5043 30.1395 72.5624 29.6856C72.617 29.2583 72.5082 29.0937 72.4084 29.0053C72.26 28.8737 71.8688 28.682 70.9783 28.6932C66.8807 28.7444 63.9555 32.6709 64.3812 36.2353C64.4524 36.8317 64.6191 37.4223 64.8976 37.9851Z" fill="white"/>
</g>
<path d="M45.402 59.643C46.2668 58.7953 47.5149 58.6663 48.1898 59.3548L49.4854 60.6764C50.1603 61.3649 50.0064 62.6102 49.1417 63.4579L42.6903 69.7821C41.8255 70.6298 40.5774 70.7589 39.9025 70.0704L38.6069 68.7488C37.932 68.0603 38.0859 66.8149 38.9506 65.9672L45.402 59.643Z" fill="#221A6A"/>
<path d="M41.918 61.8738C42.6213 61.1844 43.6964 61.1407 44.3195 61.7762L47.0496 64.5613C47.6726 65.1968 47.6075 66.2709 46.9042 66.9603L34.7298 78.8947C34.0265 79.5841 32.9514 79.6278 32.3283 78.9922L29.5982 76.2072C28.9752 75.5717 29.0403 74.4976 29.7436 73.8082L41.918 61.8738Z" fill="#221A6A"/>
<path opacity="0.4" d="M67.744 59.9944C62.5284 65.21 54.0722 65.21 48.8566 59.9944C43.641 54.7788 43.641 46.3226 48.8566 41.107C54.0722 35.8914 62.5284 35.8914 67.744 41.107C72.9596 46.3226 72.9596 54.7788 67.744 59.9944Z" fill="#CAE6F5"/>
<path fill-rule="evenodd" clip-rule="evenodd" d="M47.597 61.254C53.508 67.165 63.0916 67.165 69.0026 61.254C74.9137 55.343 74.9137 45.7594 69.0026 39.8483C63.0916 33.9373 53.508 33.9373 47.597 39.8483C41.686 45.7594 41.686 55.343 47.597 61.254ZM49.4857 59.3653C54.3536 64.2332 62.246 64.2332 67.1139 59.3653C71.9818 54.4974 71.9818 46.605 67.1139 41.7371C62.246 36.8692 54.3536 36.8692 49.4857 41.7371C44.6178 46.605 44.6178 54.4974 49.4857 59.3653Z" fill="#221A6A"/>
<path fill-rule="evenodd" clip-rule="evenodd" d="M47.7378 51.4421C47.4925 51.425 47.3075 51.2124 47.3246 50.9671C47.4282 49.4781 47.9164 47.1698 49.049 45.0395C50.1833 42.9062 51.9889 40.909 54.7415 40.1455C54.9784 40.0798 55.2238 40.2186 55.2895 40.4555C55.3552 40.6924 55.2164 40.9377 54.9795 41.0034C52.5388 41.6804 50.8984 43.4578 49.8352 45.4575C48.7703 47.4604 48.3092 49.6436 48.2128 51.0289C48.1957 51.2742 47.9831 51.4592 47.7378 51.4421Z" fill="white"/>
<path d="M56.1223 39.9499C56.0885 39.7063 56.2585 39.4815 56.502 39.4477C56.7455 39.4138 56.9704 39.5838 57.0042 39.8274C57.038 40.0709 56.868 40.2957 56.6245 40.3296C56.381 40.3634 56.1561 40.1934 56.1223 39.9499Z" fill="white"/>
</g>
<defs>
<filter id="filter0_b_4492_35562" x="19.4369" y="12.7589" width="79.4592" height="45.5347" filterUnits="userSpaceOnUse" color-interpolation-filters="sRGB">
<feFlood flood-opacity="0" result="BackgroundImageFix"/>
<feGaussianBlur in="BackgroundImageFix" stdDeviation="1.99713"/>
<feComposite in2="SourceAlpha" operator="in" result="effect1_backgroundBlur_4492_35562"/>
<feBlend mode="normal" in="SourceGraphic" in2="effect1_backgroundBlur_4492_35562" result="shape"/>
</filter>
<filter id="filter1_b_4492_35562" x="16.6598" y="12.3744" width="85.2537" height="48.8553" filterUnits="userSpaceOnUse" color-interpolation-filters="sRGB">
<feFlood flood-opacity="0" result="BackgroundImageFix"/>
<feGaussianBlur in="BackgroundImageFix" stdDeviation="2.14278"/>
<feComposite in2="SourceAlpha" operator="in" result="effect1_backgroundBlur_4492_35562"/>
<feBlend mode="normal" in="SourceGraphic" in2="effect1_backgroundBlur_4492_35562" result="shape"/>
</filter>
<clipPath id="clip0_4492_35562">
<rect width="114.347" height="85.3333" fill="white" transform="translate(0.753418 0.986572)"/>
</clipPath>
</defs>
</svg>
