<svg width="18" height="18" viewBox="0 0 18 18" fill="none" xmlns="http://www.w3.org/2000/svg">
<path d="M2.74671 7.90576C3.21991 8.5367 3.97733 10.3665 3.21991 12.6378C2.63867 14.3808 2.27329 15.0038 2.74643 15.9503" stroke="#D70505" stroke-width="0.473205" stroke-linecap="round"/>
<path d="M15.3705 10.7456C14.8973 10.1147 14.1399 8.28484 14.8973 6.01355C15.4785 4.27057 15.8439 3.64752 15.3708 2.70111" stroke="#D70505" stroke-width="0.473205" stroke-linecap="round"/>
<path d="M3.21962 7.90576C3.69283 8.5367 4.45024 10.3665 3.69283 12.6378C3.11159 14.3808 2.74696 15.0038 3.69331 15.9503" stroke="#D70505" stroke-width="0.473205" stroke-linecap="round"/>
<path d="M14.8985 10.7456C14.4253 10.1147 13.6679 8.28484 14.4253 6.01355C15.0066 4.27057 15.3712 3.64752 14.4249 2.70111" stroke="#D70505" stroke-width="0.473205" stroke-linecap="round"/>
<path d="M1.84731 4.00161C1.82274 3.81208 1.9777 3.64745 2.16836 3.66051L4.28273 3.80543C4.68067 3.83271 5.08622 3.81984 5.48177 3.76855C5.87733 3.71725 6.27275 3.62624 6.65056 3.49836L8.65802 2.81892C8.83905 2.75765 9.03088 2.87731 9.05546 3.06684L9.55323 6.90523C9.81136 8.8957 8.40702 10.7186 6.41655 10.9767C4.42607 11.2348 2.60322 9.83048 2.34509 7.84L1.84731 4.00161Z" fill="#2B97E0"/>
<path d="M3.39039 6.48243C3.4395 6.2725 3.67286 5.8351 4.2134 5.765C4.75394 5.69491 5.09115 6.05831 5.19218 6.24877" stroke="black" stroke-width="0.302854" stroke-linecap="round"/>
<path d="M6.39332 6.09303C6.44243 5.88309 6.67579 5.4457 7.21633 5.3756C7.75687 5.3055 8.09408 5.6689 8.19511 5.85937" stroke="black" stroke-width="0.302854" stroke-linecap="round"/>
<path d="M5.38684 7.75146C5.44987 7.84507 5.66602 8.0206 6.02638 7.97387C6.38674 7.92714 6.55097 7.70227 6.58804 7.59568" stroke="black" stroke-width="0.302854" stroke-linecap="round"/>
<path d="M4.30297 8.80736C4.47908 8.98809 5.10158 9.31449 6.18266 9.1743C7.26373 9.0341 7.78238 8.55971 7.90657 8.34004" stroke="black" stroke-width="0.302854" stroke-linecap="round"/>
<path d="M9.01146 6.84796C9.0505 6.66088 9.25093 6.55627 9.42673 6.63124L11.3762 7.46256C11.7431 7.61902 12.1304 7.74007 12.5208 7.82154C12.9113 7.903 13.3147 7.94691 13.7135 7.95022L15.8328 7.9678C16.0239 7.96938 16.1658 8.14541 16.1267 8.3325L15.3362 12.1214C14.9263 14.0863 13.0011 15.3468 11.0363 14.9368C9.07148 14.5269 7.81099 12.6017 8.22094 10.6369L9.01146 6.84796Z" fill="#F4A441"/>
<path d="M9.65365 9.69931C9.76899 9.51715 10.1331 9.18066 10.6666 9.29199C11.2002 9.40331 11.3994 9.85731 11.4322 10.0704" stroke="black" stroke-width="0.302854" stroke-linecap="round"/>
<path d="M12.6175 10.317C12.7329 10.1348 13.0969 9.79834 13.6305 9.90966C14.1641 10.021 14.3632 10.475 14.3961 10.6881" stroke="black" stroke-width="0.302854" stroke-linecap="round"/>
<path d="M11.1234 11.551C11.1522 11.6601 11.2987 11.8969 11.6544 11.9711C12.0101 12.0453 12.2391 11.8869 12.3091 11.7984" stroke="black" stroke-width="0.302854" stroke-linecap="round"/>
<path d="M9.75162 12.1942C9.85861 12.4228 10.3394 12.9355 11.4065 13.1582C12.4737 13.3808 13.1193 13.1031 13.3088 12.9364" stroke="black" stroke-width="0.302854" stroke-linecap="round"/>
</svg>
